**ABCDEFGHIJKLMNOPQRSTUVWXYZabcdefghijklmnopqrstuvwxyz**************************
**PARASOLID !"#$%&'()*+,-./:;<=>?@[\]^_`{|}~0123456789**************************
**PART1;
MC=AMD64;
MC_MODEL=AMD64 Family 23 Model 8 Stepping 2, AuthenticAMD;
MC_ID=unknown;
OS=Windows_NT;
OS_RELEASE=unknown;
FRU=Parasolid Version 34.1, build 225,  5-24-2022;
APPL=SOLIDWORKS 2023-2022300;
SITE=;
USER=unknown;
FORMAT=text;
GUISE=transmit;
KEY=p1;
FILE=p1.x_t;
DATE=Sat May 18 08:53:15 2024;
**PART2;
SCH=SCH_3401225_34101;
USFLD_SIZE=0;
**PART3;
**END_OF_HEADER*****************************************************************
T51 : TRANSMIT FILE created by modeller version 340122523 SCH_3401225_34101_1300
6231 0 12 36 CCCI7 lattice222 0 CCCI4 mesh1006 0 I8 polyline1008 0 CCCCCCCDI5 ow
ner1040 0 CCCI16 boundary_lattice222 0 CCCI13 boundary_mesh1006 0 I17 boundary_p
olyline1008 0 CCCA16 index_map_offset0 0 1 dA9 index_map82 0 A17 node_id_index_m
ap82 0 A20 schema_embedding_map82 0 A5 child12 0 A14 lowest_node_id0 0 1 dA16 me
sh_offset_data206 0 Z1 1650 2 3 0 0 0 0 0 0 0 1e3 1e-8 0 4 0 1 0 1 1 5 0 6 7 8 0
 0 9 10 11 0 0 0 0 0 0 0 81 255 2 2 1584 12 1 13 0 0 0 0 14 70 11 CI9 list_type0
 0 1 uI10 notransmit0 0 1 lCCCDCCDI12 finger_index0 0 1 dI12 finger_block1012 0
 CZ3 0 4 T1 0 0 12 20 1 15 15 13 255 5 99 0 1 0 16 0 0 17 0 51 255 6 94 0 18 19
 0 0 --.055 .02 673555739531044e-32 0 -1 0 .015 0 0 -1 38 12 CCCCCCCCCCCA17 inte
rsection_data204 0 Z7 1080 0 20 21 0 0 +22 23 24 25 25 26 29 255 8 876 0 11 27 0
 -.02 .03464101615137755 -.015 19 9 CCCCCCI5 frame230 0 CA5 owner12 0 Z9 165 0 1
 17 0 28 0 V0 16 255 10 319 0 ?29 0 30 21 0 0 1 18 255 11 874 0 31 0 32 8 ?1 17
 255 31 0 33 34 35 11 36 37 0 38 +18 32 870 0 35 11 39 27 ?1 17 35 0 33 31 40 32
 41 42 0 36 +18 39 863 0 40 32 43 44 ?1 29 27 872 0 32 44 8 -.02 .03464101615137
755 .015 29 44 865 0 39 45 27 .02 .03464101615137755 .015 29 45 847 0 43 46 44 .
015 .0370809924354783 -.01 18 43 845 0 47 39 48 45 ?1 29 46 629 0 48 49 45 .035
 .0193649167310371 .015 18 48 627 0 50 43 51 46 ?1 29 49 312 0 51 52 46 -.04 0 -
.015 18 51 310 0 53 48 54 49 ?1 29 52 75 0 55 56 49 -.055 0 -.015 18 55 66 0 57
 58 59 52 ?1 29 56 78 0 59 60 52 -.055 0 .015 18 59 69 0 61 55 62 56 ?1 29 60 32
 0 54 63 56 -.055 .02 -.015 18 54 30 0 64 51 65 60 ?1 29 63 29 0 65 66 60 -.035
 .02 -.015 18 65 27 0 67 54 68 63 ?1 29 66 26 0 68 69 63 -.035 .02 .015 18 68 24
 0 70 65 58 66 ?1 29 69 23 0 58 71 66 -.055 .02 .015 18 58 21 0 72 68 55 69 ?1 2
9 71 560 0 62 73 69 -.035 .0193649167310371 .015 18 62 444 0 74 59 75 71 ?1 29 7
3 561 0 75 76 71 -.035 .0193649167310371 -.015 18 75 445 0 77 62 78 73 ?1 29 76
 562 0 78 79 73 -.04 0 .015 18 78 443 0 80 75 81 76 ?1 29 79 564 0 81 82 76 -.02
95803989154981 .005 -.025 18 81 449 0 83 78 84 79 ?1 29 82 565 0 84 85 79 -.035
 .005 -.025 18 84 440 0 86 81 87 82 ?1 29 85 566 0 87 88 82 -.035 0 -.025 18 87
 432 0 89 84 90 85 ?1 29 88 567 0 90 91 85 -.04 0 -.025 18 90 435 0 92 87 93 88
 ?1 29 91 568 0 93 94 88 .04 0 -.025 18 93 437 0 95 90 96 91 ?1 29 94 569 0 96 9
7 91 .035 0 -.025 18 96 450 0 98 93 99 94 ?1 29 97 570 0 99 100 94 .035 .005 -.0
25 18 99 451 0 101 96 102 97 ?1 29 100 571 0 102 103 97 .0295803989154981 .005 -
.025 18 102 452 0 104 99 105 100 ?1 29 103 572 0 105 106 100 -.0295803989154981
 .005 .025 18 105 439 0 107 102 108 103 ?1 29 106 573 0 108 109 103 -.035 .005 .
025 18 108 430 0 110 105 111 106 ?1 29 109 574 0 111 112 106 -.035 0 .025 18 111
 433 0 113 108 114 109 ?1 29 112 575 0 114 115 109 -.04 0 .025 18 114 436 0 116
 111 117 112 ?1 29 115 576 0 117 118 112 .04 0 .025 18 117 446 0 119 114 120 115
 ?1 29 118 577 0 120 121 115 .035 0 .025 18 120 447 0 122 117 123 118 ?1 29 121
 578 0 123 124 118 .035 .005 .025 18 123 448 0 125 120 126 121 ?1 29 124 579 0 1
26 127 121 .0295803989154981 .005 .025 18 126 438 0 128 123 129 124 ?1 29 127 75
7 0 129 130 124 .04 0 -.015 18 129 673 0 131 126 132 127 ?1 29 130 758 0 132 133
 127 .04 0 .015 18 132 664 0 134 129 135 130 ?1 29 133 760 0 135 136 130 .035 .0
193649167310371 -.015 18 135 675 0 137 132 138 133 ?1 29 136 763 0 139 140 133 .
055 .02 -.015 18 139 676 0 141 142 143 136 ?1 29 140 764 0 143 144 136 .035 .02
 -.015 18 143 670 0 145 139 146 140 ?1 29 144 765 0 146 147 140 .035 .02 .015 18
 146 671 0 148 143 149 144 ?1 29 147 766 0 149 150 144 .055 .02 .015 18 149 672
 0 151 146 152 147 ?1 29 150 767 0 138 153 147 .055 0 -.015 18 138 674 0 154 135
 142 150 ?1 29 153 770 0 142 155 150 .055 0 .015 18 142 677 0 156 138 139 153 ?1
 29 155 1018 0 152 157 153 -.015 .0370809924354783 -.01 18 152 937 0 158 149 159
 155 ?1 29 157 1019 0 159 160 155 -.015 .0370809924354783 .01 18 159 938 0 161 1
52 162 157 ?1 29 160 1020 0 162 163 157 .015 .0370809924354783 .01 18 162 939 0
 164 159 165 160 ?1 29 163 1021 0 165 166 160 .02 .03464101615137755 -.015 18 16
5 936 0 34 162 167 163 ?1 29 166 1026 0 167 168 163 .015 .05 -.01 18 167 929 0 1
69 165 170 166 ?1 29 168 1027 0 170 171 166 .02 .05 .015 18 170 927 0 172 167 17
3 168 ?1 29 171 1028 0 173 174 168 -.02 .05 .015 18 173 926 0 175 170 176 171 ?1
 29 174 1029 0 176 177 171 -.02 .05 -.015 18 176 925 0 178 173 179 174 ?1 29 177
 1030 0 179 180 174 .02 .05 -.015 18 179 928 0 181 176 182 177 ?1 29 180 1031 0
 182 183 177 .015 .05 .01 18 182 932 0 184 179 185 180 ?1 29 183 1032 0 185 186
 180 -.015 .05 .01 18 185 931 0 187 182 188 183 ?1 29 186 1033 0 188 0 183 -.015
 .05 -.01 18 188 930 0 189 185 0 186 ?1 17 189 0 190 191 158 188 192 193 0 194 +
15 255 190 968 0 161 195 0 17 191 0 190 161 189 185 196 197 0 198 +17 158 0 190
 189 161 152 199 200 0 192 +17 192 0 201 47 194 152 189 193 0 202 -16 193 907 0
 ?189 203 204 205 0 0 1 17 194 0 201 192 169 188 206 207 0 196 +15 201 964 0 192
 208 0 17 169 0 201 194 47 167 209 204 0 210 +17 206 0 211 212 196 167 194 207 0
 0 -16 207 903 0 ?194 197 213 214 0 0 1 17 196 0 211 206 198 188 191 197 0 0 -15
 211 959 0 206 215 216 17 198 0 211 196 212 185 217 218 0 0 -16 197 908 0 ?191 2
18 207 219 0 0 1 16 218 913 0 ?217 204 197 220 0 0 1 30 255 219 1008 0 197 214 2
20 0 +-.015 .05 .01 0 0 1 30 214 1009 0 207 221 219 0 +-.015 .05 -.01 -1 0 0 30
 220 1007 0 218 219 222 0 +-.015 .05 .01 1 0 0 30 222 1006 0 223 220 224 0 +.015
 -1000000000001e-18 .01 0 1 0 16 223 917 0 ?184 225 203 222 0 0 1 30 224 1005 0
 203 222 205 0 +-.015 -1000000000001e-18 .01 0 1 0 16 203 912 0 ?187 223 193 224
 0 0 1 30 205 1004 0 193 224 226 0 +-.015 -1000000000001e-18 -.01 0 1 0 30 226 1
003 0 204 205 227 0 +.015 -1000000000001e-18 -.01 0 1 0 16 204 902 0 ?169 193 21
8 226 0 0 1 30 227 1002 0 225 226 228 0 +.02 .05 .015 0 0 -1 16 225 889 0 ?229 2
30 223 227 0 0 1 30 228 1001 0 230 227 231 0 +-.02 .05 -.015 -1 0 0 16 230 892 0
 ?232 233 225 228 0 0 1 30 231 1000 0 233 228 234 0 +-.02 .05 .015 0 0 1 16 233
 895 0 ?235 236 230 231 0 0 1 30 234 999 0 236 231 237 0 +-.02 .05 .015 1 0 0 16
 236 898 0 ?238 239 233 234 0 0 1 30 237 998 0 240 234 241 0 +.02 -1000000000001
e-18 .015 0 1 0 16 240 887 0 ?172 242 243 237 0 0 1 30 241 997 0 243 237 244 0 +
-.02 -1000000000001e-18 .015 0 1 0 16 243 886 0 ?175 240 245 241 0 0 1 30 244 99
6 0 245 241 246 0 +-.02 -1000000000001e-18 -.015 0 1 0 16 245 885 0 ?178 243 239
 244 0 0 1 30 246 995 0 239 244 247 0 +.02 -1000000000001e-18 -.015 0 1 0 16 239
 888 0 ?181 245 236 246 0 0 1 31 255 247 994 0 242 246 248 0 +0 0 -.01 0 0 -1 -1
 0 0 .04 16 242 901 0 ?47 37 240 247 0 0 1 30 248 756 0 249 247 250 0 +.055 .02
 -.015 0 -1 0 16 249 658 0 ?251 252 253 248 0 0 1 30 250 755 0 252 248 254 0 +.0
35 .02 -.015 0 -1 0 16 252 660 0 ?255 256 249 250 0 0 1 30 254 754 0 256 250 257
 0 +.035 .02 .015 0 -1 0 16 256 662 0 ?50 258 252 254 0 0 1 30 257 753 0 258 254
 259 0 +.055 .02 .015 0 -1 0 16 258 657 0 ?260 261 256 257 0 0 1 30 259 752 0 26
2 257 263 0 +.035 0 .015 1 0 0 16 262 661 0 ?156 264 265 259 0 0 1 30 263 750 0
 264 259 266 0 +.055 0 -.015 -1 0 0 16 264 659 0 ?131 267 262 263 0 0 1 31 266 7
49 0 267 263 268 0 +.055 0 673555739531044e-32 0 1 0 0 0 -1 .015 16 267 656 0 ?2
69 270 264 266 0 0 1 30 268 748 0 261 266 271 0 +.035 .02 .015 1 0 0 16 261 653
 0 ?151 272 258 268 0 0 1 30 271 747 0 272 268 273 0 +.035 .02 -.015 0 0 1 16 27
2 652 0 ?148 274 261 271 0 0 1 30 273 746 0 274 271 275 0 +.055 .02 -.015 -1 0 0
 16 274 651 0 ?145 265 272 273 0 0 1 31 275 745 0 265 273 276 0 +.055 .02 673555
739531044e-32 0 1 0 0 0 -1 .015 16 265 650 0 ?277 262 274 275 0 0 1 31 276 744 0
 278 275 279 0 +.055 0 673555739531044e-32 0 1 0 0 0 -1 .007 16 278 655 0 ?280 2
81 270 276 0 0 1 31 279 743 0 270 276 282 0 +.055 .02 673555739531044e-32 0 1 0
 0 0 -1 .007 16 270 663 0 ?283 278 267 279 0 0 1 30 282 741 0 281 279 284 0 -.03
5 .0193649167310371 -.025 0 0 1 16 281 645 0 ?285 286 278 282 0 0 1 31 284 740 0
 286 282 287 0 -0 0 .015 0 0 -1 -1 0 0 .04 16 286 642 0 ?288 289 281 284 0 0 1 3
1 287 739 0 289 284 290 0 -0 0 -.015 0 0 1 1 0 0 .04 16 289 639 0 ?291 292 286 2
87 0 0 1 31 290 555 0 292 287 293 0 +0 0 .025 0 0 1 1 0 0 .03 16 292 374 0 ?294
 295 289 290 0 0 1 30 293 554 0 295 290 296 0 +0 .005 .025 -1 0 0 16 295 401 0 ?
297 298 292 293 0 0 1 30 296 553 0 298 293 299 0 +.035 0 .025 0 1 0 16 298 397 0
 ?300 301 295 296 0 0 1 30 299 552 0 301 296 302 0 +0 0 .025 -1 0 0 16 301 393 0
 ?303 304 298 299 0 0 1 31 302 551 0 304 299 305 0 +0 0 .025 0 0 1 1 0 0 .04 16
 304 417 0 ?306 307 301 302 0 0 1 30 305 550 0 307 302 308 0 +0 0 .025 1 0 0 16
 307 420 0 ?309 310 304 305 0 0 1 30 308 549 0 310 305 311 0 +-.035 0 .025 0 1 0
 16 310 423 0 ?312 313 307 308 0 0 1 30 311 548 0 313 308 314 0 +0 .005 .025 1 0
 0 16 313 426 0 ?315 316 310 311 0 0 1 31 314 547 0 316 311 317 0 +0 0 -.025 0 0
 1 1 0 0 .03 16 316 404 0 ?83 318 313 314 0 0 1 30 317 546 0 318 314 319 0 +0 .0
05 -.025 -1 0 0 16 318 414 0 ?104 320 316 317 0 0 1 30 319 545 0 320 317 321 0 +
.035 0 -.025 0 1 0 16 320 411 0 ?101 322 318 319 0 0 1 30 321 544 0 322 319 323
 0 +0 0 -.025 -1 0 0 16 322 408 0 ?98 324 320 321 0 0 1 31 323 543 0 324 321 325
 0 +0 0 -.025 0 0 1 1 0 0 .04 16 324 369 0 ?326 327 322 323 0 0 1 30 325 542 0 3
27 323 328 0 +0 0 -.025 1 0 0 16 327 364 0 ?329 330 324 325 0 0 1 30 328 541 0 3
30 325 331 0 +-.035 0 -.025 0 1 0 16 330 359 0 ?332 333 327 328 0 0 1 30 331 540
 0 333 328 334 0 +0 .005 -.025 1 0 0 16 333 379 0 ?335 336 330 331 0 0 1 30 334
 539 0 337 331 338 0 +-.0295803989154981 .005 -.025 0 0 1 16 337 378 0 ?107 339
 340 334 0 0 1 30 338 538 0 340 334 341 0 +-.035 .005 -.025 0 0 1 16 340 358 0 ?
110 337 342 338 0 0 1 30 341 536 0 342 338 343 0 +-.04 0 -.025 0 0 1 16 342 372
 0 ?53 340 344 341 344 344 1 30 343 535 0 345 341 346 0 +.04 0 -.025 0 0 1 16 34
5 392 0 ?347 344 348 343 348 348 1 30 346 534 0 349 343 350 0 +.035 0 -.025 0 0
 1 16 349 396 0 ?122 348 351 346 0 0 1 30 350 533 0 351 346 352 0 +.035 .005 -.0
25 0 0 1 16 351 400 0 ?125 349 336 350 0 0 1 30 352 532 0 336 350 353 0 +.029580
3989154981 .005 -.025 0 0 1 16 336 373 0 ?128 351 333 352 0 0 1 30 353 531 0 339
 352 354 0 --.035 .0193649167310371 -.025 0 0 1 16 339 390 0 ?355 356 337 353 0
 0 1 31 354 530 0 356 353 357 0 +0 0 .015 0 0 -1 -1 0 0 .04 16 356 389 0 ?358 35
9 339 354 0 0 1 31 357 148 0 360 354 361 0 +-.055 .02 673555739531044e-32 0 1 0
 0 0 1 .007 16 360 128 0 ?362 363 359 357 0 0 1 31 361 147 0 359 357 364 0 +-.05
5 0 673555739531044e-32 0 1 0 0 0 1 .007 16 359 125 0 ?365 360 356 361 0 0 1 31
 364 7 0 366 361 367 0 +-.055 .02 673555739531044e-32 0 1 0 0 0 1 .015 16 366 5
 0 ?368 369 370 364 0 0 1 30 367 11 0 369 364 371 0 +-.035 .02 .015 1 0 0 16 369
 9 0 ?70 372 366 367 0 0 1 30 371 15 0 372 367 373 0 +-.035 .02 -.015 0 0 -1 16
 372 13 0 ?67 374 369 371 0 0 1 30 373 19 0 374 371 375 0 +-.055 .02 -.015 -1 0
 0 16 374 17 0 ?64 376 372 373 0 0 1 31 375 74 0 363 373 377 0 +-.055 0 67355573
9531044e-32 0 1 0 0 0 1 .015 16 363 62 0 ?378 379 360 375 0 0 1 30 377 73 0 379
 375 380 0 +-.035 0 .015 1 0 0 16 379 58 0 ?381 382 363 377 0 0 1 30 380 72 0 38
2 377 383 0 +-.035 0 -.015 0 0 -1 16 382 54 0 ?89 370 379 380 0 0 1 30 383 71 0
 370 380 384 0 +-.055 0 -.015 -1 0 0 16 370 311 0 ?57 366 382 383 0 0 1 30 384 9
5 0 376 383 385 0 +-.055 .02 -.015 0 -1 0 16 376 79 0 ?386 387 374 384 0 0 1 30
 385 96 0 387 384 388 0 +-.035 .02 -.015 0 -1 0 16 387 80 0 ?389 390 376 385 0 0
 1 30 388 97 0 390 385 391 0 +-.035 .02 .015 0 -1 0 16 390 81 0 ?392 30 387 388
 0 0 1 30 391 98 0 30 388 21 0 +-.055 .02 .015 0 -1 0 16 30 82 0 ?393 10 390 391
 0 0 1 31 21 321 0 10 391 7 0 +0 0 -.015 0 0 1 1 0 0 .04 17 393 0 394 381 72 59
 395 30 0 378 +15 394 87 0 381 396 0 17 381 0 394 358 393 78 61 379 0 0 +17 72 0
 394 393 397 58 70 369 0 368 -17 395 0 398 399 378 58 393 30 0 0 -17 378 0 398 3
95 386 59 400 363 0 0 +15 398 89 0 378 18 0 17 386 0 398 378 399 55 401 376 0 40
0 +17 400 0 402 403 61 55 378 363 0 0 -15 402 49 0 403 404 405 17 403 0 402 92 4
00 51 57 370 0 0 -17 61 0 402 400 406 59 381 379 0 393 -17 406 0 402 61 407 78 1
16 344 0 381 -17 407 0 402 406 113 114 309 307 0 0 -17 116 0 408 409 80 114 406
 344 0 306 +16 344 368 0 ?116 342 345 341 342 342 1 15 408 472 0 285 16 0 17 409
 0 408 410 116 117 306 304 0 411 -17 80 0 408 116 74 78 358 356 0 406 -17 306 0
 412 309 411 114 409 304 0 407 +15 412 513 0 413 414 0 17 309 0 412 312 306 111
 407 307 0 415 +17 411 0 412 306 416 117 303 301 0 0 -17 416 0 412 411 417 120 3
00 298 0 303 -17 303 0 418 419 119 120 411 301 0 0 +15 418 497 0 303 420 421 17
 419 0 418 422 303 96 122 349 0 423 -17 119 0 418 303 424 117 410 348 0 409 +17
 424 0 418 119 425 132 156 262 0 410 -17 410 0 408 288 409 132 119 348 0 0 -16 3
48 613 0 ?119 345 349 343 345 345 1 17 288 0 408 285 410 48 134 286 0 0 +17 285
 0 408 291 288 135 426 281 0 0 +17 134 0 427 156 50 132 288 286 0 424 -15 427 72
3 0 134 428 0 17 156 0 427 429 134 142 424 262 0 260 +17 50 0 427 134 430 48 431
 256 0 426 +17 430 0 427 50 429 146 151 261 0 0 -17 431 0 432 433 426 146 50 256
 0 430 -17 426 0 432 431 255 48 285 281 0 288 -15 432 719 0 426 434 0 17 255 0 4
32 426 433 135 435 252 0 285 +17 433 0 432 255 431 143 148 272 0 0 -17 435 0 436
 141 137 143 255 252 0 433 -15 436 715 0 137 437 0 17 141 0 436 251 435 139 145
 274 0 277 -17 137 0 436 435 131 135 291 289 0 255 -17 131 0 436 137 251 129 154
 264 0 291 +17 291 0 408 95 285 129 137 289 0 347 +17 95 0 408 326 291 93 347 34
5 0 422 -17 347 0 418 154 422 129 95 345 0 0 +17 154 0 418 425 347 138 131 264 0
 251 -17 422 0 418 347 419 93 98 322 0 438 -17 98 0 439 101 438 96 422 322 0 419
 +17 438 0 439 98 440 93 326 324 0 0 -15 439 509 0 83 441 0 17 440 0 439 438 442
 90 329 327 0 326 -17 326 0 408 53 95 90 438 324 0 0 +17 53 0 408 77 326 51 92 3
42 0 29 +17 77 0 408 74 53 75 29 10 0 355 -17 92 0 402 329 403 90 53 342 0 440 -
17 29 0 443 57 389 51 77 10 0 403 +15 443 83 0 389 444 0 17 57 0 443 401 29 55 4
03 370 0 386 +17 389 0 443 29 445 75 446 387 0 0 +17 445 0 443 389 401 65 64 374
 0 0 -17 446 0 447 448 355 65 389 387 0 445 -15 447 85 0 392 449 0 17 448 0 447
 392 446 68 67 372 0 0 -17 355 0 447 446 392 75 74 339 0 389 +17 392 0 447 355 4
48 62 397 390 0 0 +17 74 0 408 80 77 62 355 339 0 358 -17 358 0 394 397 381 62 8
0 356 0 392 +17 397 0 394 72 358 68 392 390 0 448 -17 67 0 450 64 70 65 448 372
 0 446 +15 450 4 0 368 451 452 17 64 0 450 368 67 54 445 374 0 401 +17 70 0 450
 67 368 68 72 369 0 397 +17 368 0 450 70 64 58 399 366 0 395 +17 399 0 398 386 3
95 54 368 366 0 0 -17 401 0 443 445 57 54 386 376 0 399 -14 255 451 122 453 ?404
 454 450 5 455 +0 0 404 454 28 15 452 119 0 456 451 0 17 456 0 452 456 456 0 362
 360 0 0 -17 362 0 457 362 362 0 456 360 0 0 +15 457 134 0 362 458 459 14 458 13
1 460 ?461 444 457 5 462 +0 0 461 444 28 15 459 135 0 463 458 0 17 463 0 459 463
 463 0 365 359 0 0 -17 365 0 405 365 365 0 463 359 0 0 +15 405 114 0 365 404 0 1
4 404 116 464 ?18 451 402 5 465 -0 0 18 451 28 81 1 464 1590 466 404 467 0 460 4
68 469 14 18 90 468 ?396 404 398 5 6 -0 0 396 404 28 50 255 465 70 0 404 455 470
 0 +-.055 0 673555739531044e-32 0 1 0 0 0 1 13 28 34 0 0 0 0 0 0 9 16 14 16 635
 471 ?454 0 33 5 22 +472 472 454 0 28 81 1 471 1594 466 16 473 0 468 474 475 14
 454 333 474 ?451 16 476 5 477 -449 449 451 16 28 15 33 879 0 34 16 408 51 22 52
0 0 16 478 479 480 +0 0 -.025 0 0 1 .04 1 0 0 14 472 860 481 ?482 483 484 5 22 +
16 16 482 483 28 81 1 481 1598 466 472 485 0 474 486 487 14 482 1100 486 ?0 472
 488 5 23 -0 0 0 472 28 14 483 973 489 ?472 490 491 5 492 -0 0 472 490 28 15 484
 1079 0 493 472 494 17 493 0 484 493 493 0 495 20 0 0 -15 494 843 0 496 472 0 17
 496 0 494 202 497 43 498 499 0 0 -17 202 0 494 199 496 152 47 242 0 0 -17 497 0
 494 496 199 162 500 501 0 0 -17 498 0 491 184 209 162 496 499 0 497 +16 499 916
 0 ?498 501 502 503 0 0 1 16 501 911 0 ?500 200 499 504 0 0 1 16 502 921 0 ?40 4
99 42 505 0 0 1 30 503 1015 0 499 504 506 0 +.015 .0370809924354783 -.025 0 0 1
 31 504 1016 0 501 507 503 0 +0 0 .01 0 0 1 1 0 0 .04 31 506 1014 0 253 503 508
 0 +0 0 -.015 0 0 -1 -1 0 0 .04 16 253 924 0 ?34 249 200 506 0 0 1 30 508 1013 0
 37 506 509 0 --.02 .03464101615137755 -.025 0 0 1 16 37 923 0 ?31 42 242 508 0
 0 1 31 509 1012 0 42 508 505 0 +0 0 .015 0 0 1 1 0 0 .04 16 42 922 0 ?35 502 37
 509 0 0 1 30 505 1011 0 502 509 221 0 +.02 .03464101615137755 -.025 0 0 1 30 22
1 1010 0 213 505 214 0 +.015 .05 .01 0 0 -1 16 213 918 0 ?210 207 510 221 0 0 1
 17 210 0 491 209 184 167 212 213 0 206 +16 510 1092 0 ?511 213 20 512 0 0 1 17
 511 0 513 511 511 0 514 510 0 0 +16 20 1093 0 ?495 510 0 7 0 0 1 38 512 1126 0
 510 0 507 0 +515 23 516 517 517 518 30 507 1017 0 200 512 504 0 --.015 .0370809
924354783 -.025 0 0 1 51 515 516 0 461 519 462 520 +0 0 -.025 0 0 1 .03 1 0 0 51
 23 1123 0 482 0 521 522 +0 0 0 0 1 0 .0075 0 0 1 40 255 20 516 0 1 20 .00044127
68840913215 .347544909381216 ??0 .03 .0075 .002439614092401945 .0299006401784335
5 .00709212824758223 .00460345901268384 .0296446987692326 .00592099359217184 .00
62938415666208 .0293323636677012 .004078916318616535 .0072956747425575 .02909936
648882255 .00173871505739399 .00746139174620175 .02905731634562475 -.00076002184
8180918 .00682282076417305 .02921385145474605 -.00311434051124297 .0054529908649
8317 .02950025238241885 -.00514926117286841 .00343792173962438 .0298023605459738
5 -.00666563531197275 .001014457985446552 .02998284301055795 -.00743107495560122
 -.001466851333116754 .029964117660404 -.00735515786142851 -.00374867403572962 .
0297648692752689 -.00649595589377319 -.0056566525886001 .02946187844472725 -.004
92466054585327 -.00697416244193042 .0291780920937879 -.002758814642843385 -.0074
9471788294939 .0290487384210571 -.0002814317945767265 -.00718236987588204 .02912
753959684925 .00215952841287681 -.00611138791881421 .02937091993291615 .00434752
0868928835 -.004348845433504675 .02968311882864545 .00611044543347582 -.00205536
193817453 .02992950863784945 .00721286956093783 -646023099712617e-33 .03 .0075 4
1 3 CI8 term_use0 0 1 cCZ1 517 H?-646023099712617e-33 .03 .0075 204 2 17 INTERSE
CTION_DATA17 Intersection data7 uv_type0 0 1 u6 values0 1 1 fT80 518 4 1.5707963
26794895 .0325 0 .03 1.48938596030452 .03209212824758225 .3313098027971095 .0299
0064017843355 1.416739025383588 .03092099359217185 .660858120938581 .02964469876
92326 1.35943132530059 .02907891631861655 .99577163801866 .0293323636677012 1.32
5143960434936 .026738715057394 1.336839174927646 .02909936648882255 1.3194449918
19436 .0242399781518191 1.67230681719309 .02905731634562475 1.34136133383688 .02
188565948875705 1.999008871276855 .02921385145474605 1.388013887559094 .01985073
88271316 2.32755466510762 .02950025238241885 1.455946615260168 .0183343646880272
5 2.665410322978435 .02980236054597385 1.536974612825385 .0175689250443988 3.005
915709693185 .02998284301055795 1.619710874658925 .0176448421385715 3.3384416718
45955 .029964117660404 1.69607960987581 .0185040441062268 3.66498729566166 .0297
648692752689 1.760486959842935 .02007533945414675 3.996058588506395 .02946187844
472725 1.80541495741522 .0222411853571566 4.335701788018055 .0291780920937879 1.
823294741303715 .0247185682054233 4.67485592940652 .0290487384210571 1.812556859
24922 .0271595284128768 5.00446101228073 .02912753959684925 1.775945217396795 .0
2934752086892885 5.33071195487834 .02937091993291615 1.71627040278738 .031110445
43347585 5.66464557885982 .02968311882864545 1.639362103095335 .0322128695609378
5 6.00558537310267 .02992950863784945 1.570796326794895 .0325 0 .03 50 521 992 0
 490 23 523 0 +-.015 -1000000000001e-18 .01 0 0 1 1 0 0 141 255 522 7 524 524 23
 141 524 512 522 522 23 14 490 969 525 ?483 195 526 5 521 -0 0 483 195 28 50 523
 991 0 195 521 527 0 +-.015 -1000000000001e-18 .01 -1 0 0 0 0 1 14 195 965 528 ?
490 208 190 5 523 -0 0 490 208 28 50 527 990 0 208 523 492 0 +-.015 -10000000000
01e-18 -.01 0 0 -1 -1 0 0 14 208 961 529 ?195 215 201 5 527 -0 0 195 215 28 50 4
92 989 0 483 527 530 0 +.015 -1000000000001e-18 .01 1 0 0 0 0 -1 50 530 988 0 21
5 492 531 0 +0 .05 0 0 -1 0 0 0 -1 14 215 957 532 ?208 533 211 5 530 -0 0 208 53
3 28 50 531 987 0 534 530 535 0 +-.02 -1000000000001e-18 .015 0 0 1 1 0 0 14 534
 949 536 ?533 537 538 5 531 +0 0 533 537 28 50 535 986 0 537 531 539 0 +-.02 -10
00000000001e-18 .015 -1 0 0 0 0 1 14 537 945 540 ?534 541 542 5 535 +0 0 534 541
 28 50 539 985 0 541 535 543 0 +-.02 -1000000000001e-18 -.015 0 0 -1 -1 0 0 14 5
41 941 544 ?537 545 546 5 539 +0 0 537 545 28 50 543 984 0 533 539 547 0 +.02 -1
000000000001e-18 .015 1 0 0 0 0 -1 14 533 953 548 ?215 534 549 5 543 +0 0 215 53
4 28 51 547 737 0 550 543 551 0 -.055 .02 673555739531044e-32 0 -1 0 .015 0 0 -1
 14 550 708 552 ?437 553 554 5 547 -0 0 437 553 28 50 551 736 0 437 547 555 0 +.
055 .02 -.015 0 0 1 1 0 0 14 437 712 556 ?434 550 436 5 551 -0 0 434 550 28 50 5
55 735 0 434 551 557 0 +.035 .02 -.015 1 0 0 0 0 -1 14 434 716 558 ?428 437 432
 5 555 -0 0 428 437 28 50 557 734 0 428 555 559 0 +.035 .02 .015 0 0 -1 -1 0 0 1
4 428 720 560 ?545 434 427 5 557 -0 0 545 434 28 50 559 732 0 553 557 561 0 +.05
5 .02 673555739531044e-32 0 -1 0 0 0 -1 14 553 698 562 ?550 414 563 5 559 -0 0 5
50 414 28 51 561 731 0 545 559 564 0 -.055 .02 673555739531044e-32 0 -1 0 .007 0
 0 -1 14 545 724 565 ?541 428 566 5 561 +0 0 541 428 28 50 564 525 0 414 561 567
 0 +0 0 .025 0 0 1 1 0 0 14 414 510 568 ?553 441 412 5 564 +0 0 553 441 28 50 56
7 524 0 441 564 478 0 +0 0 -.025 0 0 1 1 0 0 14 441 506 569 ?414 570 439 5 567 -
0 0 414 570 28 50 478 523 0 571 567 22 0 +0 .005 -.025 0 -1 0 0 0 -1 14 571 478
 572 ?420 461 573 5 478 +0 0 420 461 28 81 1 572 1636 466 571 574 0 569 575 576
 14 420 494 575 ?577 571 418 5 479 -0 0 577 571 28 14 461 473 578 ?571 458 513 5
 515 -0 0 571 458 28 15 573 481 0 107 571 0 17 107 0 573 579 335 105 580 337 0 3
15 +17 579 0 573 86 107 108 315 313 0 0 -17 335 0 573 107 86 81 581 333 0 0 +17
 580 0 582 583 294 81 107 337 0 335 -17 315 0 412 413 312 105 579 313 0 294 +17
 413 0 412 417 315 126 294 292 0 297 -17 312 0 412 315 309 108 415 310 0 579 +17
 294 0 582 580 128 105 413 292 0 0 +15 582 477 0 128 461 0 17 128 0 582 294 583
 126 584 336 0 413 +17 583 0 582 128 580 102 83 316 0 0 -17 584 0 585 586 297 10
2 128 336 0 583 -15 585 505 0 125 570 0 17 586 0 585 125 584 99 104 318 0 0 -17
 297 0 585 584 125 126 417 295 0 0 +17 125 0 585 297 586 123 587 351 0 417 +17 4
17 0 412 416 413 123 297 295 0 300 -17 300 0 588 587 122 123 416 298 0 0 +15 588
 501 0 300 577 0 17 587 0 588 423 300 99 125 351 0 586 -17 122 0 588 300 423 120
 419 349 0 416 +17 423 0 588 122 587 96 101 320 0 0 -17 101 0 439 104 98 99 423
 320 0 587 +17 104 0 439 83 101 102 586 318 0 584 +17 83 0 439 581 104 81 583 31
6 0 580 +17 581 0 439 442 83 84 335 333 0 0 -17 442 0 439 440 581 87 332 330 0 3
29 -17 332 0 476 110 89 84 442 330 0 581 +17 329 0 402 113 92 87 440 327 0 0 +17
 113 0 402 407 329 111 89 382 0 309 -17 89 0 476 332 415 87 113 382 0 442 +15 47
6 332 0 89 454 0 17 415 0 476 89 110 111 312 310 0 0 -17 110 0 476 415 332 108 8
6 340 0 312 +17 86 0 573 335 579 84 110 340 0 332 -14 577 498 589 ?570 420 588 5
 590 -0 0 570 420 28 81 1 589 1642 466 577 591 0 578 592 593 14 570 502 592 ?441
 577 585 5 519 -0 0 441 577 28 50 590 518 0 577 479 519 0 +.035 0 -.025 1 0 0 0
 0 -1 50 479 519 0 420 22 590 0 +0 0 -.025 0 1 0 0 0 1 50 519 517 0 570 590 515
 0 +0 .005 -.025 0 1 0 0 0 1 81 1 592 1644 466 570 594 0 589 595 596 80 7 CCCCCD
I12 legal_owners0 16 1 lCZ1 466 597 598 9000 1 1 1 1 1 1 1 1 0 FFFFTFTFFFFFFFFF1
 81 3 594 1643 599 570 600 592 591 601 602 0 0 81 1 595 1646 466 444 601 0 592 6
03 604 82 255 1 596 -1770389375 14 444 84 595 ?458 449 443 5 470 -0 0 458 449 28
 81 3 601 1645 599 444 605 595 594 606 607 0 0 81 1 603 1648 466 449 606 0 595 6
08 609 82 1 604 237699201 14 449 86 603 ?444 396 447 5 477 -454 454 444 396 28 8
1 3 606 1647 599 449 610 603 601 611 612 0 0 81 1 608 1650 466 396 611 0 603 0 6
13 82 1 609 237961345 14 396 88 608 ?449 18 394 5 19 -0 0 449 18 28 81 3 611 164
9 599 396 614 608 606 0 615 0 0 82 1 613 238223489 80 3 599 616 617 9000 0 0 0 0
 3 5 0 0 0 FFFFTFFFFFFFFFFF1 1 1 81 1 614 1452 618 396 0 611 619 610 620 82 6 61
5 0 -1996936342 31107186 0 0 0 80 1 618 0 621 8001 0 0 0 0 3 5 0 0 0 FFFFTFTFFFF
FFFFF2 81 1 619 1451 618 18 0 622 623 614 624 81 1 610 1453 618 449 0 606 614 60
5 625 83 255 3 620 .792156862745098 .819607843137255 .933333333333333 81 1 605 1
454 618 444 0 601 610 626 627 83 3 625 .792156862745098 .819607843137255 .933333
333333333 81 1 626 1455 618 458 0 628 605 629 630 83 3 627 .792156862745098 .819
607843137255 .933333333333333 81 3 628 1587 599 458 626 460 631 467 632 0 0 81 1
 629 1456 618 461 0 633 626 634 635 83 3 630 .792156862745098 .819607843137255 .
933333333333333 81 3 633 1639 599 461 629 578 636 591 637 0 0 81 1 634 1457 618
 571 0 574 629 638 639 83 3 635 .792156862745098 .819607843137255 .9333333333333
33 81 3 574 1635 599 571 634 572 640 636 641 0 0 81 1 638 1458 618 420 0 636 634
 642 643 83 3 639 .792156862745098 .819607843137255 .933333333333333 81 3 636 16
37 599 420 638 575 574 633 644 0 0 81 1 642 1459 618 577 0 591 638 600 645 83 3
 643 .792156862745098 .819607843137255 .933333333333333 81 3 591 1641 599 577 64
2 589 633 594 646 0 0 81 1 600 1460 618 570 0 594 642 647 648 83 3 645 .79215686
2745098 .819607843137255 .933333333333333 81 1 647 1461 618 441 0 640 600 649 65
0 83 3 648 .792156862745098 .819607843137255 .933333333333333 81 3 640 1633 599
 441 647 569 651 574 652 0 0 81 1 649 1462 618 414 0 651 647 653 654 83 3 650 .7
92156862745098 .819607843137255 .933333333333333 81 3 651 1631 599 414 649 568 6
55 640 656 0 0 81 1 653 1463 618 553 0 657 649 658 659 83 3 654 .792156862745098
 .819607843137255 .933333333333333 81 3 657 1627 599 553 653 562 660 655 661 0 0
 81 1 658 1464 618 550 0 662 653 663 664 83 3 659 .792156862745098 .819607843137
255 .933333333333333 81 3 662 1619 599 550 658 552 665 666 667 0 0 81 1 663 1465
 618 437 0 666 658 668 669 83 3 664 .792156862745098 .819607843137255 .933333333
333333 81 3 666 1621 599 437 663 556 662 670 671 0 0 81 1 668 1466 618 434 0 670
 663 672 673 83 3 669 .792156862745098 .819607843137255 .933333333333333 81 3 67
0 1623 599 434 668 558 666 660 674 0 0 81 1 672 1467 618 428 0 660 668 675 676 8
3 3 673 .792156862745098 .819607843137255 .933333333333333 81 3 660 1625 599 428
 672 560 670 657 677 0 0 81 1 675 1468 618 545 0 655 672 678 679 83 3 676 .79215
6862745098 .819607843137255 .933333333333333 81 3 655 1629 599 545 675 565 657 6
51 680 0 0 81 1 678 1469 618 541 0 681 675 682 683 83 3 679 .792156862745098 .81
9607843137255 .933333333333333 81 3 681 1615 599 541 678 544 684 665 685 0 0 81
 1 682 1470 618 537 0 684 678 686 687 83 3 683 .792156862745098 .819607843137255
 .933333333333333 81 3 684 1613 599 537 682 540 688 681 689 0 0 81 1 686 1471 61
8 534 0 688 682 690 691 83 3 687 .792156862745098 .819607843137255 .933333333333
333 81 3 688 1611 599 534 686 536 692 684 693 0 0 81 1 690 1472 618 533 0 665 68
6 694 695 83 3 691 .792156862745098 .819607843137255 .933333333333333 81 3 665 1
617 599 533 690 548 681 662 696 0 0 81 1 694 1473 618 215 0 692 690 697 698 83 3
 695 .792156862745098 .819607843137255 .933333333333333 81 3 692 1609 599 215 69
4 532 699 688 700 0 0 81 1 697 1474 618 208 0 699 694 701 702 83 3 698 .79215686
2745098 .819607843137255 .933333333333333 81 3 699 1607 599 208 697 529 703 692
 704 0 0 81 1 701 1475 618 195 0 703 697 705 706 83 3 702 .792156862745098 .8196
07843137255 .933333333333333 81 3 703 1605 599 195 701 528 707 699 708 0 0 81 1
 705 1476 618 490 0 707 701 709 710 83 3 706 .792156862745098 .819607843137255 .
933333333333333 81 3 707 1603 599 490 705 525 711 703 712 0 0 81 1 709 1477 618
 483 0 711 705 713 714 83 3 710 .792156862745098 .819607843137255 .9333333333333
33 81 3 711 1601 599 483 709 489 715 707 716 0 0 81 1 713 1478 618 472 0 485 709
 717 718 83 3 714 .792156862745098 .819607843137255 .933333333333333 81 3 485 15
97 599 472 713 481 719 715 720 0 0 81 1 717 1479 618 482 0 715 713 0 721 83 3 71
8 .792156862745098 .819607843137255 .933333333333333 81 3 715 1599 599 482 717 4
86 485 711 722 0 0 83 3 721 .792156862745098 .819607843137255 .933333333333333 8
1 1 486 1600 466 482 715 0 481 489 723 82 6 722 0 -132320141 31107186 0 0 0 81 1
 489 1602 466 483 711 0 486 525 724 82 1 723 -130350963 81 1 525 1604 466 490 70
7 0 489 528 725 82 1 724 -1435172726 81 1 528 1606 466 195 703 0 525 529 726 82
 1 725 -1434976118 81 1 529 1608 466 208 699 0 528 532 727 82 1 726 -1434779510
 81 1 532 1610 466 215 692 0 529 536 728 82 1 727 -1434582902 81 1 536 1612 466
 534 688 0 532 540 729 82 1 728 -1434058614 81 1 540 1614 466 537 684 0 536 544
 730 82 1 729 -1435697014 81 1 544 1616 466 541 681 0 540 548 731 82 1 730 -1435
893622 81 1 548 1618 466 533 665 0 544 552 732 82 1 731 -1435762550 81 1 552 162
0 466 550 662 0 548 556 733 82 1 732 -1435500406 81 1 556 1622 466 437 666 0 552
 558 734 82 1 733 -1749221247 81 1 558 1624 466 434 670 0 556 560 735 82 1 734 -
1749417855 81 1 560 1626 466 428 660 0 558 562 736 82 1 735 -1749286783 81 1 562
 1628 466 553 657 0 560 565 737 82 1 736 -1748631423 81 1 565 1630 466 545 655 0
 562 568 738 82 1 737 -1749024639 81 1 568 1632 466 414 651 0 565 569 739 82 1 7
38 -1748434815 81 1 569 1634 466 441 640 0 568 572 740 82 1 739 -1770127231 82 1
 740 -1770258303 81 3 719 1595 599 454 741 474 473 485 742 0 0 82 6 720 0 -13232
0141 31107186 0 0 0 81 1 741 1448 618 454 0 719 743 744 745 81 1 474 1596 466 45
4 719 0 471 481 746 81 3 473 1593 599 16 743 471 622 719 747 0 0 82 6 742 0 -199
6936342 31107186 0 0 0 81 1 743 1447 618 16 0 473 0 741 748 81 3 622 1591 599 18
 619 468 467 473 749 0 0 82 6 747 0 -475615349 31107186 0 0 0 81 1 468 1592 466
 18 622 0 464 471 750 81 3 467 1589 599 404 623 464 628 622 751 0 0 82 6 749 0 -
1085200719 31107185 0 0 0 81 1 623 1450 618 404 0 467 744 619 752 82 6 751 0 -19
96936342 31107186 0 0 0 81 1 744 1449 618 451 0 631 741 623 753 83 3 752 .792156
862745098 .819607843137255 .933333333333333 81 3 631 1585 599 451 744 453 0 628
 754 0 0 83 3 753 .792156862745098 .819607843137255 .933333333333333 81 1 453 15
86 466 451 631 0 0 460 755 82 6 754 0 -1085200719 31107185 0 0 0 81 1 460 1588 4
66 458 628 0 453 464 756 82 1 755 257163371 82 1 756 227475563 82 1 750 23848561
1 83 3 748 .792156862745098 .819607843137255 .933333333333333 82 1 746 -17572166
39 83 3 745 .792156862745098 .819607843137255 .933333333333333 82 6 716 0 -47561
5349 31107186 0 0 0 82 6 712 0 -475615349 31107186 0 0 0 82 6 708 0 -475615349 3
1107186 0 0 0 82 6 704 0 -475615349 31107186 0 0 0 82 6 700 0 -475615349 3110718
6 0 0 0 82 6 696 0 -475615349 31107186 0 0 0 82 6 693 0 -475615349 31107186 0 0
 0 82 6 689 0 -475615349 31107186 0 0 0 82 6 685 0 -475615349 31107186 0 0 0 82
 6 680 0 -1085200719 31107185 0 0 0 82 6 677 0 -1996936342 31107186 0 0 0 82 6 6
74 0 -1996936342 31107186 0 0 0 82 6 671 0 -1996936342 31107186 0 0 0 82 6 667 0
 -1085200719 31107185 0 0 0 82 6 661 0 -1085200719 31107185 0 0 0 82 6 656 0 -19
96936342 31107186 0 0 0 82 6 652 0 -1996936342 31107186 0 0 0 82 6 646 0 -199693
6342 31107186 0 0 0 81 1 575 1638 466 420 636 0 572 578 757 82 6 644 0 -19969363
42 31107186 0 0 0 81 1 578 1640 466 461 633 0 575 589 758 82 1 757 -1770651519 8
2 1 758 -1771306867 82 6 641 0 -1996936342 31107186 0 0 0 82 6 637 0 -132320141
 31107186 0 0 0 82 6 632 0 -1085200719 31107185 0 0 0 83 3 624 .792156862745098
 .819607843137255 .933333333333333 79 255 15 621 SDL/TYSA_COLOUR79 18 617 DOWNST
REAM_FACE_ID50 19 93 0 396 477 6 0 +-.035 .02 .015 0 0 -1 -1 0 0 50 477 92 0 449
 470 19 0 +-.035 .02 -.015 -1 0 0 0 0 1 50 470 91 0 444 465 477 0 +-.055 .02 -.0
15 0 0 1 1 0 0 82 6 612 0 -1996936342 31107186 0 0 0 82 6 607 0 -1996936342 3110
7186 0 0 0 82 6 602 0 -1996936342 31107186 0 0 0 79 14 598 SWEntUnchanged82 1 59
3 -1770520447 15 513 1085 0 511 461 582 82 1 576 -1771503487 15 566 727 0 283 54
5 759 17 283 0 566 283 283 0 760 270 0 0 +15 759 728 0 761 545 0 17 761 0 759 76
1 761 0 280 278 0 0 -17 280 0 421 280 280 0 761 278 0 0 +15 421 707 0 280 420 0
 17 760 0 762 760 760 0 283 270 0 0 -15 762 702 0 760 553 0 15 563 701 0 277 553
 762 17 277 0 563 145 151 139 763 265 0 764 +17 145 0 563 148 277 143 141 274 0
 435 +17 151 0 563 277 148 149 430 261 0 429 +17 763 0 554 260 764 149 277 265 0
 0 -17 764 0 554 763 269 139 251 249 0 0 -15 554 711 0 269 550 0 17 269 0 554 76
4 260 138 425 267 0 0 +17 251 0 436 131 141 138 764 249 0 269 +17 260 0 554 269
 763 142 429 258 0 425 +17 425 0 418 424 154 142 269 267 0 0 -17 429 0 427 430 1
56 149 260 258 0 763 -17 148 0 563 151 145 146 433 272 0 431 +15 549 956 0 765 5
33 0 17 765 0 549 181 766 165 40 502 0 767 -17 181 0 549 768 765 179 767 239 0 7
69 +17 766 0 549 765 768 39 172 240 0 0 -17 40 0 33 35 34 39 765 502 0 41 +17 76
7 0 546 770 769 165 181 239 0 0 -15 546 944 0 770 541 0 17 770 0 546 178 767 11
 34 253 0 0 -17 769 0 546 767 178 179 232 230 0 229 -17 178 0 546 769 770 176 38
 245 0 771 +17 232 0 216 235 229 176 769 230 0 0 +17 229 0 216 232 238 179 768 2
25 0 0 +15 216 960 0 229 215 0 17 238 0 216 229 235 170 772 236 0 0 +17 768 0 54
9 766 181 170 229 225 0 238 -17 235 0 216 238 232 173 771 233 0 772 +17 772 0 53
8 773 172 173 238 236 0 0 -15 538 952 0 41 534 0 17 773 0 538 41 772 32 175 243
 0 0 -17 172 0 538 772 41 170 766 240 0 768 +17 41 0 538 172 773 39 35 42 0 766
 -17 175 0 542 771 36 173 773 243 0 235 +15 542 948 0 36 537 0 17 771 0 542 38 1
75 176 235 233 0 232 -17 36 0 542 175 38 32 31 37 0 773 -17 38 0 542 36 771 11 1
78 245 0 770 -17 34 0 33 40 31 165 770 253 0 765 +15 526 972 0 164 490 0 17 164
 0 526 500 217 162 184 223 0 498 -17 500 0 526 187 164 159 497 501 0 199 +17 217
 0 526 164 187 182 198 218 0 212 +17 184 0 491 210 498 182 164 223 0 217 +15 491
 976 0 209 483 0 17 209 0 491 498 210 43 169 204 0 496 -17 187 0 526 217 500 185
 161 203 0 191 +17 212 0 211 198 206 182 210 213 0 0 -17 161 0 190 158 191 159 1
87 203 0 500 -17 199 0 494 497 202 159 158 200 0 0 -16 200 906 0 ?158 253 501 50
7 0 0 1 51 462 144 0 458 515 455 0 --.055 .02 673555739531044e-32 0 -1 0 .007 0
 0 -1 141 520 512 520 520 515 50 455 3 0 451 462 465 0 +-.055 .02 67355573953104
4e-32 0 1 0 0 0 1 17 495 0 488 495 495 0 493 20 0 0 +15 488 1103 0 495 482 774 1
5 774 1104 0 514 482 0 17 514 0 774 514 514 0 511 510 0 0 -17 47 0 201 169 192 4
3 202 242 0 209 +82 1 487 -1389690739 141 480 7 480 480 22 82 1 475 -1734934390
 82 1 469 256639105 19 17 100 0 1 0 9 5 0 S0 40 20 24 0 1 20 .000433020655804215
 .34290119801018 ??0 .04 .0075 .002458150028336175 .0399243972833428 .0070857249
7618916 .00463879963656992 .03973010870777675 .0058933469210423 .006322873161906
14 .03949710464044735 .00403376684730873 .00730515089874321 .0393272776879686 .0
01698461170174725 .00745652739099119 .03929885748043315 -.000806349345754114 .00
678857392829808 .03941973191207715 -.00318830111815549 .00537592633685859 .03963
70964630442 -.00522966691297545 .0033391239274409 .03986038448631915 -.006715672
07338116 .000915599178233467 .03998951960382645 -.00744390207786334 -.0015782025
03022965 .039968853834698 -.00733207179857454 -.003876333025692535 .039811732470
13905 -.00642059516508597 -.00576737476480221 .0395820336557171 -.00479451648472
738 -.00703314791215093 .0393768311376856 -.002604770708873815 -.007498961289035
61 .039290782374312 -.0001248182099911336 -.00712848489278994 .03935968372755635
 .002331244974957715 -.00598265625084446 .0395500673094779 .00452303263134722 -.
0041576944777498 .03978333289996815 .00624208111367425 -.00184234027018802 .0399
5754975381805 .00727019823174331 -746872132795537e-33 .04 .0075 41 1 25 H?-74687
2132795537e-33 .04 .0075 204 80 26 4 1.570796326794895 .0325 0 .04 1.50930382953
728 .03208572497618915 .3339245745937665 .0399243972833428 1.454564802465858 .03
08933469210423 .666840768626275 .03973010870777675 1.412058701705532 .0290337668
4730875 1.002928695866608 .03949710464044735 1.38713679642378 .02669846117017475
 1.342353080267116 .0393272776879686 1.383286262377046 .0241936506542459 1.67851
7783778865 .03929885748043315 1.400256521561342 .0218116988818445 2.009876218920
665 .03941973191207715 1.435990241214576 .01977033308702455 2.34240458241942 .03
96370964630442 1.487220969159712 .01828432792661885 2.68017659568296 .0398603844
8631915 1.547904347995745 .01755609792213665 3.019207474988575 .0399895196038264
5 1.610261633176935 .01766792820142545 3.353604372927535 .039968853834698 1.6678
56978348485 .01857940483491405 3.684753382291065 .03981173247013905 1.7154850061
7369 .0202054835152726 4.018841872802605 .0395820336557171 1.7475438443698 .0223
952292911262 4.357695692681075 .0393768311376856 1.75938627639861 .0248751817900
0885 4.69574578404675 .039290782374312 1.749965514523995 .0273312449749577 5.028
457946704 .03935968372755635 1.72092605859863 .0295230326313472 5.35973441258988
 .0395500673094779 1.674926770397315 .03124208111367425 5.69559239759419 .039783
33289996815 1.61687113376054 .0322701982317433 6.0349999020815 .0399575497538180
5 1.570796326794895 .0325 0 .04 74 4 CI16 index_map_offset0 0 1 dCCZ20 15 12 0 0
 611 608 775 776 777 778 779 780 781 13 717 2 0 0 0 0 0 0 0 0 81 5 775 356 782 1
 0 776 0 0 783 0 0 0 0 81 2 776 1042 784 1 775 777 0 0 0 785 81 2 777 1062 786 1
 776 778 0 0 0 787 81 2 778 1063 788 1 777 779 0 0 789 0 81 1 779 1137 790 1 778
 780 0 0 791 81 2 780 1172 792 1 779 781 0 0 793 0 81 2 781 1323 794 1 780 13 0
 0 0 795 81 2 13 1326 796 1 781 2 0 0 0 0 80 2 796 797 798 9000 0 0 0 0 3 5 0 0
 0 FFTFFFFFFFFFFFFF9 1 79 16 798 BODY_RECIPE_200180 2 794 799 800 9000 0 0 0 0 3
 5 0 0 0 FFTFFFFFFFFFFFFF9 1 82 1 795 1 79 24 800 BODY_IN_LIGHTWEIGHT_PERM80 2 7
92 801 802 8004 0 0 0 0 3 5 0 0 0 FFTFFFFFFFFFFFFF2 3 83 1 793 1 79 16 802 SDL/T
YSA_DENSITY80 1 790 803 804 9000 1 1 1 1 1 1 1 1 0 FFTFFFFFFFFFFFFF1 82 1 791 69
061 79 10 804 BODY_MATCH80 2 788 805 806 9000 0 0 0 0 3 5 0 0 0 FFTFTTTFFTFFFFFF
3 3 84 255 12 789 Cut-Extrude179 21 806 SWIMPLICITBODYNAME_ID80 2 786 807 808 90
00 0 0 0 0 3 5 0 0 0 FFTFFFFFFFFFFFFF9 1 82 1 787 97 79 30 808 LAST_BODY_MODIFYI
NG_FEATURE_ID80 2 784 809 810 9000 0 0 0 0 3 5 0 0 0 FFTFFFFFFFFFFFFF9 1 82 1 78
5 115 79 19 810 ENT_TIME_STAMP_200180 5 782 811 812 9000 0 0 0 0 3 6 0 0 0 FFTTT
TTTFTTFTTFF2 2 2 2 2 83 1 783 1 79 19 812 BODY_SCALING_FACTOR80 2 12 813 814 900
0 0 0 0 0 3 5 0 0 0 FFTFFFFFFFFFFFFF9 1 82 1 14 105 79 12 814 ATOM_ID_20011 0 
