**ABCDEFGHIJKLMNOPQRSTUVWXYZabcdefghijklmnopqrstuvwxyz**************************
**PARASOLID !"#$%&'()*+,-./:;<=>?@[\]^_`{|}~0123456789**************************
**PART1;
MC=AMD64;
MC_MODEL=AMD64 Family 23 Model 8 Stepping 2, AuthenticAMD;
MC_ID=unknown;
OS=Windows_NT;
OS_RELEASE=unknown;
FRU=Parasolid Version 34.1, build 225,  5-24-2022;
APPL=SOLIDWORKS 2023-2022300;
SITE=;
USER=unknown;
FORMAT=text;
GUISE=transmit;
KEY=practical_4CAD;
FILE=practical_4CAD.x_t;
DATE=Sat May 18 09:18:36 2024;
**PART2;
SCH=SCH_3401225_34101;
USFLD_SIZE=0;
**PART3;
**END_OF_HEADER*****************************************************************
T51 : TRANSMIT FILE created by modeller version 340122523 SCH_3401225_34101_1300
6231 0 12 36 CCCI7 lattice222 0 CCCI4 mesh1006 0 I8 polyline1008 0 CCCCCCCDI5 ow
ner1040 0 CCCI16 boundary_lattice222 0 CCCI13 boundary_mesh1006 0 I17 boundary_p
olyline1008 0 CCCA16 index_map_offset0 0 1 dA9 index_map82 0 A17 node_id_index_m
ap82 0 A20 schema_embedding_map82 0 A5 child12 0 A14 lowest_node_id0 0 1 dA16 me
sh_offset_data206 0 Z1 2165 2 3 0 0 0 0 0 0 0 1e3 1e-8 0 4 0 1 0 1 1 5 0 6 7 8 0
 0 9 10 11 0 0 0 0 0 0 0 81 255 2 2 2061 12 1 13 0 0 0 0 14 70 11 CI9 list_type0
 0 1 uI10 notransmit0 0 1 lCCCDCCDI12 finger_index0 0 1 dI12 finger_block1012 0
 CZ3 0 4 T1 0 0 12 20 1 15 15 13 255 5 183 0 1 0 16 0 0 17 0 52 255 6 1438 18 19
 20 0 0 -0 .04 0 0 1 0 .105 .707106781186551 .707106781186545 0 0 1 31 255 7 140
6 0 10 21 0 0 -0 .05 0 0 1 0 0 0 1 .115 29 255 8 135 0 22 23 0 .16 0 .18 19 9 CC
CCCCI5 frame230 0 CA5 owner12 0 Z9 61 0 1 17 0 24 0 V0 16 255 10 1403 0 ?25 0 26
 7 0 0 1 18 255 11 58 0 27 0 28 29 ?1 17 255 27 0 30 31 32 11 33 34 0 35 +18 28
 55 0 32 11 36 37 ?1 29 29 60 0 11 37 38 .16 .05 .18 29 37 57 0 28 39 29 -.16 .0
5 .18 29 38 142 0 40 29 41 .18 0 .16 18 40 125 0 42 43 44 38 ?1 29 41 141 0 43 3
8 45 .18 0 -.16 18 43 124 0 46 47 40 41 ?1 29 45 140 0 47 41 48 .16 0 -.18 18 47
 123 0 49 50 43 45 ?1 29 48 139 0 50 45 51 -.16 0 -.18 18 50 122 0 52 53 47 48 ?
1 29 51 138 0 53 48 54 -.18 0 -.16 18 53 121 0 55 56 50 51 ?1 29 54 137 0 56 51
 23 -.18 0 .16 18 56 120 0 57 58 53 54 ?1 29 23 136 0 58 54 8 -.16 0 .18 18 58 1
19 0 59 22 56 23 ?1 17 59 0 60 61 62 58 63 64 0 65 +18 22 118 0 66 67 58 8 ?1 17
 66 0 68 35 65 22 69 70 0 71 +18 67 37 0 72 73 22 74 ?1 17 72 0 75 76 77 67 78 7
9 0 31 -18 73 40 0 78 80 67 81 ?1 29 74 39 0 67 82 81 .18 .05 .16 29 82 922 0 83
 84 74 .13 -.18 -.36 29 81 42 0 73 74 85 .18 .05 -.16 29 85 45 0 80 81 86 .16 .0
5 -.18 18 80 43 0 87 88 73 85 ?1 29 86 48 0 88 85 89 -.16 .05 -.18 18 88 46 0 90
 91 80 86 ?1 29 89 51 0 91 86 39 -.18 .05 -.16 18 91 49 0 92 36 88 89 ?1 29 39 5
4 0 36 89 37 -.18 .05 .16 18 36 52 0 93 28 91 39 ?1 17 93 0 30 32 92 36 94 95 0
 96 +15 255 30 4 0 31 97 0 17 32 0 30 27 93 28 98 99 0 61 +17 92 0 30 93 90 91 1
00 101 0 102 +17 94 0 103 104 96 91 93 95 0 0 -16 95 25 0 ?93 99 101 105 0 0 1 1
7 96 0 103 94 57 36 62 106 0 98 -15 103 155 0 57 107 0 17 57 0 103 96 104 56 108
 109 0 62 +17 62 0 60 59 98 56 96 106 0 63 +16 106 145 0 ?62 110 111 112 0 0 1 1
7 98 0 60 62 61 36 32 99 0 0 -15 60 153 0 59 113 0 17 61 0 60 98 59 28 65 111 0
 33 -16 99 29 0 ?32 34 95 114 0 0 1 16 34 33 0 ?27 115 99 116 0 0 1 31 114 31 0
 99 105 116 0 +-.16 .05 .16 0 1 0 0 0 1 .02 30 255 105 27 0 95 117 114 0 +-.18 .
05 -.16 1734723475976805e-31 0 1 30 116 35 0 34 114 118 0 +-.16 .05 .18 1 0 0 31
 118 134 0 119 116 120 0 +.16 0 .16 0 1 0 0 0 1 .02 16 119 114 0 ?121 122 123 11
8 0 0 1 30 120 133 0 122 118 124 0 +.18 0 -.16 -260208521396521e-30 0 -1 16 122
 110 0 ?46 125 119 120 0 0 1 31 124 132 0 125 120 126 0 +.16 0 -.16 0 1 0 0 0 1
 .0200000000000005 16 125 106 0 ?49 127 122 124 0 0 1 30 126 131 0 127 124 128 0
 +-.16 0 -.18 -1 0 0 16 127 102 0 ?52 129 125 126 0 0 1 31 128 130 0 129 126 130
 0 +-.16 0 -.16 0 1 0 0 0 1 .0199999999999995 16 129 98 0 ?55 109 127 128 0 0 1
 30 130 129 0 109 128 131 0 +-.18 0 -.16 1734723475976805e-31 0 1 16 109 94 0 ?5
7 64 129 130 0 0 1 31 131 128 0 64 130 132 0 +-.16 0 .16 0 1 0 0 0 1 .02 16 64 9
0 0 ?59 70 109 131 0 0 1 30 132 127 0 70 131 133 0 +-.16 0 .18 1 0 0 16 70 86 0
 ?66 134 64 132 0 0 1 30 133 175 0 115 132 135 0 +.16 .05 .18 0 -1 0 16 115 143
 0 ?71 111 34 133 0 0 1 30 135 176 0 111 133 112 0 +-.16 .05 .18 0 -1 0 16 111 1
44 0 ?65 106 115 135 0 0 1 30 112 177 0 106 135 136 0 +-.18 .05 .16 0 -1 0 30 13
6 178 0 110 112 137 0 +-.18 .05 -.16 0 -1 0 16 110 146 0 ?104 138 106 136 0 0 1
 30 137 179 0 138 136 139 0 +-.16 .05 -.18 0 -1 0 16 138 147 0 ?140 141 110 137
 0 0 1 30 139 180 0 141 137 142 0 +.16 .05 -.18 0 -1 0 16 141 148 0 ?143 144 138
 139 0 0 1 30 142 181 0 144 139 145 0 +.18 .05 -.16 0 -1 0 16 144 149 0 ?146 147
 141 142 0 0 1 30 145 182 0 147 142 148 0 +.18 .05 .16 0 -1 0 16 147 150 0 ?76 1
49 144 145 0 0 1 31 148 1383 0 149 145 150 0 +0 -.36 -.4 0 0 -1 -1 0 0 .105 16 1
49 1380 0 ?151 152 147 148 0 0 1 31 150 1391 0 152 148 21 0 -0 -.36 -.41 0 -1224
646799147352e-31 -1 0 1 -1224646799147352e-31 .115 16 152 1388 0 ?153 26 149 150
 0 0 1 31 21 1398 0 26 150 7 0 +0 .04 0 0 1 0 0 0 1 .105 16 26 1395 0 ?154 10 15
2 21 0 0 1 17 154 0 155 154 154 0 156 26 0 0 +15 155 1396 0 154 157 158 17 156 0
 159 156 156 0 154 26 0 0 -15 159 1433 0 156 19 0 14 255 19 1431 160 ?0 161 162
 5 6 +0 0 0 161 24 81 1 160 2063 163 19 164 0 0 165 166 14 161 1417 165 ?19 167
 168 5 20 +0 0 19 167 24 15 162 1432 0 169 19 159 13 24 62 0 0 0 0 0 0 9 16 14 1
6 166 170 ?171 0 172 5 173 -0 0 171 0 24 81 1 170 2067 163 16 174 0 165 175 176
 14 171 164 175 ?177 16 75 5 178 -0 0 177 16 24 15 172 165 0 121 16 0 51 255 173
 174 0 16 178 20 0 -.16 .05 .16 0 -1 0 .02 0 0 -1 50 255 178 173 0 171 179 173 0
 +.18 .05 -.16 -1 0 260208521396521e-30 260208521396521e-30 0 1 52 20 1424 180 1
61 173 6 0 -0 -.36 -.4 0 0 -1 .105 .707106781186551 .707106781186544 -1 0 0 81 2
 180 1425 181 20 0 0 0 18 182 183 80 7 CCCCCDI12 legal_owners0 16 1 lCZ2 181 184
 185 8044 0 0 0 0 3 5 0 0 0 FFFFTFFFTTFFFFFF3 2 81 2 18 1439 181 6 0 0 180 0 186
 187 84 255 6 182 BAAAAB83 255 3 183 -1387778780781432e-32 .01000000000000012 .0
1000000000000022 84 6 186 BAAAAB83 3 187 0 .01 .01 79 255 17 185 SDL/TYSA_BLEND_
ID51 179 172 0 177 188 178 0 -.16 .05 -.16 0 -1 0 .0200000000000005 0 0 -1 14 17
7 162 189 ?190 171 191 5 179 -0 0 190 171 24 50 188 171 0 190 192 179 0 +-.16 .0
5 -.18 0 0 1 1 0 0 14 190 160 193 ?194 177 195 5 188 -0 0 194 177 24 51 192 170
 0 194 196 188 0 --.16 .05 -.16 0 -1 0 .0199999999999995 0 0 -1 14 194 158 197 ?
107 190 198 5 192 -0 0 107 190 24 50 196 169 0 107 199 192 0 +-.18 .05 -.16 1 0
 -1734723475976805e-31 -1734723475976805e-31 0 -1 14 107 156 200 ?113 194 103 5
 196 -0 0 113 194 24 51 199 168 0 113 201 196 0 --.16 .05 .16 0 -1 0 .02 0 0 -1
 14 113 154 202 ?203 107 60 5 199 -0 0 203 107 24 50 201 167 0 203 204 199 0 +-.
16 .05 .18 0 0 -1 -1 0 0 14 203 152 205 ?97 113 68 5 201 -0 0 97 113 24 50 204 1
26 0 206 207 201 0 +.16 0 .16 0 1 0 0 0 1 14 206 84 208 ?209 97 210 5 204 -0 0 2
09 97 24 50 207 3 0 97 211 204 0 +.16 .05 .16 0 1 0 0 0 1 14 97 1 212 ?206 203 2
13 5 207 +0 0 206 203 24 51 211 367 0 209 214 207 0 +-.13 .04 -.13 0 1 0 .03 0 0
 1 14 209 348 215 ?216 206 217 5 211 -0 0 216 206 24 50 214 369 0 216 218 211 0
 +-.13 .04 -.13 0 1 0 0 0 1 14 216 353 219 ?220 209 221 5 214 +0 0 220 209 24 50
 218 370 0 222 223 214 0 +-.1299999999999974 .04 .13 0 1 0 0 0 1 14 222 299 224
 ?225 226 227 5 218 +0 0 225 226 24 51 223 372 0 226 228 218 0 +-.12999999999999
74 .04 .13 0 1 0 .03 0 0 1 14 226 294 229 ?222 230 231 5 223 -0 0 222 230 24 50
 228 373 0 230 232 223 0 +.1300000000000026 .04 .1299999999999964 0 1 0 0 0 1 14
 230 317 233 ?226 234 235 5 228 +0 0 226 234 24 51 232 375 0 234 236 228 0 +.130
0000000000026 .04 .1299999999999964 0 1 0 .03 0 0 1 14 234 312 237 ?230 238 239
 5 232 -0 0 230 238 24 50 236 376 0 238 240 232 0 +.13 .04 -.1300000000000036 0
 1 0 0 0 1 14 238 335 241 ?234 220 242 5 236 +0 0 234 220 24 51 240 378 0 220 24
3 236 0 +.13 .04 -.1300000000000036 0 1 0 .03 0 0 1 14 220 330 244 ?238 216 245
 5 240 -0 0 238 216 24 51 243 559 0 225 246 240 0 +-.13 0 -.13 0 1 0 .015 0 0 1
 14 225 540 247 ?248 222 249 5 243 -0 0 248 222 24 51 246 564 0 250 251 243 0 +-
.1299999999999974 0 .13 0 1 0 .015 0 0 1 14 250 486 252 ?157 253 254 5 246 -0 0
 157 253 24 51 251 567 0 253 255 246 0 +.1300000000000026 0 .13 0 1 0 .015 0 0 1
 14 253 504 256 ?250 248 257 5 251 -0 0 250 248 24 51 255 570 0 248 258 251 0 +.
13 0 -.13 0 1 0 .015 0 0 1 14 248 522 259 ?253 225 260 5 255 -0 0 253 225 24 51
 258 645 0 157 261 255 0 +0 0 0 0 1 0 .105 0 0 1 14 157 632 262 ?263 250 155 5 2
58 -0 0 264 250 24 51 261 714 0 264 265 258 0 -0 -.36 -.26 0 0 -1 .145 -1 0 0 14
 264 696 266 ?267 268 269 5 261 -0 0 268 157 24 54 255 265 715 0 268 270 261 0 -
0 -.1 -.26 1 0 0 .26 .145 0 0 -1 14 268 692 271 ?264 263 272 5 265 -0 0 263 264
 24 51 270 716 0 263 273 265 0 -0 0 0 0 -1 -1224646799147352e-31 .145 0 12246467
99147352e-31 -1 14 263 688 274 ?268 157 275 5 270 -0 0 276 268 24 51 273 719 0 2
76 277 270 0 -0 -.36 -.26 0 0 -1 .105 -1 0 0 14 276 708 278 ?279 267 280 5 273 +
0 0 267 263 24 54 277 720 0 267 281 273 0 -0 -.1 -.26 1 0 0 .26 .105 0 0 -1 14 2
67 704 282 ?276 264 283 5 277 +0 0 279 276 24 50 281 888 0 284 285 277 0 +.13 -.
18 -.41 21350442781253e-29 1 -1224646799147352e-31 -1 21350442781253e-29 0 14 28
4 847 286 ?287 288 289 5 281 +0 0 287 288 24 51 285 889 0 290 291 281 0 --.13 -.
23 -.41 0 1224646799147352e-31 1 .05 0 -1 1224646799147352e-31 14 290 875 292 ?2
93 294 295 5 285 -0 0 293 294 24 50 291 890 0 293 296 285 0 +-.18 -.23 -.41 -1 1
06752213906265e-30 -130733757062201e-46 -106752213906265e-30 -1 0 14 293 871 297
 ?298 290 299 5 291 +0 0 298 290 24 51 296 891 0 298 300 291 0 --.13000000000000
26 -.49 -.41 0 1224646799147352e-31 1 .0499999999999986 0 -1 1224646799147352e-3
1 14 298 867 301 ?302 293 303 5 296 -0 0 302 293 24 50 300 892 0 302 304 296 0 +
.1299999999999974 -.54 -.41 0 1 -1224646799147352e-31 0 1224646799147352e-31 1 1
4 302 863 305 ?306 298 307 5 300 -0 0 306 298 24 51 304 893 0 306 308 300 0 -.12
99999999999974 -.49 -.41 0 1224646799147352e-31 1 .0500000000000013 0 -1 1224646
799147352e-31 14 306 859 309 ?310 302 311 5 304 -0 0 310 302 24 50 308 894 0 310
 312 304 0 +.18 -.23 -.41 -1 106752213906265e-30 -130733757062201e-46 -106752213
906265e-30 -1 0 14 310 855 313 ?288 306 314 5 308 -0 0 288 306 24 51 312 895 0 2
88 315 308 0 -.13 -.23 -.41 0 1224646799147352e-31 1 .05 0 -1 1224646799147352e-
31 14 288 851 316 ?284 310 317 5 312 -0 0 284 310 24 50 315 896 0 279 318 312 0
 +-.13 -.23 -.36 0 -1224646799147352e-31 -1 0 1 -1224646799147352e-31 14 279 882
 319 ?294 276 320 5 315 -0 0 294 267 24 50 318 897 0 294 321 315 0 +-.13 -.23 -.
41 0 -1224646799147352e-31 -1 0 1 -1224646799147352e-31 14 294 879 322 ?290 279
 323 5 318 +0 0 290 279 24 51 321 1098 0 287 324 318 0 +.13 -.23 -.4 0 -12246467
99147352e-31 -1 .03 0 1 -1224646799147352e-31 14 287 1079 325 ?326 284 327 5 321
 -0 0 326 284 24 50 324 1100 0 326 328 321 0 +.13 -.23 -.4 0 -1224646799147352e-
31 -1 0 1 -1224646799147352e-31 14 326 1084 329 ?330 287 331 5 324 +0 0 330 287
 24 50 328 1101 0 332 333 324 0 +.1299999999999974 -.49 -.4 0 -1224646799147352e
-31 -1 0 1 -1224646799147352e-31 14 332 1030 334 ?335 336 337 5 328 +0 0 335 336
 24 51 333 1103 0 336 338 328 0 +.1299999999999974 -.49 -.4 0 -1224646799147352e
-31 -1 .03 0 1 -1224646799147352e-31 14 336 1025 339 ?332 340 341 5 333 -0 0 332
 340 24 50 338 1104 0 340 342 333 0 +-.1300000000000026 -.49 -.4 0 -122464679914
7352e-31 -1 0 1 -1224646799147352e-31 14 340 1048 343 ?336 344 345 5 338 +0 0 33
6 344 24 51 342 1106 0 344 346 338 0 +-.1300000000000026 -.49 -.4 0 -12246467991
47352e-31 -1 .03 0 1 -1224646799147352e-31 14 344 1043 347 ?340 348 349 5 342 -0
 0 340 348 24 50 346 1107 0 348 350 342 0 +-.13 -.23 -.4 0 -1224646799147352e-31
 -1 0 1 -1224646799147352e-31 14 348 1066 351 ?344 330 352 5 346 +0 0 344 330 24
 51 350 1109 0 330 353 346 0 +-.13 -.23 -.4 0 -1224646799147352e-31 -1 .03 0 1 -
1224646799147352e-31 14 330 1061 354 ?348 326 355 5 350 -0 0 348 326 24 51 353 1
286 0 335 356 350 0 +.13 -.23 .180001 0 -1224646799147352e-31 -1 .015 0 1 -12246
46799147352e-31 14 335 1273 357 ?358 332 359 5 353 -0 0 358 332 24 51 356 1291 0
 167 360 353 0 +.1299999999999974 -.49 .180001 0 -1224646799147352e-31 -1 .015 0
 1 -1224646799147352e-31 14 167 1215 361 ?161 362 363 5 356 -0 0 161 362 24 51 3
60 1294 0 362 364 356 0 +-.1300000000000026 -.49 .180001 0 -1224646799147352e-31
 -1 .015 0 1 -1224646799147352e-31 14 362 1232 365 ?167 358 366 5 360 -0 0 167 3
58 24 51 364 1297 0 358 0 360 0 +-.13 -.23 .180001 0 -1224646799147352e-31 -1 .0
15 0 1 -1224646799147352e-31 14 358 1256 367 ?362 335 368 5 364 -0 0 362 335 24
 81 1 367 2165 163 358 369 0 365 0 370 15 368 1259 0 371 358 372 17 371 0 368 37
1 371 0 373 374 0 0 +15 372 1260 0 375 358 0 17 375 0 372 375 375 0 376 377 0 0
 +17 376 0 378 376 376 0 375 377 0 0 -16 377 1245 0 ?375 379 374 380 0 0 1 16 37
9 1262 0 ?381 382 377 383 0 0 1 16 374 1246 0 ?371 377 384 385 0 0 1 31 380 1304
 0 377 385 386 0 --.13 -.23 -.36 0 -1224646799147352e-31 -1 0 1 -122464679914735
2e-31 .015 31 385 1305 0 374 0 380 0 +-.13 -.23 -.4 0 -1224646799147352e-31 -1 0
 1 -1224646799147352e-31 .015 31 386 1303 0 387 380 388 0 --.1300000000000026 -.
49 -.36 0 -1224646799147352e-31 -1 0 1 -1224646799147352e-31 .015 16 387 1231 0
 ?389 384 390 386 0 0 1 31 388 1302 0 384 386 391 0 +-.1300000000000026 -.49 -.4
 0 -1224646799147352e-31 -1 0 1 -1224646799147352e-31 .015 16 384 1228 0 ?392 37
4 387 388 0 0 1 31 391 1301 0 393 388 394 0 -.1299999999999974 -.49 -.36 0 -1224
646799147352e-31 -1 0 1 -1224646799147352e-31 .015 16 393 1214 0 ?395 390 0 391
 0 0 1 31 394 1300 0 390 391 383 0 +.1299999999999974 -.49 -.4 0 -12246467991473
52e-31 -1 0 1 -1224646799147352e-31 .015 16 390 1211 0 ?396 387 393 394 0 0 1 31
 383 1299 0 379 394 397 0 -.13 -.23 -.36 0 -1224646799147352e-31 -1 0 1 -1224646
799147352e-31 .015 31 397 1298 0 382 383 398 0 +.13 -.23 -.4 0 -1224646799147352
e-31 -1 0 1 -1224646799147352e-31 .015 16 382 1263 0 ?399 400 379 397 0 0 1 31 3
98 1117 0 401 397 402 0 +-.13 -.23 -.41 0 -1224646799147352e-31 -1 0 1 -12246467
99147352e-31 .03 16 401 1058 0 ?403 404 405 398 0 0 1 31 402 1116 0 405 398 406
 0 +-.13 -.23 -.4 0 -1224646799147352e-31 -1 0 1 -1224646799147352e-31 .03 16 40
5 1055 0 ?407 401 408 402 0 0 1 31 406 1115 0 408 402 409 0 +-.1300000000000026
 -.49 -.41 0 -1224646799147352e-31 -1 0 1 -1224646799147352e-31 .03 16 408 1040
 0 ?410 405 411 406 0 0 1 31 409 1114 0 411 406 412 0 +-.1300000000000026 -.49 -
.4 0 -1224646799147352e-31 -1 0 1 -1224646799147352e-31 .03 16 411 1037 0 ?413 4
08 414 409 0 0 1 31 412 1113 0 414 409 415 0 +.1299999999999974 -.49 -.41 0 -122
4646799147352e-31 -1 0 1 -1224646799147352e-31 .03 16 414 1022 0 ?416 411 400 41
2 0 0 1 31 415 1112 0 400 412 417 0 +.1299999999999974 -.49 -.4 0 -1224646799147
352e-31 -1 0 1 -1224646799147352e-31 .03 16 400 1019 0 ?418 414 382 415 0 0 1 31
 417 1111 0 419 415 420 0 +.13 -.23 -.4 0 -1224646799147352e-31 -1 0 1 -12246467
99147352e-31 .03 16 419 1073 0 ?421 422 404 417 0 0 1 31 420 1110 0 404 417 423
 0 +.13 -.23 -.41 0 -1224646799147352e-31 -1 0 1 -1224646799147352e-31 .03 16 40
4 1076 0 ?424 419 401 420 0 0 1 30 423 921 0 425 420 426 0 +.13 -.18 -.41 -1 213
50442781253e-29 0 16 425 768 0 ?427 428 429 423 0 0 1 31 426 920 0 428 423 430 0
 +-.13 -.23 -.41 0 -1224646799147352e-31 -1 0 1 -1224646799147352e-31 .05 16 428
 815 0 ?431 432 425 426 0 0 1 30 430 919 0 432 426 433 0 +-.18 -.23 -.41 -106752
213906265e-30 -1 0 16 432 792 0 ?434 435 428 430 0 0 1 31 433 918 0 435 430 436
 0 +-.1300000000000026 -.49 -.41 0 -1224646799147352e-31 -1 0 1 -122464679914735
2e-31 .0499999999999986 16 435 812 0 ?437 438 432 433 0 0 1 30 436 917 0 438 433
 439 0 +.1299999999999974 -.54 -.41 -1 0 0 16 438 809 0 ?440 441 435 436 0 0 1 3
1 439 916 0 441 436 442 0 +.1299999999999974 -.49 -.41 0 -1224646799147352e-31 -
1 0 1 -1224646799147352e-31 .0500000000000013 16 441 806 0 ?443 444 438 439 0 0
 1 30 442 915 0 444 439 445 0 +.18 -.23 -.41 -106752213906265e-30 -1 0 16 444 80
3 0 ?446 447 441 442 0 0 1 31 445 914 0 447 442 448 0 +.13 -.23 -.41 0 -12246467
99147352e-31 -1 0 1 -1224646799147352e-31 .05 16 447 800 0 ?449 450 444 445 0 0
 1 30 448 913 0 422 445 451 0 +.13 -.18 -.36 -1 21350442781253e-29 0 16 422 818
 0 ?452 453 419 448 0 0 1 31 451 912 0 453 448 454 0 +-.13 -.23 -.36 0 -12246467
99147352e-31 -1 0 1 -1224646799147352e-31 .05 16 453 796 0 ?455 456 422 451 0 0
 1 30 454 911 0 456 451 457 0 +-.18 -.23 -.36 -106752213906265e-30 -1 0 16 456 8
21 0 ?458 459 453 454 0 0 1 31 457 910 0 459 454 460 0 +-.1300000000000026 -.49
 -.36 0 -1224646799147352e-31 -1 0 1 -1224646799147352e-31 .0499999999999986 16
 459 788 0 ?461 462 456 457 0 0 1 30 460 909 0 462 457 463 0 +.1299999999999974
 -.54 -.36 -1 0 0 16 462 784 0 ?464 465 459 460 0 0 1 31 463 908 0 465 460 466 0
 +.1299999999999974 -.49 -.36 0 -1224646799147352e-31 -1 0 1 -1224646799147352e-
31 .0500000000000013 16 465 780 0 ?467 468 462 463 0 0 1 30 466 907 0 468 463 46
9 0 +.18 -.23 -.36 -106752213906265e-30 -1 0 16 468 776 0 ?470 429 465 466 0 0 1
 31 469 906 0 429 466 471 0 +.13 -.23 -.36 0 -1224646799147352e-31 -1 0 1 -12246
46799147352e-31 .05 16 429 772 0 ?472 425 468 469 0 0 1 30 471 905 0 473 469 474
 0 +.13 -.18 -.41 0 1224646799147352e-31 1 16 473 775 0 ?475 476 477 471 0 0 1 3
0 474 904 0 477 471 478 0 +.18 -.23 -.41 0 1224646799147352e-31 1 16 477 779 0 ?
479 473 480 474 0 0 1 30 478 903 0 480 474 481 0 +.18 -.49 -.41 0 12246467991473
52e-31 1 16 480 783 0 ?482 477 483 478 0 0 1 30 481 902 0 483 478 484 0 +.129999
9999999974 -.54 -.41 0 1224646799147352e-31 1 16 483 787 0 ?485 480 486 481 0 0
 1 30 484 901 0 486 481 487 0 +-.1300000000000026 -.54 -.41 0 1224646799147352e-
31 1 16 486 791 0 ?488 483 489 484 0 0 1 30 487 900 0 489 484 490 0 +-.18 -.49 -
.41 0 1224646799147352e-31 1 16 489 795 0 ?491 486 492 487 0 0 1 30 490 899 0 49
2 487 493 0 +-.18 -.23 -.41 0 1224646799147352e-31 1 16 492 799 0 ?494 489 450 4
90 0 0 1 30 493 898 0 450 490 495 0 +-.13 -.18 -.41 0 1224646799147352e-31 1 16
 450 771 0 ?496 492 447 493 0 0 1 31 495 728 0 497 493 498 0 +0 -.1 -12246467991
47352e-32 0 1 0 0 0 1 .105 16 497 678 0 ?499 500 476 495 0 0 1 31 498 727 0 500
 495 501 0 +0 -.36 -.26 0 3359691077272655e-31 1 0 -1 3359691077272655e-31 .105
 16 500 679 0 ?502 503 497 498 0 0 1 31 501 725 0 504 498 505 0 -0 -.1 -12246467
99147352e-32 0 -1 -1224646799147352e-31 0 1224646799147352e-31 -1 .145 16 504 67
2 0 ?506 507 503 501 0 0 1 31 505 724 0 507 501 508 0 +0 -.36 -.26 0 18369701987
2103e-30 1 0 -1 183697019872103e-30 .145 16 507 673 0 ?509 510 504 505 0 0 1 31
 508 723 0 503 505 511 0 +0 0 0 0 1 0 0 0 1 .145 16 503 668 0 ?512 504 500 508 0
 0 1 31 511 722 0 476 508 513 0 +0 -.36 -.36 0 1224646799147352e-31 1 0 -1 12246
46799147352e-31 .145 16 476 767 0 ?514 497 473 511 0 0 1 31 513 578 0 515 511 51
6 0 +.13 .04 -.13 0 1 0 0 0 1 .015 16 515 519 0 ?517 518 519 513 0 0 1 31 516 57
7 0 519 513 520 0 +.13 0 -.13 0 1 0 0 0 1 .015 16 519 516 0 ?521 515 522 516 0 0
 1 31 520 576 0 522 516 523 0 +.1300000000000026 .04 .13 0 1 0 0 0 1 .015 16 522
 501 0 ?524 519 525 520 0 0 1 31 523 575 0 525 520 526 0 +.1300000000000026 0 .1
3 0 1 0 0 0 1 .015 16 525 498 0 ?527 522 528 523 0 0 1 31 526 574 0 528 523 529
 0 +-.1299999999999974 .04 .13 0 1 0 0 0 1 .015 16 528 483 0 ?530 525 510 526 0
 0 1 31 529 573 0 510 526 531 0 +-.1299999999999974 0 .13 0 1 0 0 0 1 .015 16 51
0 480 0 ?532 528 507 529 0 0 1 31 531 572 0 533 529 534 0 +-.13 0 -.13 0 1 0 0 0
 1 .015 16 533 534 0 ?535 536 518 531 0 0 1 31 534 571 0 518 531 537 0 +-.13 .04
 -.13 0 1 0 0 0 1 .015 16 518 537 0 ?538 533 515 534 0 0 1 31 537 386 0 539 534
 540 0 +.13 .05 -.1300000000000036 0 1 0 0 0 1 .03 16 539 327 0 ?541 542 543 537
 0 0 1 31 540 385 0 543 537 544 0 +.13 .04 -.1300000000000036 0 1 0 0 0 1 .03 16
 543 324 0 ?545 539 546 540 0 0 1 31 544 384 0 546 540 547 0 +.1300000000000026
 .05 .1299999999999964 0 1 0 0 0 1 .03 16 546 309 0 ?548 543 549 544 0 0 1 31 54
7 383 0 549 544 550 0 +.1300000000000026 .04 .1299999999999964 0 1 0 0 0 1 .03 1
6 549 306 0 ?551 546 552 547 0 0 1 31 550 382 0 552 547 553 0 +-.129999999999997
4 .05 .13 0 1 0 0 0 1 .03 16 552 291 0 ?554 549 536 550 0 0 1 31 553 381 0 536 5
50 555 0 +-.1299999999999974 .04 .13 0 1 0 0 0 1 .03 16 536 288 0 ?556 552 533 5
53 0 0 1 31 555 380 0 123 553 557 0 +-.13 .04 -.13 0 1 0 0 0 1 .03 16 123 342 0
 ?558 119 542 555 0 0 1 31 557 379 0 542 555 559 0 +-.13 .05 -.13 0 1 0 0 0 1 .0
3 16 542 345 0 ?560 123 539 557 0 0 1 31 559 7 0 134 557 561 0 +.16 .05 .16 0 1
 0 0 0 1 .02 16 134 5 0 ?31 79 70 559 0 0 1 30 561 11 0 79 559 562 0 +.18 .05 -.
16 -260208521396521e-30 0 -1 16 79 9 0 ?78 563 134 561 0 0 1 31 562 15 0 563 561
 564 0 +.16 .05 -.16 0 1 0 0 0 1 .0200000000000005 16 563 13 0 ?87 565 79 562 0
 0 1 30 564 19 0 565 562 117 0 +-.16 .05 -.18 -1 0 0 16 565 17 0 ?90 101 563 564
 0 0 1 31 117 23 0 101 564 105 0 +-.16 .05 -.16 0 1 0 0 0 1 .0199999999999995 16
 101 21 0 ?92 95 565 117 0 0 1 17 90 0 30 92 87 88 566 565 0 567 +17 87 0 30 90
 78 80 568 563 0 569 +17 566 0 195 143 567 80 90 565 0 0 -17 567 0 195 566 52 88
 140 138 0 100 -15 195 159 0 52 190 0 17 52 0 195 567 143 50 570 127 0 140 +17 1
40 0 198 55 100 50 567 138 0 571 +17 100 0 198 140 102 88 92 101 0 0 -15 198 157
 0 55 194 0 17 102 0 198 100 55 91 104 110 0 94 -17 55 0 198 102 140 53 571 129
 0 104 +17 104 0 103 57 94 53 102 110 0 108 +17 108 0 572 571 63 53 57 109 0 0 -
15 572 85 0 573 206 0 17 571 0 572 570 108 50 55 129 0 0 -17 63 0 572 108 69 56
 59 64 0 0 -17 69 0 572 63 573 58 66 70 0 0 -17 573 0 572 69 42 22 121 119 0 0 -
17 42 0 572 573 574 40 46 122 0 76 -17 121 0 172 575 71 40 573 119 0 0 +17 575 0
 172 576 121 67 76 147 0 0 -17 71 0 172 121 576 22 35 115 0 573 +17 576 0 172 71
 575 11 31 134 0 0 -17 35 0 68 33 66 11 71 115 0 576 -15 68 151 0 66 203 0 17 33
 0 68 65 35 28 27 34 0 0 -17 65 0 68 66 33 58 61 111 0 69 +17 31 0 30 78 27 67 5
76 134 0 575 +17 78 0 30 87 31 73 72 79 0 77 +17 77 0 75 72 46 73 146 144 0 568
 -15 75 163 0 46 171 0 17 46 0 75 77 76 43 42 122 0 146 +17 146 0 191 49 568 43
 77 144 0 574 +17 568 0 191 146 569 73 87 563 0 0 -15 191 161 0 49 177 0 17 569
 0 191 568 49 80 143 141 0 566 -17 49 0 191 569 146 47 574 125 0 143 +17 143 0 1
95 52 566 47 569 141 0 570 +17 570 0 572 574 571 47 52 127 0 0 -17 574 0 572 42
 570 43 49 125 0 0 -17 76 0 75 46 72 40 575 147 0 121 +17 560 0 577 560 560 0 57
8 542 0 0 +15 577 352 0 560 209 0 17 578 0 579 578 578 0 560 542 0 0 -15 579 261
 0 578 97 30 17 558 0 580 558 558 0 581 123 0 0 +15 580 355 0 558 216 0 17 581 0
 217 581 581 0 558 123 0 0 -15 217 351 0 581 209 577 17 556 0 582 556 556 0 583
 536 0 0 +15 582 301 0 556 222 0 17 583 0 231 583 583 0 556 536 0 0 -15 231 297
 0 583 226 584 15 584 298 0 554 226 0 17 554 0 584 554 554 0 585 552 0 0 +17 585
 0 586 585 585 0 554 552 0 0 -15 586 282 0 585 97 587 15 587 275 0 588 97 589 17
 588 0 587 588 588 0 548 546 0 0 -15 589 268 0 590 97 579 17 590 0 589 590 590 0
 541 539 0 0 -17 541 0 591 541 541 0 590 539 0 0 +15 591 334 0 541 220 0 17 548
 0 592 548 548 0 588 546 0 0 +15 592 316 0 548 234 0 17 551 0 593 551 551 0 594
 549 0 0 +15 593 319 0 551 230 0 17 594 0 239 594 594 0 551 549 0 0 -15 239 315
 0 594 234 592 17 545 0 595 545 545 0 596 543 0 0 +15 595 337 0 545 238 0 17 596
 0 245 596 596 0 545 543 0 0 -15 245 333 0 596 220 591 17 538 0 597 538 538 0 59
8 518 0 0 +15 597 544 0 538 225 0 17 598 0 221 598 598 0 538 518 0 0 -15 221 475
 0 598 216 580 17 535 0 599 535 535 0 600 533 0 0 +15 599 428 0 535 206 572 17 6
00 0 249 600 600 0 535 533 0 0 -15 249 543 0 600 225 597 17 532 0 601 532 532 0
 602 510 0 0 +15 601 449 0 532 206 603 17 602 0 254 602 602 0 532 510 0 0 -15 25
4 489 0 602 250 604 15 604 490 0 530 250 0 17 530 0 604 530 530 0 605 528 0 0 +1
7 605 0 227 605 605 0 530 528 0 0 -15 227 457 0 605 222 582 15 603 442 0 527 206
 606 17 527 0 603 527 527 0 607 525 0 0 +15 606 435 0 521 206 599 17 521 0 606 5
21 521 0 608 519 0 0 +17 608 0 260 608 608 0 521 519 0 0 -15 260 525 0 608 248 6
09 15 609 526 0 517 248 0 17 517 0 609 517 517 0 610 515 0 0 +17 610 0 242 610 6
10 0 517 515 0 0 -15 242 469 0 610 238 595 17 607 0 257 607 607 0 527 525 0 0 -1
5 257 507 0 607 253 611 15 611 508 0 524 253 0 17 524 0 611 524 524 0 612 522 0
 0 +17 612 0 235 612 612 0 524 522 0 0 -15 235 463 0 612 230 593 17 514 0 269 51
4 514 0 613 476 0 0 +15 269 698 0 514 264 614 17 613 0 615 613 613 0 514 476 0 0
 -15 615 884 0 613 279 616 15 616 885 0 452 279 0 17 452 0 616 617 618 619 620 4
22 0 0 +17 617 0 616 458 452 621 455 453 0 622 -17 618 0 616 452 623 83 472 429
 0 620 -18 619 825 0 496 621 0 624 ?1 17 620 0 289 625 496 83 452 422 0 0 -15 28
9 850 0 620 284 0 17 625 0 289 427 620 44 475 473 0 626 -17 496 0 289 620 427 61
9 627 450 0 455 +18 83 827 0 475 628 629 82 ?1 17 475 0 317 472 626 83 625 473 0
 618 +18 628 839 0 431 630 83 631 ?1 18 629 826 0 472 83 632 84 ?1 17 472 0 317
 633 475 629 618 429 0 479 +18 632 828 0 470 629 634 635 ?1 29 84 923 0 629 635
 82 .18 -.23 -.36 29 635 924 0 632 636 84 .18 -.49 -.36 29 636 925 0 634 637 635
 .1299999999999974 -.54 -.36 18 634 829 0 467 632 638 636 ?1 29 637 926 0 638 63
9 636 -.1300000000000026 -.54 -.36 18 638 830 0 464 634 640 637 ?1 29 639 927 0
 640 641 637 -.18 -.49 -.36 18 640 832 0 491 638 621 639 ?1 29 641 928 0 621 624
 639 -.18 -.23 -.36 18 621 833 0 494 640 619 641 ?1 29 624 929 0 619 642 641 -.1
3 -.18 -.36 29 642 930 0 44 643 624 .13 -.18 -.41 18 44 824 0 625 40 644 642 ?1
 29 643 931 0 644 645 642 .18 -.23 -.41 18 644 834 0 449 44 646 643 ?1 29 645 93
2 0 646 647 643 .18 -.49 -.41 18 646 835 0 446 644 648 645 ?1 29 647 933 0 648 6
49 645 .1299999999999974 -.54 -.41 18 648 836 0 443 646 650 647 ?1 29 649 934 0
 650 651 647 -.1300000000000026 -.54 -.41 18 650 837 0 440 648 652 649 ?1 29 651
 935 0 652 653 649 -.18 -.49 -.41 18 652 838 0 437 650 630 651 ?1 29 653 936 0 6
30 631 651 -.18 -.23 -.41 18 630 831 0 654 652 628 653 ?1 29 631 937 0 628 0 653
 -.13 -.18 -.41 17 654 0 299 434 622 630 494 492 0 655 -15 299 874 0 622 293 0 1
7 434 0 299 491 654 652 656 432 0 0 +17 622 0 299 654 491 621 458 456 0 0 -17 49
4 0 295 455 655 621 654 492 0 617 +17 655 0 295 494 627 630 431 428 0 656 -15 29
5 878 0 455 290 0 17 627 0 295 655 455 628 496 450 0 427 -17 431 0 657 658 656 6
28 655 428 0 627 +17 656 0 657 431 437 630 434 432 0 0 -15 657 881 0 658 294 0 1
7 437 0 657 656 440 652 659 435 0 660 +17 440 0 657 437 443 650 661 438 0 662 +1
7 659 0 303 488 660 650 437 435 0 0 -17 660 0 303 659 461 652 491 489 0 434 -15
 303 870 0 461 298 0 17 461 0 303 660 488 640 663 459 0 458 +17 491 0 299 622 43
4 640 660 489 0 461 +17 488 0 303 461 659 638 662 486 0 663 +17 663 0 616 664 45
8 638 461 459 0 0 -17 458 0 616 663 617 640 622 456 0 0 +17 664 0 616 665 663 63
4 464 462 0 0 -17 665 0 616 623 664 632 467 465 0 0 -17 464 0 307 662 485 638 66
4 462 0 488 +15 307 866 0 464 302 0 17 662 0 307 661 464 650 488 486 0 659 -17 4
85 0 307 464 661 634 666 483 0 664 +17 661 0 307 485 662 648 440 438 0 0 -17 666
 0 311 667 467 648 485 483 0 661 -15 311 862 0 467 306 0 17 667 0 311 482 666 64
6 443 441 0 0 -17 467 0 311 666 482 634 665 465 0 485 +17 482 0 311 467 667 632
 668 480 0 665 +17 668 0 314 669 470 646 482 480 0 667 -15 314 858 0 470 310 0 1
7 669 0 314 479 668 644 446 444 0 0 -17 470 0 314 668 479 632 623 468 0 482 +17
 479 0 314 470 669 629 633 477 0 623 +17 623 0 616 618 665 629 470 468 0 0 -17 6
33 0 317 626 472 644 479 477 0 669 -15 317 854 0 472 288 0 17 626 0 317 475 633
 44 449 447 0 658 -17 449 0 657 446 658 644 626 447 0 633 +17 658 0 657 449 431
 44 427 425 0 0 -17 427 0 289 496 625 628 658 425 0 0 +17 446 0 657 443 449 646
 669 444 0 668 +17 443 0 657 440 446 648 667 441 0 666 +17 455 0 295 627 494 619
 617 453 0 452 +15 614 699 0 670 264 0 17 670 0 614 670 670 0 509 507 0 0 -17 50
9 0 272 509 509 0 670 507 0 0 +15 272 694 0 509 268 671 15 671 695 0 672 268 0 1
7 672 0 671 672 672 0 506 504 0 0 -17 506 0 275 506 506 0 672 504 0 0 +15 275 69
0 0 506 263 673 15 673 691 0 674 263 0 17 674 0 673 674 674 0 512 503 0 0 -17 51
2 0 210 512 512 0 674 503 0 0 +15 210 661 0 512 206 601 17 502 0 675 502 502 0 6
76 500 0 0 +15 675 711 0 502 276 0 17 676 0 283 676 676 0 502 500 0 0 -15 283 70
6 0 676 267 677 15 677 707 0 499 267 0 17 499 0 677 499 499 0 678 497 0 0 +17 67
8 0 158 678 678 0 499 497 0 0 -15 158 702 0 678 157 0 17 424 0 679 424 424 0 680
 404 0 0 +15 679 1083 0 424 287 0 17 680 0 681 680 680 0 424 404 0 0 -15 681 992
 0 680 294 657 17 421 0 682 421 421 0 683 419 0 0 +15 682 1086 0 421 326 0 17 68
3 0 327 683 683 0 421 419 0 0 -15 327 1082 0 683 287 679 17 418 0 684 418 418 0
 685 400 0 0 +15 684 1032 0 418 332 0 17 685 0 341 685 685 0 418 400 0 0 -15 341
 1028 0 685 336 686 15 686 1029 0 416 336 0 17 416 0 686 416 416 0 687 414 0 0 +
17 687 0 688 687 687 0 416 414 0 0 -15 688 1013 0 687 294 689 15 689 1006 0 690
 294 691 17 690 0 689 690 690 0 410 408 0 0 -15 691 999 0 692 294 681 17 692 0 6
91 692 692 0 403 401 0 0 -17 403 0 693 403 403 0 692 401 0 0 +15 693 1065 0 403
 330 0 17 410 0 694 410 410 0 690 408 0 0 +15 694 1047 0 410 344 0 17 413 0 695
 413 413 0 696 411 0 0 +15 695 1050 0 413 340 0 17 696 0 349 696 696 0 413 411 0
 0 -15 349 1046 0 696 344 694 17 407 0 697 407 407 0 698 405 0 0 +15 697 1068 0
 407 348 0 17 698 0 355 698 698 0 407 405 0 0 -15 355 1064 0 698 330 693 17 399
 0 359 399 399 0 699 382 0 0 +15 359 1276 0 399 335 700 17 699 0 331 699 699 0 3
99 382 0 0 -15 331 1206 0 699 326 682 15 700 1277 0 381 335 0 17 381 0 700 381 3
81 0 701 379 0 0 +17 701 0 702 701 701 0 381 379 0 0 -15 702 1159 0 701 279 615
 17 396 0 363 396 396 0 703 390 0 0 +15 363 1218 0 396 167 704 17 703 0 337 703
 703 0 396 390 0 0 -15 337 1188 0 703 332 684 15 704 1219 0 395 167 0 17 395 0 7
04 395 395 0 705 393 0 0 +17 705 0 320 705 705 0 395 393 0 0 -15 320 1180 0 705
 279 706 15 706 1173 0 707 279 378 17 707 0 706 707 707 0 389 387 0 0 -15 378 11
66 0 376 279 702 17 389 0 708 389 389 0 707 387 0 0 +15 708 1236 0 389 362 0 17
 392 0 366 392 392 0 709 384 0 0 +15 366 1235 0 392 362 708 17 709 0 345 709 709
 0 392 384 0 0 -15 345 1194 0 709 340 695 17 373 0 352 373 373 0 371 374 0 0 -15
 352 1200 0 373 348 697 80 1 163 710 711 9000 1 1 1 1 1 1 1 1 0 FFFFTFTFFFFFFFFF
1 81 3 369 2164 712 358 713 367 714 0 715 0 0 81 1 365 2163 163 362 714 0 361 36
7 716 82 255 1 370 -803733182 81 3 714 2162 712 362 717 365 718 369 719 0 0 81 1
 361 2161 163 167 718 0 357 365 720 82 1 716 -734461630 81 3 718 2160 712 167 72
1 361 722 714 723 0 0 81 1 357 2159 163 335 722 0 354 361 724 82 1 720 -67128492
6 81 3 722 2158 712 335 725 357 726 718 727 0 0 81 1 354 2157 163 330 726 0 351
 357 728 82 1 724 -873070270 81 3 726 2156 712 330 729 354 730 722 731 0 0 81 1
 351 2155 163 348 730 0 347 354 732 82 1 728 -989789888 81 3 730 2154 712 348 73
3 351 734 726 735 0 0 81 1 347 2153 163 344 734 0 343 351 736 82 1 732 -99175596
6 81 3 734 2152 712 344 737 347 738 730 739 0 0 81 1 343 2151 163 340 738 0 339
 347 740 82 1 736 -985857728 81 3 738 2150 712 340 741 343 742 734 743 0 0 81 1
 339 2149 163 336 742 0 334 343 744 82 1 740 -987823806 81 3 742 2148 712 336 74
5 339 746 738 747 0 0 81 1 334 2147 163 332 746 0 329 339 748 82 1 744 -98192556
8 81 3 746 2146 712 332 749 334 750 742 751 0 0 81 1 329 2145 163 326 750 0 325
 334 752 82 1 748 -983891646 81 3 750 2144 712 326 753 329 754 746 755 0 0 81 1
 325 2143 163 287 754 0 322 329 756 82 1 752 -995753662 81 3 754 2142 712 287 75
7 325 758 750 759 0 0 81 1 322 2141 163 294 758 0 319 325 760 82 1 756 -99378758
4 81 3 758 2140 712 294 761 322 762 754 763 0 0 81 1 319 2139 163 279 762 0 316
 322 764 82 1 760 -1035534004 81 3 762 2138 712 279 765 319 766 758 767 0 0 81 1
 316 2137 163 288 766 0 313 319 768 82 1 764 -1025179326 81 3 766 2136 712 288 7
69 316 770 762 771 0 0 81 1 313 2135 163 310 770 0 309 316 772 82 1 768 -1023475
394 81 3 770 2134 712 310 773 313 774 766 775 0 0 81 1 309 2133 163 306 774 0 30
5 313 776 82 1 772 -1023213250 81 3 774 2132 712 306 777 309 778 770 779 0 0 81
 1 305 2131 163 302 778 0 301 309 780 82 1 776 -1022951106 81 3 778 2130 712 302
 781 305 782 774 783 0 0 81 1 301 2129 163 298 782 0 297 305 784 82 1 780 -10226
88962 81 3 782 2128 712 298 785 301 786 778 787 0 0 81 1 297 2127 163 293 786 0
 292 301 788 82 1 784 -1022426818 81 3 786 2126 712 293 789 297 790 782 791 0 0
 81 1 292 2125 163 290 790 0 286 297 792 82 1 788 -1022164674 81 3 790 2124 712
 290 793 292 794 786 795 0 0 81 1 286 2123 163 284 794 0 282 292 796 82 1 792 -1
021968066 81 3 794 2122 712 284 797 286 798 790 799 0 0 81 1 282 2121 163 267 79
8 0 278 286 800 82 1 796 -1021640386 81 3 798 2120 712 267 801 282 802 794 803 0
 0 81 1 278 2119 163 276 802 0 274 282 804 82 1 800 -1254293212 81 3 802 2118 71
2 276 805 278 806 798 807 0 0 81 1 274 2117 163 263 806 0 271 278 808 82 1 804 -
1253965492 81 3 806 2116 712 263 809 274 810 802 811 0 0 81 1 271 2115 163 268 8
10 0 266 274 812 82 1 808 -1261764316 81 3 810 2114 712 268 813 271 814 806 815
 0 0 81 1 266 2113 163 264 814 0 262 271 816 82 1 812 -1261043420 81 3 814 2112
 712 264 817 266 818 810 819 0 0 81 1 262 2111 163 157 818 0 259 266 820 82 1 81
6 -1260650204 81 3 818 2110 712 157 821 262 822 814 823 0 0 81 1 259 2109 163 24
8 822 0 256 262 824 82 1 820 -1317797556 81 3 822 2108 712 248 825 259 826 818 8
27 0 0 81 1 256 2107 163 253 826 0 252 259 828 82 1 824 1401356553 81 3 826 2106
 712 253 829 256 830 822 831 0 0 81 1 252 2105 163 250 830 0 247 256 832 82 1 82
8 1405288713 81 3 830 2104 712 250 833 252 834 826 835 0 0 81 1 247 2103 163 225
 834 0 244 252 836 82 1 832 1409220873 81 3 834 2102 712 225 837 247 838 830 839
 0 0 81 1 244 2101 163 220 838 0 241 247 840 82 1 836 1397358857 81 3 838 2100 7
12 220 841 244 842 834 843 0 0 81 1 241 2099 163 238 842 0 237 244 844 82 1 840
 2004222141 81 3 842 2098 712 238 845 241 846 838 847 0 0 81 1 237 2097 163 234
 846 0 233 241 848 82 1 844 2002256137 81 3 846 2096 712 234 849 237 850 842 851
 0 0 81 1 233 2095 163 230 850 0 229 237 852 82 1 848 2008154301 81 3 850 2094 7
12 230 853 233 854 846 855 0 0 81 1 229 2093 163 226 854 0 224 233 856 82 1 852
 2006188297 81 3 854 2092 712 226 857 229 858 850 859 0 0 81 1 224 2091 163 222
 858 0 219 229 860 82 1 856 2012086461 81 3 858 2090 712 222 861 224 862 854 863
 0 0 81 1 219 2089 163 216 862 0 215 224 864 82 1 860 2010120457 81 3 862 2088 7
12 216 865 219 866 858 867 0 0 81 1 215 2087 163 209 866 0 212 219 868 82 1 864
 1998258441 81 3 866 2086 712 209 869 215 870 862 871 0 0 81 1 212 2085 163 97 8
70 0 208 215 872 82 1 868 2000224445 81 3 870 2084 712 97 873 212 874 866 875 0
 0 81 1 208 2083 163 206 874 0 205 212 876 82 1 872 1946747212 81 3 874 2082 712
 206 877 208 878 870 879 0 0 81 1 205 2081 163 203 878 0 202 208 880 82 1 876 19
57101860 81 3 878 2080 712 203 881 205 882 874 883 0 0 81 1 202 2079 163 113 882
 0 200 205 884 82 1 880 1958805691 81 3 882 2078 712 113 885 202 886 878 887 0 0
 81 1 200 2077 163 107 886 0 197 202 888 82 1 884 1959067835 81 3 886 2076 712 1
07 889 200 890 882 891 0 0 81 1 197 2075 163 194 890 0 193 200 892 82 1 888 1959
329979 81 3 890 2074 712 194 893 197 894 886 895 0 0 81 1 193 2073 163 190 894 0
 189 197 896 82 1 892 1959592123 81 3 894 2072 712 190 897 193 898 890 899 0 0 8
1 1 189 2071 163 177 898 0 175 193 900 82 1 896 1959854267 81 3 898 2070 712 177
 901 189 902 894 903 0 0 81 1 175 2069 163 171 902 0 170 189 904 82 1 900 196011
6411 81 3 902 2068 712 171 905 175 174 898 906 0 0 82 1 904 1960378555 80 3 712
 907 908 9000 0 0 0 0 3 5 0 0 0 FFFFTFFFFFFFFFFF1 1 1 81 1 905 1851 909 171 0 90
2 910 901 911 81 3 174 2066 712 16 910 170 912 902 913 0 0 82 6 906 0 1692809644
 31107168 0 0 0 81 1 910 1850 909 16 0 174 0 905 914 81 3 912 2064 712 161 915 1
65 164 174 916 0 0 82 6 913 0 1692809644 31107168 0 0 0 81 1 915 1900 909 161 0
 912 721 917 918 81 1 165 2065 163 161 912 0 160 170 919 81 3 164 2062 712 19 91
7 160 0 912 920 0 0 82 6 916 0 -1959029017 31107174 0 0 0 81 1 917 1901 909 19 0
 164 915 0 921 82 6 920 0 -1959029017 31107174 0 0 0 80 1 909 0 922 8001 0 0 0 0
 3 5 0 0 0 FFFFTFTFFFFFFFFF2 83 3 921 .792156862745098 .819607843137255 .9333333
33333333 79 15 922 SDL/TYSA_COLOUR82 1 919 348651852 81 1 721 1899 909 167 0 718
 717 915 923 83 3 918 .792156862745098 .819607843137255 .933333333333333 81 1 71
7 1898 909 362 0 714 713 721 924 83 3 923 .792156862745098 .819607843137255 .933
333333333333 81 1 713 1897 909 358 0 369 725 717 925 83 3 924 .792156862745098 .
819607843137255 .933333333333333 81 1 725 1896 909 335 0 722 749 713 926 83 3 92
5 .792156862745098 .819607843137255 .933333333333333 81 1 749 1895 909 332 0 746
 745 725 927 83 3 926 .792156862745098 .819607843137255 .933333333333333 81 1 74
5 1894 909 336 0 742 741 749 928 83 3 927 .792156862745098 .819607843137255 .933
333333333333 81 1 741 1893 909 340 0 738 737 745 929 83 3 928 .792156862745098 .
819607843137255 .933333333333333 81 1 737 1892 909 344 0 734 733 741 930 83 3 92
9 .792156862745098 .819607843137255 .933333333333333 81 1 733 1891 909 348 0 730
 729 737 931 83 3 930 .792156862745098 .819607843137255 .933333333333333 81 1 72
9 1890 909 330 0 726 753 733 932 83 3 931 .792156862745098 .819607843137255 .933
333333333333 81 1 753 1889 909 326 0 750 757 729 933 83 3 932 .792156862745098 .
819607843137255 .933333333333333 81 1 757 1888 909 287 0 754 797 753 934 83 3 93
3 .792156862745098 .819607843137255 .933333333333333 81 1 797 1887 909 284 0 794
 769 757 935 83 3 934 .792156862745098 .819607843137255 .933333333333333 81 1 76
9 1886 909 288 0 766 773 797 936 83 3 935 .792156862745098 .819607843137255 .933
333333333333 81 1 773 1885 909 310 0 770 777 769 937 83 3 936 .792156862745098 .
819607843137255 .933333333333333 81 1 777 1884 909 306 0 774 781 773 938 83 3 93
7 .792156862745098 .819607843137255 .933333333333333 81 1 781 1883 909 302 0 778
 785 777 939 83 3 938 .792156862745098 .819607843137255 .933333333333333 81 1 78
5 1882 909 298 0 782 789 781 940 83 3 939 .792156862745098 .819607843137255 .933
333333333333 81 1 789 1881 909 293 0 786 793 785 941 83 3 940 .792156862745098 .
819607843137255 .933333333333333 81 1 793 1880 909 290 0 790 761 789 942 83 3 94
1 .792156862745098 .819607843137255 .933333333333333 81 1 761 1879 909 294 0 758
 765 793 943 83 3 942 .792156862745098 .819607843137255 .933333333333333 81 1 76
5 1878 909 279 0 762 805 761 944 83 3 943 .792156862745098 .819607843137255 .933
333333333333 81 1 805 1877 909 276 0 802 801 765 945 83 3 944 .792156862745098 .
819607843137255 .933333333333333 81 1 801 1876 909 267 0 798 817 805 946 83 3 94
5 .792156862745098 .819607843137255 .933333333333333 81 1 817 1875 909 264 0 814
 813 801 947 83 3 946 .792156862745098 .819607843137255 .933333333333333 81 1 81
3 1874 909 268 0 810 809 817 948 83 3 947 .792156862745098 .819607843137255 .933
333333333333 81 1 809 1873 909 263 0 806 821 813 949 83 3 948 .792156862745098 .
819607843137255 .933333333333333 81 1 821 1872 909 157 0 818 833 809 950 83 3 94
9 .792156862745098 .819607843137255 .933333333333333 81 1 833 1871 909 250 0 830
 829 821 951 83 3 950 .792156862745098 .819607843137255 .933333333333333 81 1 82
9 1870 909 253 0 826 825 833 952 83 3 951 .792156862745098 .819607843137255 .933
333333333333 81 1 825 1869 909 248 0 822 837 829 953 83 3 952 .792156862745098 .
819607843137255 .933333333333333 81 1 837 1868 909 225 0 834 861 825 954 83 3 95
3 .792156862745098 .819607843137255 .933333333333333 81 1 861 1867 909 222 0 858
 857 837 955 83 3 954 .792156862745098 .819607843137255 .933333333333333 81 1 85
7 1866 909 226 0 854 853 861 956 83 3 955 .792156862745098 .819607843137255 .933
333333333333 81 1 853 1865 909 230 0 850 849 857 957 83 3 956 .792156862745098 .
819607843137255 .933333333333333 81 1 849 1864 909 234 0 846 845 853 958 83 3 95
7 .792156862745098 .819607843137255 .933333333333333 81 1 845 1863 909 238 0 842
 841 849 959 83 3 958 .792156862745098 .819607843137255 .933333333333333 81 1 84
1 1862 909 220 0 838 865 845 960 83 3 959 .792156862745098 .819607843137255 .933
333333333333 81 1 865 1861 909 216 0 862 869 841 961 83 3 960 .792156862745098 .
819607843137255 .933333333333333 81 1 869 1860 909 209 0 866 877 865 962 83 3 96
1 .792156862745098 .819607843137255 .933333333333333 81 1 877 1859 909 206 0 874
 873 869 963 83 3 962 .792156862745098 .819607843137255 .933333333333333 81 1 87
3 1858 909 97 0 870 881 877 964 83 3 963 .792156862745098 .819607843137255 .9333
33333333333 81 1 881 1857 909 203 0 878 885 873 965 83 3 964 .792156862745098 .8
19607843137255 .933333333333333 81 1 885 1856 909 113 0 882 889 881 966 83 3 965
 .792156862745098 .819607843137255 .933333333333333 81 1 889 1855 909 107 0 886
 893 885 967 83 3 966 .792156862745098 .819607843137255 .933333333333333 81 1 89
3 1854 909 194 0 890 897 889 968 83 3 967 .792156862745098 .819607843137255 .933
333333333333 81 1 897 1853 909 190 0 894 901 893 969 83 3 968 .792156862745098 .
819607843137255 .933333333333333 81 1 901 1852 909 177 0 898 905 897 970 83 3 96
9 .792156862745098 .819607843137255 .933333333333333 83 3 970 .792156862745098 .
819607843137255 .933333333333333 83 3 914 .792156862745098 .819607843137255 .933
333333333333 83 3 911 .792156862745098 .819607843137255 .933333333333333 79 18 9
08 DOWNSTREAM_FACE_ID82 6 903 0 1692809644 31107168 0 0 0 82 6 899 0 1692809644
 31107168 0 0 0 82 6 895 0 1692809644 31107168 0 0 0 82 6 891 0 1692809644 31107
168 0 0 0 82 6 887 0 1692809644 31107168 0 0 0 82 6 883 0 1692809644 31107168 0
 0 0 82 6 879 0 -1241171968 31107172 0 0 0 82 6 875 0 -1959029017 31107174 0 0 0
 82 6 871 0 1692879456 31107168 0 0 0 82 6 867 0 716688051 31107170 0 0 0 82 6 8
63 0 716688051 31107170 0 0 0 82 6 859 0 1692879456 31107168 0 0 0 82 6 855 0 71
6688051 31107170 0 0 0 82 6 851 0 1692879456 31107168 0 0 0 82 6 847 0 716688051
 31107170 0 0 0 82 6 843 0 1692879456 31107168 0 0 0 82 6 839 0 716688051 311071
70 0 0 0 82 6 835 0 716688051 31107170 0 0 0 82 6 831 0 716688051 31107170 0 0 0
 82 6 827 0 716688051 31107170 0 0 0 82 6 823 0 -1959029017 31107174 0 0 0 82 6
 819 0 -1241171968 31107172 0 0 0 82 6 815 0 -1241171968 31107172 0 0 0 82 6 811
 0 -1241171968 31107172 0 0 0 82 6 807 0 -1959029017 31107174 0 0 0 82 6 803 0 -
1241171968 31107172 0 0 0 82 6 799 0 1089000222 31107174 0 0 0 82 6 795 0 108900
0222 31107174 0 0 0 82 6 791 0 1089000222 31107174 0 0 0 82 6 787 0 1089000222 3
1107174 0 0 0 82 6 783 0 1089000222 31107174 0 0 0 82 6 779 0 1089000222 3110717
4 0 0 0 82 6 775 0 1089000222 31107174 0 0 0 82 6 771 0 1089000222 31107174 0 0
 0 82 6 767 0 1089169524 31107174 0 0 0 82 6 763 0 -1959029017 31107174 0 0 0 82
 6 759 0 1089079745 31107174 0 0 0 82 6 755 0 1089169524 31107174 0 0 0 82 6 751
 0 1089169524 31107174 0 0 0 82 6 747 0 1089079745 31107174 0 0 0 82 6 743 0 108
9169524 31107174 0 0 0 82 6 739 0 1089079745 31107174 0 0 0 82 6 735 0 108916952
4 31107174 0 0 0 82 6 731 0 1089079745 31107174 0 0 0 82 6 727 0 1089169524 3110
7174 0 0 0 82 6 723 0 1089169524 31107174 0 0 0 82 6 719 0 1089169524 31107174 0
 0 0 82 6 715 0 1089169524 31107174 0 0 0 79 14 711 SWEntUnchanged15 323 1389 0
 153 294 688 17 153 0 323 153 153 0 971 152 0 0 +17 971 0 168 971 971 0 153 152
 0 0 -15 168 1418 0 971 161 972 15 972 1419 0 973 161 0 17 973 0 972 973 973 0 1
51 149 0 0 -17 151 0 280 151 151 0 973 149 0 0 +15 280 1381 0 151 276 675 15 213
 1404 0 25 97 586 17 25 0 213 25 25 0 169 10 0 0 +17 169 0 162 169 169 0 25 10 0
 0 -82 1 176 1960640699 82 1 166 350028108 19 17 184 0 1 0 9 5 0 S0 74 4 CI16 in
dex_map_offset0 0 1 dCCZ20 15 12 0 0 369 367 974 975 976 18 977 978 979 13 917 2
 0 0 0 0 0 0 0 0 81 2 974 944 980 1 0 975 0 0 0 981 81 2 975 968 982 1 974 976 0
 0 0 983 81 2 976 969 984 1 975 977 0 0 985 0 81 1 977 1452 986 1 976 978 0 0 98
7 81 2 978 1506 988 1 977 979 0 0 989 0 81 2 979 1701 990 1 978 13 0 0 0 991 81
 2 13 1704 992 1 979 2 0 0 0 0 80 2 992 993 994 9000 0 0 0 0 3 5 0 0 0 FFTFFFFFF
FFFFFFF9 1 79 16 994 BODY_RECIPE_200180 2 990 995 996 9000 0 0 0 0 3 5 0 0 0 FFT
FFFFFFFFFFFFF9 1 82 1 991 1 79 24 996 BODY_IN_LIGHTWEIGHT_PERM80 2 988 997 998 8
004 0 0 0 0 3 5 0 0 0 FFTFFFFFFFFFFFFF2 3 83 1 989 1 79 16 998 SDL/TYSA_DENSITY8
0 1 986 999 1000 9000 1 1 1 1 1 1 1 1 0 FFTFFFFFFFFFFFFF1 82 1 987 2913287 79 10
 1000 BODY_MATCH80 2 984 1001 1002 9000 0 0 0 0 3 5 0 0 0 FFTFTTTFFTFFFFFF3 3 84
 8 985 Chamfer179 21 1002 SWIMPLICITBODYNAME_ID80 2 982 1003 1004 9000 0 0 0 0 3
 5 0 0 0 FFTFFFFFFFFFFFFF9 1 82 1 983 455 79 30 1004 LAST_BODY_MODIFYING_FEATURE
_ID80 2 980 1005 1006 9000 0 0 0 0 3 5 0 0 0 FFTFFFFFFFFFFFFF9 1 82 1 981 205 79
 19 1006 ENT_TIME_STAMP_200180 2 12 1007 1008 9000 0 0 0 0 3 5 0 0 0 FFTFFFFFFFF
FFFFF9 1 82 1 14 114 79 12 1008 ATOM_ID_20011 0 
