**ABCDEFGHIJKLMNOPQRSTUVWXYZabcdefghijklmnopqrstuvwxyz**************************
**PARASOLID !"#$%&'()*+,-./:;<=>?@[\]^_`{|}~0123456789**************************
**PART1;
MC=AMD64;
MC_MODEL=AMD64 Family 23 Model 8 Stepping 2, AuthenticAMD;
MC_ID=unknown;
OS=Windows_NT;
OS_RELEASE=unknown;
FRU=Parasolid Version 34.1, build 225,  5-24-2022;
APPL=SOLIDWORKS 2023-2022300;
SITE=;
USER=unknown;
FORMAT=text;
GUISE=transmit;
KEY=practical_2CAD[1];
FILE=practical_2CAD[1].x_t;
DATE=Sat May 18 09:05:02 2024;
**PART2;
SCH=SCH_3401225_34101;
USFLD_SIZE=0;
**PART3;
**END_OF_HEADER*****************************************************************
T51 : TRANSMIT FILE created by modeller version 340122523 SCH_3401225_34101_1300
6231 0 12 36 CCCI7 lattice222 0 CCCI4 mesh1006 0 I8 polyline1008 0 CCCCCCCDI5 ow
ner1040 0 CCCI16 boundary_lattice222 0 CCCI13 boundary_mesh1006 0 I17 boundary_p
olyline1008 0 CCCA16 index_map_offset0 0 1 dA9 index_map82 0 A17 node_id_index_m
ap82 0 A20 schema_embedding_map82 0 A5 child12 0 A14 lowest_node_id0 0 1 dA16 me
sh_offset_data206 0 Z1 1846 2 3 0 0 0 0 0 0 0 1e3 1e-8 0 4 0 1 0 1 1 5 0 6 7 8 0
 0 9 10 11 0 0 0 0 0 0 0 81 255 2 2 1788 12 1 13 0 0 0 0 14 70 11 CI9 list_type0
 0 1 uI10 notransmit0 0 1 lCCCDCCDI12 finger_index0 0 1 dI12 finger_block1012 0
 CZ3 0 4 T1 0 0 11 20 1 15 15 13 255 5 31 0 1 0 16 0 0 17 0 51 255 6 1049 0 18 1
9 0 0 +.0991967746452878 .0175 .005 0 0 1 .01 1 0 0 31 255 7 1005 0 10 20 0 0 -.
0991967746452878 .0175 .005 0 0 1 1 0 0 .01 29 255 8 1076 0 11 21 0 .12 .025 .00
5 19 9 CCCCCCI5 frame230 0 CA5 owner12 0 Z9 129 0 1 17 0 22 0 V0 16 255 10 997 0
 ?23 0 24 7 0 0 1 18 255 11 1074 0 25 0 26 8 ?1 17 255 25 0 27 28 29 11 30 31 0
 32 -18 26 1071 0 28 11 33 21 ?1 17 28 0 27 34 25 26 32 35 0 36 +18 33 973 0 37
 26 38 39 ?1 29 21 1073 0 26 39 8 .12 .025 -.005 29 39 975 0 33 40 21 .107879206
0665324 .0125386106164317 .005 29 40 972 0 38 41 39 .1078792060665324 .012538610
6164317 -.005 18 38 970 0 42 33 43 40 ?1 29 41 962 0 43 44 40 .0991967746452878
 .0075 .005 18 43 960 0 23 38 45 41 ?1 29 44 959 0 45 46 41 .0991967746452878 .0
075 -.005 18 45 957 0 47 43 48 44 ?1 29 46 949 0 48 49 44 .0991967746452878 -.00
75 -.005 18 48 947 0 50 45 51 46 ?1 29 49 946 0 51 52 46 .0991967746452878 -.007
5 .005 18 51 944 0 53 48 54 49 ?1 29 52 937 0 54 55 49 .1078792060665324 -.01253
86106164317 .005 18 54 935 0 56 51 57 52 ?1 29 55 934 0 57 58 52 .10787920606653
24 -.0125386106164317 -.005 18 57 932 0 59 54 60 55 ?1 29 58 634 0 60 61 55 .014
14213562373094 .0075 .005 18 60 632 0 62 57 63 58 ?1 29 61 631 0 63 64 58 .01414
213562373094 .0075 -.005 18 63 629 0 65 60 66 61 ?1 29 64 621 0 66 67 61 .007856
74201318386 -.00972222222222222 -.005 18 66 619 0 68 63 69 64 ?1 29 67 617 0 69
 70 64 .00785674201318386 -.00972222222222222 .005 18 69 615 0 71 66 72 67 ?1 29
 70 607 0 72 73 67 .00785674201318386 .00972222222222222 -.005 18 72 605 0 74 69
 75 70 ?1 29 73 603 0 75 76 70 .00785674201318386 .00972222222222222 .005 18 75
 601 0 77 72 78 73 ?1 29 76 593 0 78 79 73 .01414213562373094 -.0075 .005 18 78
 591 0 80 75 81 76 ?1 29 79 590 0 81 82 76 .01414213562373094 -.0075 -.005 18 81
 588 0 83 78 84 79 ?1 29 82 428 0 85 86 79 .13 -.025 -.005 18 85 341 0 87 88 89
 82 ?1 29 86 429 0 89 90 82 .115 -.025 -.005 18 89 340 0 91 85 92 86 ?1 29 90 43
4 0 92 93 86 .115 .025 -.005 18 92 336 0 34 89 94 90 ?1 29 93 437 0 84 95 90 .11
5 -.025 .005 18 84 347 0 96 81 97 93 ?1 29 95 442 0 97 98 93 .115 .025 .005 18 9
7 342 0 30 84 88 95 ?1 29 98 443 0 88 99 95 .13 .025 .005 18 88 337 0 100 97 85
 98 ?1 29 99 537 0 94 101 98 .13 .02 .01 18 94 469 0 102 92 103 99 ?1 29 101 538
 0 103 104 99 .13 .025 .01 18 103 475 0 105 94 106 101 ?1 29 104 539 0 106 107 1
01 .13 -.025 .01 18 106 474 0 108 103 109 104 ?1 29 107 540 0 109 110 104 .13 -.
02 .01 18 109 471 0 111 106 112 107 ?1 29 110 541 0 112 113 107 .13 .02 -.01 18
 112 476 0 114 109 115 110 ?1 29 113 542 0 115 116 110 .13 .025 -.01 18 115 468
 0 117 112 118 113 ?1 29 116 543 0 118 119 113 .13 -.025 -.01 18 118 472 0 120 1
15 121 116 ?1 29 119 544 0 121 122 116 .13 -.02 -.01 18 121 470 0 123 118 124 11
9 ?1 29 122 1178 0 125 126 119 .13 .03 -.005 18 125 1121 0 127 128 129 122 ?1 29
 126 1179 0 129 130 122 .13 .025 -.005 18 129 1123 0 131 125 132 126 ?1 29 130 1
181 0 132 133 126 .13 .03 .005 18 132 1119 0 134 129 135 130 ?1 29 133 1182 0 12
4 136 130 .12 .03 -.005 18 124 1118 0 137 121 128 133 ?1 29 136 1185 0 128 138 1
33 .12 .03 .005 18 128 1124 0 139 124 125 136 ?1 29 138 1322 0 140 141 136 .13 -
.03 .005 18 140 1265 0 142 143 144 138 ?1 29 141 1323 0 144 145 138 .13 -.025 .0
05 18 144 1266 0 146 140 147 141 ?1 29 145 1325 0 147 148 141 .13 -.03 -.005 18
 147 1269 0 149 144 0 145 ?1 29 148 1326 0 135 150 145 .12 -.03 .005 18 135 1267
 0 151 132 152 148 ?1 29 150 1327 0 152 153 148 .12 -.025 .005 18 152 1262 0 154
 135 155 150 ?1 29 153 1328 0 155 156 150 .12 -.025 -.005 18 155 1263 0 157 152
 143 153 ?1 29 156 1329 0 143 0 153 .12 -.03 -.005 18 143 1264 0 158 155 140 156
 ?1 17 158 0 159 160 157 143 161 162 0 163 +15 255 159 1272 0 160 164 165 17 160
 0 159 154 158 135 166 167 0 168 +17 157 0 159 158 154 155 169 170 0 161 +17 161
 0 171 172 163 155 158 162 0 173 -16 162 1237 0 ?158 170 167 174 0 0 1 17 163 0
 171 161 149 143 175 176 0 166 -15 171 391 0 177 178 0 17 149 0 171 163 177 147
 87 179 0 175 +17 175 0 180 181 166 147 163 176 0 182 +16 176 1246 0 ?175 183 18
4 185 0 0 1 17 166 0 180 175 168 143 160 167 0 0 -15 180 1281 0 181 186 0 17 168
 0 180 166 181 135 187 183 0 0 -16 167 1228 0 ?160 162 188 189 0 0 1 16 188 1247
 0 ?146 167 179 190 0 0 1 31 189 1319 0 167 191 174 0 +.12 -.03 0 -1 0 0 0 0 -1
 .005 31 191 1320 0 192 193 189 0 +.13 -.03 0 -1 0 0 0 0 -1 .0025 30 255 174 131
8 0 162 189 194 0 +.12 -.03 -.005 0 -1 0 30 194 1317 0 170 174 195 0 +.12 -.025
 .005 0 0 -1 16 170 1234 0 ?157 184 162 194 0 0 1 30 195 1316 0 184 194 196 0 +.
12 -.03 .005 0 1 0 16 184 1231 0 ?154 176 170 195 0 0 1 31 196 1315 0 197 195 19
8 0 +.13 -.03 0 -1 0 0 0 0 -1 .005 16 197 1243 0 ?181 179 199 196 0 0 1 30 198 1
314 0 179 196 190 0 +.13 -.03 -.005 0 -1 0 16 179 1255 0 ?149 188 197 198 0 0 1
 30 190 1312 0 188 198 200 0 +.13 -.03 .005 0 1 0 30 200 1311 0 183 190 185 0 +.
12 -.03 .005 1 0 0 16 183 1250 0 ?187 201 176 200 0 0 1 30 185 1308 0 176 200 20
2 0 +.12 -.03 -.005 1 0 0 31 202 1177 0 203 185 204 0 +.12 .03 0 1 0 0 0 0 -1 .0
025 16 203 1100 0 ?205 206 201 202 0 0 1 31 204 1176 0 201 202 207 0 +.13 .03 0
 1 0 0 0 0 -1 .0025 16 201 1115 0 ?208 203 183 204 0 0 1 31 207 1175 0 209 204 2
10 0 +.12 .03 0 1 0 0 0 0 -1 .005 16 209 1084 0 ?211 212 213 207 0 0 1 30 210 11
74 0 212 207 214 0 +.12 .03 .005 0 -1 0 16 212 1096 0 ?215 35 209 210 0 0 1 30 2
14 1173 0 35 210 216 0 +.12 .025 .005 0 0 -1 16 35 1092 0 ?28 217 212 214 0 0 1
 30 216 1172 0 217 214 218 0 +.12 .03 -.005 0 1 0 16 217 1088 0 ?219 220 35 216
 0 0 1 31 218 1171 0 206 216 221 0 +.13 .03 0 1 0 0 0 0 -1 .005 16 206 1103 0 ?2
22 223 203 218 0 0 1 30 221 1170 0 223 218 224 0 +.13 .03 .005 0 -1 0 16 223 110
6 0 ?225 213 206 221 0 0 1 30 224 1168 0 213 221 226 0 +.13 .03 -.005 0 1 0 16 2
13 1112 0 ?227 209 223 224 0 0 1 30 226 1167 0 228 224 229 0 +.12 .03 -.005 1 0
 0 16 228 1091 0 ?127 230 220 226 0 0 1 30 229 1164 0 220 226 231 0 +.12 .03 .00
5 1 0 0 16 220 1087 0 ?134 228 217 229 0 0 1 30 231 532 0 232 229 233 0 +.13 .02
 -.01 0 0 1 16 232 451 0 ?102 234 235 231 0 0 1 30 233 531 0 235 231 236 0 +.13
 .025 -.01 0 0 1 16 235 457 0 ?131 232 237 233 237 237 1 30 236 530 0 238 233 23
9 0 +.13 -.025 -.01 0 0 1 16 238 450 0 ?240 237 241 236 241 241 1 30 239 529 0 2
30 236 242 0 +.13 -.02 -.01 0 0 1 16 230 453 0 ?111 241 228 239 0 0 1 30 242 528
 0 234 239 243 0 +.13 -.02 -.01 0 1 0 16 234 454 0 ?244 245 232 242 0 0 1 31 243
 527 0 245 242 246 0 +.13 0 -.01 0 0 1 1 0 0 .025 16 245 449 0 ?247 248 234 243
 0 0 1 30 246 526 0 248 243 249 0 +.13 .025 -.01 0 1 0 16 248 460 0 ?250 251 245
 246 0 0 1 31 249 525 0 251 246 252 0 +.13 0 -.01 0 0 -1 1 0 0 .02 16 251 452 0
 ?253 254 248 249 0 0 1 30 252 524 0 254 249 255 0 +.13 -.02 .01 0 1 0 16 254 46
4 0 ?256 257 251 252 0 0 1 31 255 523 0 257 252 258 0 +.13 0 .01 0 0 1 1 0 0 .02
5 16 257 463 0 ?259 260 254 255 0 0 1 30 258 522 0 260 255 261 0 +.13 .025 .01 0
 1 0 16 260 462 0 ?262 263 257 258 0 0 1 31 261 521 0 263 258 264 0 +.13 0 .01 0
 0 -1 1 0 0 .02 16 263 461 0 ?265 266 260 261 0 0 1 31 264 427 0 267 261 268 0 +
.13 0 .005 0 0 -1 1 0 0 .025 16 267 308 0 ?100 31 269 264 0 0 1 30 268 426 0 31
 264 270 0 +.13 .025 .005 -1 -231296463463573e-30 0 16 31 1075 0 ?30 271 267 268
 0 0 1 30 270 425 0 271 268 272 0 +.115 .025 .005 -.496138938356831 -.8682431421
24461 0 16 271 314 0 ?273 274 31 270 0 0 1 30 272 424 0 274 270 275 0 +.0125 .00
75 .005 -1 0 0 16 274 961 0 ?62 276 271 272 0 0 1 31 275 423 0 276 272 277 0 +0
 0 .005 0 0 -1 1 0 0 .0125 16 276 322 0 ?71 278 274 275 0 0 1 30 277 422 0 278 2
75 279 0 +.01 -.0075 .005 1 0 0 16 278 592 0 ?280 281 276 277 0 0 1 30 279 421 0
 281 277 282 0 +.115 -.025 .005 .496138938356831 -.868243142124461 0 16 281 936
 0 ?96 283 278 279 0 0 1 30 282 420 0 283 279 284 0 +.13 -.025 .005 1 -693889390
390719e-30 0 16 283 333 0 ?285 286 281 282 0 0 1 31 284 419 0 266 282 287 0 +.13
 0 -.005 0 0 -1 1 0 0 .025 16 266 272 0 ?288 289 263 284 0 0 1 30 287 418 0 289
 284 290 0 +.13 .025 -.005 -1 -231296463463573e-30 0 16 289 1072 0 ?34 291 266 2
87 0 0 1 30 290 417 0 291 287 292 0 +.115 .025 -.005 -.496138938356831 -.8682431
42124461 0 16 291 280 0 ?293 294 289 290 0 0 1 30 292 416 0 294 290 295 0 +.01 .
0075 -.005 -1 0 0 16 294 958 0 ?65 296 291 292 0 0 1 31 295 415 0 296 292 297 0
 +0 0 -.005 0 0 -1 1 0 0 .0125 16 296 290 0 ?68 298 294 295 0 0 1 30 297 414 0 2
98 295 299 0 +.0125 -.0075 -.005 1 750150692314295e-31 0 16 298 589 0 ?300 301 2
96 297 0 0 1 30 299 413 0 301 297 302 0 +.115 -.025 -.005 .496138938356831 -.868
243142124461 0 16 301 933 0 ?91 269 298 299 0 0 1 30 302 412 0 269 299 303 0 +.1
3 -.025 -.005 1 -693889390390719e-30 0 16 269 304 0 ?173 267 301 302 0 0 1 30 30
3 410 0 286 302 304 0 +.115 -.025 .005 0 0 -1 16 286 307 0 ?305 306 283 303 0 0
 1 30 304 405 0 306 303 307 0 +.115 .025 .005 0 0 -1 16 306 283 0 ?308 309 286 3
04 0 0 1 31 307 116 0 309 304 310 0 +0 0 .01 0 0 1 1 0 0 .01 16 309 86 0 ?311 31
2 306 307 0 0 1 31 310 114 0 312 307 313 0 +0 0 .01 0 0 1 1 0 0 .0125 16 312 77
 0 ?314 315 309 310 0 0 1 31 313 74 0 315 310 316 0 +0 0 -.01 0 0 1 1 0 0 .01 16
 315 51 0 ?317 318 312 313 0 0 1 31 316 7 0 318 313 319 0 +0 0 -.01 0 0 1 1 0 0
 .0125 16 318 5 0 ?320 321 315 316 0 0 1 30 319 596 0 321 316 322 0 -.0141421356
2373094 -.0075 .005 0 0 1 16 321 594 0 ?323 324 318 319 0 0 1 30 322 608 0 324 3
19 325 0 -.00785674201318386 .00972222222222222 -.01 0 0 1 16 324 606 0 ?326 327
 321 322 0 0 1 30 325 622 0 327 322 328 0 +.00785674201318386 -.0097222222222222
2 -.01 0 0 1 16 327 620 0 ?329 330 324 325 0 0 1 30 328 637 0 330 325 331 0 +.01
414213562373094 .0075 .005 0 0 1 16 330 635 0 ?332 333 327 328 0 0 1 31 331 862
 0 333 328 334 0 +.01414213562373094 -.0175 -.005 0 0 1 1 0 0 .01 16 333 642 0 ?
335 336 330 331 0 0 1 31 334 863 0 336 331 337 0 -.01414213562373094 -.0175 .005
 0 0 1 1 0 0 .01 16 336 647 0 ?80 338 333 334 0 0 1 31 337 864 0 338 334 339 0 +
.01414213562373094 .0175 -.005 0 0 1 1 0 0 .01 16 338 652 0 ?340 341 336 337 0 0
 1 31 339 865 0 341 337 342 0 -.01414213562373094 .0175 .005 0 0 1 1 0 0 .01 16
 341 657 0 ?343 344 338 339 0 0 1 30 342 940 0 344 339 345 0 +.1078792060665324
 -.01253861061643168 -.005 0 0 -1 16 344 938 0 ?346 347 341 342 0 0 1 30 345 952
 0 347 342 348 0 -.0991967746452878 -.0075 .005 0 0 -1 16 347 950 0 ?53 349 344
 345 0 0 1 30 348 965 0 349 345 350 0 +.0991967746452878 .0075 -.005 0 0 -1 16 3
49 963 0 ?351 352 347 348 0 0 1 30 350 978 0 352 348 353 0 -.1078792060665324 .0
125386106164317 .005 0 0 -1 16 352 976 0 ?37 354 349 350 0 0 1 31 353 1002 0 354
 350 355 0 +.0991967746452878 -.0175 -.005 0 0 1 1 0 0 .01 16 354 982 0 ?50 356
 352 353 0 0 1 31 355 1003 0 356 353 20 0 -.0991967746452878 -.0175 .005 0 0 1 1
 0 0 .01 16 356 987 0 ?56 24 354 355 0 0 1 31 20 1004 0 24 355 7 0 +.09919677464
52878 .0175 -.005 0 0 1 1 0 0 .01 16 24 992 0 ?42 10 356 20 0 0 1 17 42 0 171 35
7 358 38 47 24 0 293 +17 357 0 171 36 42 92 293 291 0 0 -17 358 0 171 42 340 45
 65 294 0 0 -17 47 0 359 360 361 45 42 24 0 351 -17 293 0 362 37 308 38 357 291
 0 361 +15 362 363 0 293 363 0 17 37 0 362 364 293 33 361 352 0 273 +17 308 0 36
2 293 364 92 29 306 0 357 +17 361 0 359 47 365 38 37 352 0 0 -15 359 1038 0 365
 18 0 17 365 0 359 361 360 33 23 10 0 0 -17 360 0 359 365 47 43 351 349 0 0 -17
 23 0 366 62 273 43 365 10 0 367 +15 366 388 0 100 368 0 17 62 0 366 343 23 60 3
67 274 0 332 +17 273 0 366 23 30 33 364 271 0 365 +17 367 0 369 351 332 43 62 27
4 0 360 -15 369 368 0 367 370 0 17 351 0 369 65 367 45 360 349 0 358 +17 332 0 3
69 367 65 60 371 330 0 372 +17 65 0 369 332 351 63 358 294 0 340 +17 371 0 373 3
74 372 63 332 330 0 0 -17 372 0 373 371 375 60 343 341 0 0 -15 373 898 0 372 376
 0 17 375 0 373 372 374 75 326 324 0 0 -17 343 0 366 71 62 75 372 341 0 375 +17
 71 0 366 80 343 69 77 276 0 329 +17 80 0 366 280 71 78 377 336 0 378 +17 77 0 3
79 326 329 75 71 276 0 343 -17 329 0 379 77 68 69 380 327 0 377 +15 379 266 0 68
 381 382 17 68 0 379 329 326 66 74 296 0 335 +17 380 0 383 83 377 66 329 327 0 0
 -17 377 0 383 380 384 69 80 336 0 0 -15 383 877 0 377 385 0 17 384 0 383 377 83
 78 323 321 0 0 -17 83 0 383 384 380 81 335 333 0 323 -17 323 0 386 300 378 81 3
84 321 0 387 +15 386 377 0 300 388 0 17 300 0 386 53 323 48 387 298 0 389 +17 37
8 0 386 323 53 78 280 278 0 384 -17 387 0 171 335 50 81 300 298 0 0 -17 335 0 17
1 74 387 66 83 333 0 380 +17 50 0 171 387 390 48 59 354 0 300 +17 390 0 171 50 1
72 57 91 301 0 0 -17 59 0 391 392 389 57 50 354 0 346 -15 391 1017 0 393 394 0 1
7 392 0 391 393 59 54 346 344 0 0 -17 389 0 391 59 393 48 53 347 0 0 -17 346 0 3
95 91 396 57 392 344 0 390 +15 395 381 0 396 397 0 17 91 0 395 398 346 89 390 30
1 0 305 +17 396 0 395 346 398 54 96 281 0 392 -17 398 0 395 396 91 84 305 286 0
 399 -17 96 0 366 285 56 84 396 281 0 398 +17 285 0 366 151 96 152 399 283 0 0 +
17 56 0 366 96 280 54 393 356 0 396 +17 280 0 366 56 80 51 378 278 0 393 +17 393
 0 391 389 392 51 56 356 0 0 -17 151 0 366 187 285 135 154 184 0 160 -17 399 0 4
00 305 169 84 285 283 0 0 -15 400 1222 0 169 16 0 17 305 0 400 173 399 89 398 28
6 0 172 +17 169 0 400 399 173 152 157 170 0 285 -17 173 0 400 169 305 155 172 26
9 0 0 +17 172 0 171 390 161 89 173 269 0 0 -14 255 16 1224 401 ?402 0 400 5 403
 -0 0 402 0 22 81 1 401 1790 404 16 405 0 0 406 407 14 402 1080 406 ?381 16 27 5
 408 -0 0 381 16 22 50 255 403 401 0 16 409 410 0 +.13 -.025 .005 69388939039071
9e-30 1 0 -1 693889390390719e-30 0 13 22 10 0 0 0 0 0 0 9 16 50 409 402 0 178 41
1 403 0 +.13 0 -.005 0 0 1 1 0 0 50 410 400 0 397 403 412 0 +.115 -.025 .005 .86
8243142124461 .496138938356831 0 -.496138938356831 .868243142124461 0 14 397 378
 413 ?368 388 395 5 410 -0 0 368 388 22 50 412 399 0 388 410 414 0 +.0125 -.0075
 .005 -750150692314295e-31 1 0 -1 -750150692314295e-31 0 14 388 373 415 ?397 370
 386 5 412 -0 0 397 370 22 50 414 397 0 370 412 416 0 +.01 .0075 .005 0 -1 0 0 0
 -1 14 370 364 417 ?388 363 369 5 414 -0 0 388 363 22 50 416 396 0 363 414 408 0
 +.115 .025 .005 .868243142124461 -.496138938356831 0 .496138938356831 .86824314
2124461 0 14 363 360 418 ?370 419 362 5 416 -0 0 370 419 22 50 408 395 0 402 416
 420 0 +.13 .025 .005 231296463463573e-30 -1 0 1 231296463463573e-30 0 50 420 11
1 0 419 408 421 0 +0 0 .01 0 0 1 1 0 0 14 419 89 422 ?363 423 424 5 420 +0 0 363
 423 22 51 421 70 0 423 420 425 0 +0 0 -.01 0 0 1 .01 1 0 0 14 423 57 426 ?419 4
27 428 5 421 -0 0 419 427 22 50 425 3 0 427 421 429 0 +0 0 -.01 0 0 1 1 0 0 14 4
27 1 430 ?423 381 431 5 425 -0 0 423 381 22 51 429 30 0 381 425 432 0 +0 0 -.01
 0 0 1 .0125 1 0 0 14 381 27 433 ?427 402 379 5 429 +0 0 427 402 22 51 432 888 0
 385 429 434 0 +.01414213562373094 -.0175 -.01 0 0 1 .01 1 0 0 14 385 876 435 ?3
76 436 383 5 432 -0 0 376 436 22 51 434 909 0 376 432 19 0 +.01414213562373094 .
0175 -.01 0 0 1 .01 1 0 0 14 376 897 437 ?394 385 373 5 434 -0 0 394 385 22 51 1
9 1028 0 394 434 6 0 +.0991967746452878 -.0175 .005 0 0 1 .01 1 0 0 14 394 1016
 438 ?18 376 391 5 19 -0 0 18 376 22 81 1 438 1814 404 394 439 0 437 440 441 14
 18 1037 440 ?442 394 359 5 6 -0 0 442 394 22 81 1 440 1816 404 18 443 0 438 444
 445 14 442 1126 444 ?446 18 447 5 448 +0 0 446 18 22 81 1 444 1818 404 442 449
 0 440 450 451 14 446 1142 450 ?452 442 453 5 454 -0 0 452 442 22 15 447 1129 0
 455 442 0 51 448 1157 0 442 454 456 0 +.12 .03 0 1 0 0 .005 0 0 -1 50 454 1162
 0 446 457 448 0 +.12 .03 0 1 0 0 0 0 -1 51 456 518 0 458 448 459 0 -.13 0 -.01
 0 0 1 .02 1 0 0 14 458 485 460 ?461 462 463 5 456 +0 0 461 462 22 50 459 517 0
 464 456 465 0 +.13 .025 -.01 1 0 0 0 0 -1 14 464 497 466 ?467 468 469 5 459 +0
 0 467 468 22 51 465 516 0 468 459 470 0 +.13 0 -.01 0 0 1 .025 1 0 0 14 468 493
 471 ?464 461 472 5 465 +462 462 464 461 22 50 470 515 0 461 465 473 0 +.13 -.02
 -.01 1 0 0 0 0 -1 14 461 489 474 ?468 458 475 5 470 +0 0 468 458 22 50 473 514
 0 467 470 476 0 +.13 0 -.01 0 0 1 1 0 0 14 467 501 477 ?436 464 478 5 473 -0 0
 436 464 22 50 476 513 0 436 473 411 0 +.13 0 .01 0 0 1 1 0 0 14 436 506 479 ?38
5 467 480 5 476 +0 0 385 467 22 50 411 403 0 368 476 409 0 +.13 0 .005 0 0 1 1 0
 0 14 368 386 481 ?178 397 366 5 411 +0 0 178 397 22 81 1 481 1834 404 368 482 0
 479 483 484 14 178 389 483 ?462 368 171 5 409 -0 0 462 368 22 81 1 483 1836 404
 178 485 0 481 486 487 14 462 481 486 ?458 178 488 5 465 +468 468 458 178 22 81
 1 486 1838 404 462 489 0 483 490 491 15 488 484 0 288 462 0 17 288 0 488 117 24
0 129 177 266 0 492 +17 117 0 488 247 288 115 131 235 0 493 -17 240 0 488 288 24
7 85 120 238 0 0 +17 177 0 171 149 492 85 288 266 0 240 -17 492 0 171 177 127 12
9 227 213 0 0 -17 127 0 171 492 219 125 137 228 0 455 +17 227 0 469 222 131 125
 492 213 0 0 +15 469 500 0 131 464 494 17 222 0 469 225 227 132 455 206 0 0 +17
 131 0 469 227 250 129 117 235 0 288 +17 250 0 469 131 114 115 495 248 0 0 +17 1
14 0 469 250 496 112 102 232 0 495 -17 495 0 478 497 493 112 250 248 0 253 -15 4
78 505 0 497 467 0 17 497 0 478 498 495 121 253 251 0 244 -17 493 0 478 495 498
 115 247 245 0 250 -17 253 0 463 102 123 112 497 251 0 0 +15 463 488 0 102 458 0
 17 102 0 463 499 253 94 114 232 0 496 +17 123 0 463 253 499 121 111 230 0 497 -
17 499 0 463 123 102 109 265 263 0 0 -17 111 0 475 500 244 109 123 230 0 256 +15
 475 492 0 111 461 501 17 500 0 475 502 111 106 256 254 0 0 -17 244 0 475 111 12
0 121 498 234 0 0 +17 256 0 480 265 259 109 500 254 0 499 +15 480 510 0 265 436
 0 17 265 0 480 262 256 94 499 263 0 0 +17 259 0 480 256 262 106 503 257 0 500 +
17 262 0 480 259 265 103 496 260 0 503 +17 503 0 472 504 108 103 259 257 0 0 -15
 472 496 0 504 468 0 17 504 0 472 505 503 88 105 237 0 225 -17 108 0 472 503 505
 106 502 241 0 259 +17 505 0 472 108 504 144 100 267 0 502 -17 502 0 475 142 500
 144 108 241 0 0 -16 241 456 0 ?108 238 230 236 238 238 1 17 142 0 475 182 502 1
40 146 188 0 187 -17 182 0 475 87 142 147 181 197 0 0 -17 146 0 366 100 187 144
 142 188 0 505 +17 187 0 366 146 151 140 168 183 0 181 +17 181 0 180 168 175 140
 182 197 0 0 +17 100 0 366 506 146 88 505 267 0 504 +17 506 0 366 139 100 132 22
5 223 0 222 -17 139 0 366 215 506 128 134 220 0 507 -17 225 0 469 105 222 88 506
 223 0 0 +17 105 0 469 496 225 103 504 237 0 262 +17 496 0 469 114 105 94 262 26
0 0 265 -16 237 459 0 ?105 235 238 233 235 235 1 17 215 0 366 30 139 11 507 212
 0 0 +17 134 0 447 455 211 132 139 220 0 506 +17 507 0 508 509 32 128 215 212 0
 211 -15 508 1145 0 509 446 0 17 509 0 508 510 507 124 211 209 0 219 -17 32 0 50
8 507 510 11 28 35 0 215 -17 211 0 447 134 137 128 509 209 0 0 +17 137 0 447 211
 455 124 127 228 0 509 -17 455 0 447 137 134 125 222 206 0 227 -17 510 0 508 32
 509 26 219 217 0 0 -17 219 0 171 127 36 124 510 217 0 0 +17 36 0 171 219 357 26
 34 289 0 510 -17 34 0 27 29 28 92 36 289 0 308 +15 27 1078 0 28 402 0 17 29 0 2
7 25 34 97 308 306 0 364 -17 364 0 362 308 37 97 273 271 0 0 -17 30 0 366 273 21
5 97 25 31 0 29 +17 87 0 475 120 182 85 149 179 0 177 -17 120 0 475 244 87 118 2
40 238 0 247 -17 247 0 488 240 117 118 493 245 0 498 +17 498 0 478 493 497 118 2
44 234 0 0 -15 501 1277 0 511 461 0 17 511 0 501 511 511 0 512 192 0 0 +17 512 0
 513 512 512 0 511 192 0 0 -16 192 1240 0 ?511 199 0 191 0 0 1 16 199 1259 0 ?51
4 197 192 193 0 0 1 17 514 0 515 514 514 0 516 199 0 0 +31 193 1321 0 199 0 191
 0 +.12 -.03 0 -1 0 0 0 0 -1 .0025 15 515 1297 0 514 517 513 17 516 0 165 516 51
6 0 514 199 0 0 -15 165 1273 0 516 164 0 14 164 1270 490 ?186 452 159 5 518 -0 0
 186 452 22 81 1 490 1840 404 164 519 0 486 520 521 14 186 1278 520 ?517 164 180
 5 522 -0 0 517 164 22 14 452 1150 523 ?164 446 524 5 457 -0 0 164 446 22 50 518
 1306 0 164 525 522 0 +.12 -.03 0 1 0 0 0 0 -1 51 525 1307 0 517 0 518 0 -.12 -.
03 0 1 0 0 .0025 0 0 -1 51 522 1301 0 186 518 457 0 -.12 -.03 0 1 0 0 .005 0 0 -
1 51 457 1163 0 452 522 454 0 +.12 .03 0 1 0 0 .0025 0 0 -1 14 517 1294 526 ?0 1
86 515 5 525 +0 0 0 186 22 81 1 526 1846 404 517 527 0 523 0 528 80 7 CCCCCDI12
 legal_owners0 16 1 lCZ1 404 529 530 9000 1 1 1 1 1 1 1 1 0 FFFFTFTFFFFFFFFF1 81
 3 527 1845 531 517 532 526 533 0 534 0 0 81 1 523 1844 404 452 533 0 520 526 53
5 82 255 1 528 -1211629419 81 3 533 1843 531 452 536 523 537 527 538 0 0 81 1 52
0 1842 404 186 537 0 490 523 539 82 1 535 -1354235757 81 3 537 1841 531 186 540
 520 519 533 541 0 0 82 1 539 -1216479083 80 3 531 542 543 9000 0 0 0 0 3 5 0 0
 0 FFFFTFFFFFFFFFFF1 1 1 81 1 540 1688 544 186 0 537 545 532 546 81 3 519 1839 5
31 164 545 490 489 537 547 0 0 82 6 541 0 936498417 31107161 0 0 0 81 1 545 1687
 544 164 0 519 536 540 548 81 3 489 1837 531 462 549 486 485 519 550 0 0 82 6 54
7 0 936498417 31107161 0 0 0 81 1 549 1673 544 462 0 489 551 552 553 81 3 485 18
35 531 178 551 483 482 489 554 0 0 82 6 550 0 -234072624 31107156 0 0 0 81 1 551
 1672 544 178 0 485 555 549 556 81 3 482 1833 531 368 555 481 557 485 558 0 0 82
 6 554 0 936498417 31107161 0 0 0 81 1 555 1671 544 368 0 482 559 551 560 81 3 5
57 1831 531 436 561 479 562 482 563 0 0 82 6 558 0 936498417 31107161 0 0 0 81 1
 561 1679 544 436 0 557 564 565 566 81 1 479 1832 404 436 557 0 477 481 567 81 3
 562 1829 531 467 564 477 568 557 569 0 0 82 6 563 0 53823913 31107155 0 0 0 81
 1 564 1678 544 467 0 562 570 561 571 81 1 477 1830 404 467 562 0 474 479 572 81
 3 568 1827 531 461 573 474 574 562 575 0 0 82 6 569 0 53823913 31107155 0 0 0 8
1 1 573 1675 544 461 0 568 552 576 577 81 1 474 1828 404 461 568 0 471 477 578 8
1 3 574 1825 531 468 576 471 579 568 580 0 0 82 6 575 0 936498417 31107161 0 0 0
 81 1 576 1676 544 468 0 574 573 570 581 81 1 471 1826 404 468 574 0 466 474 582
 81 3 579 1823 531 464 570 466 583 574 584 0 0 82 6 580 0 -234072624 31107156 0
 0 0 81 1 570 1677 544 464 0 579 576 564 585 81 1 466 1824 404 464 579 0 460 471
 586 81 3 583 1821 531 458 552 460 587 579 588 0 0 82 6 584 0 635542357 31107161
 0 0 0 81 1 552 1674 544 458 0 583 549 573 589 81 1 460 1822 404 458 583 0 450 4
66 590 81 3 587 1819 531 446 591 450 449 583 592 0 0 82 6 588 0 53823913 3110715
5 0 0 0 81 1 591 1685 544 446 0 587 593 536 594 81 1 450 1820 404 446 587 0 444
 460 595 81 3 449 1817 531 442 593 444 443 587 596 0 0 82 6 592 0 635542357 3110
7161 0 0 0 81 1 593 1684 544 442 0 449 597 591 598 81 3 443 1815 531 18 597 440
 439 449 599 0 0 82 6 596 0 635542357 31107161 0 0 0 81 1 597 1683 544 18 0 443
 600 593 601 81 3 439 1813 531 394 600 438 602 443 603 0 0 82 6 599 0 1799821269
 31107157 0 0 0 81 1 600 1682 544 394 0 439 604 597 605 81 3 602 1811 531 376 60
4 437 606 439 607 0 0 82 6 603 0 1799821269 31107157 0 0 0 81 1 604 1681 544 376
 0 602 565 600 608 81 1 437 1812 404 376 602 0 435 438 609 81 3 606 1809 531 385
 565 435 610 602 611 0 0 82 6 607 0 1594210387 31107157 0 0 0 81 1 565 1680 544
 385 0 606 561 604 612 81 1 435 1810 404 385 606 0 433 437 613 81 3 610 1807 531
 381 614 433 615 606 616 0 0 82 6 611 0 1594210387 31107157 0 0 0 81 1 614 1663
 544 381 0 610 617 618 619 81 1 433 1808 404 381 610 0 430 435 620 81 3 615 1805
 531 427 618 430 621 610 622 0 0 82 6 616 0 1594210387 31107157 0 0 0 81 1 618 1
664 544 427 0 615 614 623 624 81 1 430 1806 404 427 615 0 426 433 625 81 3 621 1
803 531 423 623 426 626 615 627 0 0 82 6 622 0 53823913 31107155 0 0 0 81 1 623
 1665 544 423 0 621 618 628 629 81 1 426 1804 404 423 621 0 422 430 630 81 3 626
 1801 531 419 628 422 631 621 632 0 0 82 6 627 0 53823913 31107155 0 0 0 81 1 62
8 1666 544 419 0 626 623 633 634 81 1 422 1802 404 419 626 0 418 426 635 81 3 63
1 1799 531 363 633 418 636 626 637 0 0 82 6 632 0 53823913 31107155 0 0 0 81 1 6
33 1667 544 363 0 631 628 638 639 81 1 418 1800 404 363 631 0 417 422 640 81 3 6
36 1797 531 370 638 417 641 631 642 0 0 82 6 637 0 1799821269 31107157 0 0 0 81
 1 638 1668 544 370 0 636 633 643 644 81 1 417 1798 404 370 636 0 415 418 645 81
 3 641 1795 531 388 643 415 646 636 647 0 0 82 6 642 0 1799821269 31107157 0 0 0
 81 1 643 1669 544 388 0 641 638 559 648 81 1 415 1796 404 388 641 0 413 417 649
 81 3 646 1793 531 397 559 413 650 641 651 0 0 82 6 647 0 1799821269 31107157 0
 0 0 81 1 559 1670 544 397 0 646 643 555 652 81 1 413 1794 404 397 646 0 406 415
 653 81 3 650 1791 531 402 617 406 405 646 654 0 0 82 6 651 0 1799821269 3110715
7 0 0 0 81 1 617 1662 544 402 0 650 655 614 656 81 1 406 1792 404 402 650 0 401
 413 657 81 3 405 1789 531 16 655 401 0 650 658 0 0 82 6 654 0 635542357 3110716
1 0 0 0 81 1 655 1661 544 16 0 405 0 617 659 82 6 658 0 936498417 31107161 0 0 0
 80 1 544 0 660 8001 0 0 0 0 3 5 0 0 0 FFFFTFTFFFFFFFFF2 83 255 3 659 .792156862
745098 .819607843137255 .933333333333333 79 255 15 660 SDL/TYSA_COLOUR82 1 657 -
1340079981 83 3 656 .792156862745098 .819607843137255 .933333333333333 82 1 653
 -192741247 83 3 652 .792156862745098 .819607843137255 .933333333333333 82 1 649
 -192872319 83 3 648 .792156862745098 .819607843137255 .933333333333333 82 1 645
 -193134463 83 3 644 .792156862745098 .819607843137255 .933333333333333 82 1 640
 -193527679 83 3 639 .792156862745098 .819607843137255 .933333333333333 82 1 635
 -1546452876 83 3 634 .792156862745098 .819607843137255 .933333333333333 82 1 63
0 -1561329548 83 3 629 .792156862745098 .819607843137255 .933333333333333 82 1 6
25 -1567293324 83 3 624 .792156862745098 .819607843137255 .933333333333333 82 1
 620 -1565327233 83 3 619 .792156862745098 .819607843137255 .933333333333333 82
 1 613 -1954348929 83 3 612 .792156862745098 .819607843137255 .933333333333333 8
2 1 609 -1952382849 83 3 608 .792156862745098 .819607843137255 .933333333333333
 83 3 605 .792156862745098 .819607843137255 .933333333333333 83 3 601 .792156862
745098 .819607843137255 .933333333333333 83 3 598 .792156862745098 .819607843137
255 .933333333333333 82 1 595 -1365901165 81 1 536 1686 544 452 0 533 591 545 66
1 83 3 594 .792156862745098 .819607843137255 .933333333333333 83 3 661 .79215686
2745098 .819607843137255 .933333333333333 82 1 590 -179109768 83 3 589 .79215686
2745098 .819607843137255 .933333333333333 82 1 586 -179502957 83 3 585 .79215686
2745098 .819607843137255 .933333333333333 82 1 582 -179306347 83 3 581 .79215686
2745098 .819607843137255 .933333333333333 82 1 578 -178978667 83 3 577 .79215686
2745098 .819607843137255 .933333333333333 82 1 572 -179371912 83 3 571 .79215686
2745098 .819607843137255 .933333333333333 82 1 567 -177864584 83 3 566 .79215686
2745098 .819607843137255 .933333333333333 83 3 560 .792156862745098 .81960784313
7255 .933333333333333 83 3 556 .792156862745098 .819607843137255 .93333333333333
3 83 3 553 .792156862745098 .819607843137255 .933333333333333 83 3 548 .79215686
2745098 .819607843137255 .933333333333333 81 1 532 1689 544 517 0 527 540 0 662
 83 3 546 .792156862745098 .819607843137255 .933333333333333 83 3 662 .792156862
745098 .819607843137255 .933333333333333 79 18 543 DOWNSTREAM_FACE_ID82 6 538 0
 635542357 31107161 0 0 0 82 6 534 0 936498417 31107161 0 0 0 79 14 530 SWEntUnc
hanged15 524 1153 0 663 452 664 17 663 0 524 663 663 0 205 203 0 0 -15 664 1154
 0 208 452 0 17 208 0 664 208 208 0 665 201 0 0 +17 665 0 494 665 665 0 208 201
 0 0 -15 494 1148 0 665 464 0 17 205 0 453 205 205 0 663 203 0 0 +15 453 1144 0
 205 446 508 82 1 521 -1209401195 15 513 1298 0 512 517 0 82 1 491 -173670251 82
 1 487 -192479083 82 1 484 -192348011 82 1 451 -1358954349 82 1 445 -1554055039
 82 1 441 -1556021119 15 431 45 0 317 427 666 17 317 0 431 317 317 0 667 315 0 0
 +15 666 4 0 668 427 0 17 668 0 666 668 668 0 320 318 0 0 -17 320 0 382 320 320
 0 668 318 0 0 +15 382 26 0 320 381 669 15 669 100 0 670 381 0 17 670 0 669 670
 670 0 314 312 0 0 -17 314 0 424 314 314 0 670 312 0 0 +15 424 91 0 314 419 671
 15 671 92 0 672 419 0 17 672 0 671 672 672 0 311 309 0 0 -17 311 0 673 311 311
 0 672 309 0 0 +15 673 105 0 311 423 0 17 667 0 428 667 667 0 317 315 0 0 -15 42
8 60 0 667 423 673 82 1 407 -1206517611 17 154 0 159 157 160 152 151 184 0 169 +
17 53 0 386 378 300 51 389 347 0 280 +17 74 0 171 340 335 72 68 296 0 374 -17 34
0 0 171 358 74 63 374 338 0 371 +17 374 0 373 375 371 72 340 338 0 326 -17 326 0
 379 68 77 72 375 324 0 0 +19 17 32 0 1 0 9 5 0 S0 74 4 CI16 index_map_offset0 0
 1 dCCZ20 15 11 0 0 527 526 674 675 676 677 678 679 13 532 2 0 0 0 0 0 0 0 0 0 8
1 2 674 1336 680 1 0 675 0 0 0 681 81 2 675 1338 682 1 674 676 0 0 0 683 81 2 67
6 1339 684 1 675 677 0 0 685 0 81 1 677 1358 686 1 676 678 0 0 687 81 2 678 1389
 688 1 677 679 0 0 689 0 81 2 679 1522 690 1 678 13 0 0 0 691 81 2 13 1554 692 1
 679 2 0 0 0 0 80 2 692 693 694 9000 0 0 0 0 3 5 0 0 0 FFTFFFFFFFFFFFFF9 1 79 16
 694 BODY_RECIPE_200180 2 690 695 696 9000 0 0 0 0 3 5 0 0 0 FFTFFFFFFFFFFFFF9 1
 82 1 691 1 79 24 696 BODY_IN_LIGHTWEIGHT_PERM80 2 688 697 698 8004 0 0 0 0 3 5
 0 0 0 FFTFFFFFFFFFFFFF2 3 83 1 689 1 79 16 698 SDL/TYSA_DENSITY80 1 686 699 700
 9000 1 1 1 1 1 1 1 1 0 FFTFFFFFFFFFFFFF1 82 1 687 107155 79 10 700 BODY_MATCH80
 2 684 701 702 9000 0 0 0 0 3 5 0 0 0 FFTFTTTFFTFFFFFF3 3 84 255 7 685 Mirror379
 21 702 SWIMPLICITBODYNAME_ID80 2 682 703 704 9000 0 0 0 0 3 5 0 0 0 FFTFFFFFFFF
FFFFF9 1 82 1 683 142 79 30 704 LAST_BODY_MODIFYING_FEATURE_ID80 2 680 705 706 9
000 0 0 0 0 3 5 0 0 0 FFTFFFFFFFFFFFFF9 1 82 1 681 136 79 19 706 ENT_TIME_STAMP_
200180 2 12 707 708 9000 0 0 0 0 3 5 0 0 0 FFTFFFFFFFFFFFFF9 1 82 1 14 111 79 12
 708 ATOM_ID_20011 0 
