**ABCDEFGHIJKLMNOPQRSTUVWXYZabcdefghijklmnopqrstuvwxyz**************************
**PARASOLID !"#$%&'()*+,-./:;<=>?@[\]^_`{|}~0123456789**************************
**PART1;
MC=AMD64;
MC_MODEL=AMD64 Family 23 Model 8 Stepping 2, AuthenticAMD;
MC_ID=unknown;
OS=Windows_NT;
OS_RELEASE=unknown;
FRU=Parasolid Version 34.1, build 225,  5-24-2022;
APPL=SOLIDWORKS 2023-2022300;
SITE=;
USER=unknown;
FORMAT=text;
GUISE=transmit;
KEY=piston_p4;
FILE=piston_p4.x_t;
DATE=Sat May 18 08:56:15 2024;
**PART2;
SCH=SCH_3401225_34101;
USFLD_SIZE=0;
**PART3;
**END_OF_HEADER*****************************************************************
T51 : TRANSMIT FILE created by modeller version 340122523 SCH_3401225_34101_1300
6231 0 12 36 CCCI7 lattice222 0 CCCI4 mesh1006 0 I8 polyline1008 0 CCCCCCCDI5 ow
ner1040 0 CCCI16 boundary_lattice222 0 CCCI13 boundary_mesh1006 0 I17 boundary_p
olyline1008 0 CCCA16 index_map_offset0 0 1 dA9 index_map82 0 A17 node_id_index_m
ap82 0 A20 schema_embedding_map82 0 A5 child12 0 A14 lowest_node_id0 0 1 dA16 me
sh_offset_data206 0 Z1 1220 2 3 0 0 0 0 0 0 0 1e3 1e-8 0 4 0 1 0 1 1 5 0 6 7 8 0
 0 9 10 11 0 0 0 0 0 0 0 81 255 2 2 1158 12 1 13 0 0 0 0 14 70 11 CI9 list_type0
 0 1 uI10 notransmit0 0 1 lCCCDCCDI12 finger_index0 0 1 dI12 finger_block1012 0
 CZ3 0 4 T1 0 0 11 20 1 15 15 13 255 5 188 0 1 0 16 0 0 17 0 54 255 6 349 0 18 1
9 0 0 -0 -.18899999999075 0 0 1 0 -18698913173687e-19 .189 0 0 1 31 255 7 688 0
 20 21 0 0 +0 -.0449556801461328 -.025 0 0 -1 -1 0 0 .011 29 255 8 111 0 11 0 0
 0 0 0 19 9 CCCCCCI5 frame230 0 CA5 owner12 0 Z9 192 0 1 17 0 22 0 V0 16 255 10
 586 0 ?23 0 24 21 0 0 1 18 255 11 109 0 25 0 0 8 ?1 17 255 25 0 26 25 25 11 0 0
 0 0 ?15 255 26 498 0 25 18 27 14 255 18 322 28 ?29 16 26 5 6 -0 0 29 16 22 15 2
7 321 0 30 18 0 17 30 0 27 30 30 0 31 24 0 0 +17 31 0 32 31 31 0 30 24 0 0 -16 2
4 316 0 ?30 10 33 34 0 0 1 16 33 311 0 ?35 24 36 37 0 0 1 31 34 373 0 24 37 21 0
 +0 -.00581 0 0 1 0 0 0 1 .0465 31 37 372 0 33 38 34 0 +0 -.00781 0 0 1 0 0 0 1
 .0465 38 12 CCCCCCCCCCCA17 intersection_data204 0 Z21 589 0 10 34 7 0 +39 40 41
 42 42 43 51 255 39 326 0 16 44 45 46 +0 0 0 0 1 0 .041 0 0 1 51 40 615 0 47 48
 44 49 -1387778780781446e-32 -.04385 .046502 0 0 -1 .0195 -1 0 0 40 255 21 41 0
 1 21 .00131310228638162 .377350305032047 ??0 -.06335 .041 -.00607320920527422 -
.0623801411205898 .04054770190712385 -.01145172086275584 -.0596331584064002 .039
36823706087845 -.0158913879574 -.0551510525521918 .03779502333360045 -.018807041
75540185 -.0490022015110602 .0364320625330295 -.01945366673015725 -.042506552661
2584 .0360909247699747 -.01819268338075375 -.03683029406544365 .0367427036485837
 -.01529206923234135 -.0317503050206512 .03804145920694 -.010485149831609 -.0274
0884331901465 .0396366198484269 -.004179644765096695 -.02480320054083625 .040786
40177360095 .002191010729724875 -.0244734814277118 .04094141511943905 .007890444
26225106 -.0260177009518035 .0402335791266985 .01292794601394028 -.0292514311708
0835 .038908459386882 .01700455018660235 -.0343056156326706 .0373074425946261 .0
1925321370911345 -.0407574667550362 .03619825633744265 .0192375051369766 -.04703
87922642907 .0362066070780569 .01748130341145165 -.0524902564219338 .03708643998
871785 .01401661489534402 -.0574067144572577 .0385296574975125 .0086367248268077
8 -.0613330484832023 .0400800072887469 .00215556451129153 -.0632304938440087 .04
09432966630395 990248770596962e-33 -.06335 .041 41 3 CI8 term_use0 0 1 cCZ1 42 H
?990248770596962e-33 -.06335 .041 204 2 17 INTERSECTION_DATA17 Intersection data
7 uv_type0 0 1 u6 values0 1 1 fT84 43 4 0 -.06335 4.71238898038469 .005502 6.134
51114260867 -.0623801411205898 5.02910397545265 .00595429809287617 6.00010959678
428 -.0596331584064002 5.34006797500416 .00713376293912155 5.88516427788494 -.05
51510525521918 5.66501976683148 .00870697666639955 5.8066442713999 -.04900220151
10602 6.01579492033194 .0100699374669705 5.78881246759282 -.0425065526612584 .06
8949353359869 .0104110752300253 5.82343541326923 -.03683029406544365 .3682517294
46176 .00975929635141629 5.90096950061834 -.0317503050206512 .669376531717886 .0
0846054079306001 6.02457702444025 -.02740884331901465 1.003089518310528 .0068653
8015157309 6.18106535171691 -.02480320054083625 1.354779475865996 .0057155982263
9903 .0534647537712672 -.0244734814277118 1.68339362153524 .00556058488056097 .1
936580663942065 -.0260177009518035 1.987379450968045 .0062684208733015 .32078936
57231085 -.02925143117080835 2.295577440426315 .007593540613118 .427662685121755
 -.0343056156326706 2.630127291995165 .00919455740537389 .488826988763619 -.0407
574667550362 2.982328770862545 .01030374366255736 .488393079461139 -.04703879226
42907 3.30585820017469 .0102953929219431 .4404795104273255 -.0524902564219338 3.
60063530930668 .00941556001128217 .348904645665594 -.0574067144572577 3.91031318
651333 .00797234250248751 .212241698885806 -.0613330484832023 4.253548335854775
 .00642199271125313 .0525989946949336 -.0632304938440087 4.60162083636266 .00555
870333696051 241524090389503e-31 -.06335 4.71238898038469 .005502 14 47 608 50 ?
51 52 53 5 40 -0 0 54 52 22 50 255 48 617 0 52 55 40 0 +1387778780781446e-32 -.0
4385 .025 0 0 1 1 0 0 50 44 325 0 56 40 39 0 +.041 -.00885 0 0 1 0 0 0 1 141 255
 49 21 49 49 40 14 56 204 57 ?52 58 59 5 44 -0 0 52 58 22 81 1 57 1164 60 56 61
 0 50 62 63 14 52 603 62 ?47 56 64 5 48 -0 0 47 56 22 14 58 214 65 ?56 66 67 5 4
5 -0 0 56 66 22 15 59 497 0 68 56 0 13 22 191 0 0 0 0 0 0 9 16 14 16 590 69 ?18
 0 70 5 39 -0 0 18 0 22 81 1 69 1170 60 16 71 0 65 72 73 15 70 638 0 74 16 75 17
 74 0 70 74 74 0 76 77 0 0 -15 75 496 0 78 16 79 17 78 0 75 78 78 0 80 81 0 0 -1
5 79 208 0 82 16 83 17 82 0 79 82 82 0 68 84 0 0 +15 83 588 0 85 16 0 17 85 0 83
 85 85 0 23 10 0 0 -17 23 0 86 23 23 0 85 10 0 0 +15 86 612 0 23 47 0 17 68 0 59
 68 68 0 82 84 0 0 -16 84 201 0 ?82 81 87 88 0 0 1 16 81 206 0 ?80 89 84 90 0 0
 1 16 87 595 0 ?91 84 92 93 0 0 1 31 88 350 0 84 93 90 0 +0 -.00885 0 0 1 0 0 0
 1 .041 31 93 619 0 87 94 88 0 +1387778780781446e-32 -.04385 .025 0 0 1 1 0 0 .0
195 31 90 351 0 81 88 95 0 +0 -.07085 0 0 1 0 0 0 1 .041 31 95 352 0 89 90 96 0
 +0 -.07085 0 0 1 0 0 0 1 .0465 16 89 211 0 ?97 98 81 95 0 0 1 31 96 353 0 98 95
 99 0 +0 -.06585 0 0 1 0 0 0 1 .0465 16 98 216 0 ?100 101 89 96 0 0 1 31 99 354
 0 101 96 102 0 +0 -.06585 0 0 1 0 0 0 1 .0425 16 101 221 0 ?103 104 98 99 0 0 1
 31 102 355 0 104 99 105 0 +0 -.06385 0 0 1 0 0 0 1 .0425 16 104 226 0 ?106 107
 101 102 0 0 1 31 105 356 0 107 102 108 0 +0 -.06385 0 0 1 0 0 0 1 .0465 16 107
 231 0 ?109 110 104 105 0 0 1 31 108 357 0 110 105 111 0 +0 -.02581 0 0 1 0 0 0
 1 .0465 16 110 236 0 ?112 113 107 108 0 0 1 31 111 358 0 113 108 114 0 +0 -.025
81 0 0 1 0 0 0 1 .0425 16 113 241 0 ?115 116 110 111 0 0 1 31 114 359 0 116 111
 117 0 +0 -.02281 0 0 1 0 0 0 1 .0425 16 116 246 0 ?118 119 113 114 0 0 1 31 117
 360 0 119 114 120 0 +0 -.02281 0 0 1 0 0 0 1 .0465 16 119 251 0 ?121 122 116 11
7 0 0 1 31 120 361 0 122 117 123 0 +0 -.02081 0 0 1 0 0 0 1 .0465 16 122 256 0 ?
124 125 119 120 0 0 1 31 123 362 0 125 120 126 0 +0 -.02081 0 0 1 0 0 0 1 .0425
 16 125 261 0 ?127 128 122 123 0 0 1 31 126 363 0 128 123 129 0 +0 -.01781 0 0 1
 0 0 0 1 .0425 16 128 266 0 ?130 131 125 126 0 0 1 31 129 364 0 131 126 132 0 +0
 -.01781 0 0 1 0 0 0 1 .0465 16 131 271 0 ?133 134 128 129 0 0 1 31 132 365 0 13
4 129 135 0 +0 -.01581 0 0 1 0 0 0 1 .0465 16 134 276 0 ?136 137 131 132 0 0 1 3
1 135 366 0 137 132 138 0 +0 -.01581 0 0 1 0 0 0 1 .0425 16 137 281 0 ?139 140 1
34 135 0 0 1 31 138 367 0 140 135 141 0 +0 -.01281 0 0 1 0 0 0 1 .0425 16 140 28
6 0 ?142 143 137 138 0 0 1 31 141 368 0 143 138 144 0 +0 -.01281 0 0 1 0 0 0 1 .
0465 16 143 291 0 ?145 146 140 141 0 0 1 31 144 369 0 146 141 147 0 +0 -.01081 0
 0 1 0 0 0 1 .0465 16 146 296 0 ?148 149 143 144 0 0 1 31 147 370 0 149 144 38 0
 +0 -.01081 0 0 1 0 0 0 1 .0425 16 149 301 0 ?150 36 146 147 0 0 1 31 38 371 0 3
6 147 37 0 +0 -.00781 0 0 1 0 0 0 1 .0425 16 36 306 0 ?151 33 149 38 0 0 1 17 15
1 0 152 151 151 0 153 36 0 0 +15 152 313 0 151 154 0 17 153 0 155 153 153 0 151
 36 0 0 -15 155 476 0 153 156 157 14 156 309 72 ?158 154 155 5 159 -0 0 158 154
 22 15 157 308 0 150 156 0 17 150 0 157 150 150 0 160 149 0 0 +17 160 0 161 160
 160 0 150 149 0 0 -15 161 477 0 160 158 162 14 158 304 163 ?164 156 161 5 165 -
0 0 164 156 22 15 162 303 0 148 158 0 17 148 0 162 148 148 0 166 146 0 0 +17 166
 0 167 166 166 0 148 146 0 0 -15 167 478 0 166 164 168 14 164 299 169 ?170 158 1
67 5 171 -0 0 170 158 22 15 168 298 0 145 164 0 17 145 0 168 145 145 0 172 143 0
 0 +17 172 0 173 172 172 0 145 143 0 0 -15 173 479 0 172 170 174 14 170 294 175
 ?176 164 173 5 177 -0 0 176 164 22 15 174 293 0 142 170 0 17 142 0 174 142 142
 0 178 140 0 0 +17 178 0 179 178 178 0 142 140 0 0 -15 179 480 0 178 176 180 14
 176 289 181 ?182 170 179 5 183 -0 0 182 170 22 15 180 288 0 139 176 0 17 139 0
 180 139 139 0 184 137 0 0 +17 184 0 185 184 184 0 139 137 0 0 -15 185 481 0 184
 182 186 14 182 284 187 ?188 176 185 5 189 -0 0 188 176 22 15 186 283 0 136 182
 0 17 136 0 186 136 136 0 190 134 0 0 +17 190 0 191 190 190 0 136 134 0 0 -15 19
1 482 0 190 188 192 14 188 279 193 ?194 182 191 5 195 -0 0 194 182 22 15 192 278
 0 133 188 0 17 133 0 192 133 133 0 196 131 0 0 +17 196 0 197 196 196 0 133 131
 0 0 -15 197 483 0 196 194 198 14 194 274 199 ?200 188 197 5 201 -0 0 200 188 22
 15 198 273 0 130 194 0 17 130 0 198 130 130 0 202 128 0 0 +17 202 0 203 202 202
 0 130 128 0 0 -15 203 484 0 202 200 204 14 200 269 205 ?206 194 203 5 207 -0 0
 206 194 22 15 204 268 0 127 200 0 17 127 0 204 127 127 0 208 125 0 0 +17 208 0
 209 208 208 0 127 125 0 0 -15 209 485 0 208 206 210 14 206 264 211 ?212 200 209
 5 213 -0 0 212 200 22 15 210 263 0 124 206 0 17 124 0 210 124 124 0 214 122 0 0
 +17 214 0 215 214 214 0 124 122 0 0 -15 215 486 0 214 212 216 14 212 259 217 ?2
18 206 215 5 219 -0 0 218 206 22 15 216 258 0 121 212 0 17 121 0 216 121 121 0 2
20 119 0 0 +17 220 0 221 220 220 0 121 119 0 0 -15 221 487 0 220 218 222 14 218
 254 223 ?224 212 221 5 225 -0 0 224 212 22 15 222 253 0 118 218 0 17 118 0 222
 118 118 0 226 116 0 0 +17 226 0 227 226 226 0 118 116 0 0 -15 227 488 0 226 224
 228 14 224 249 229 ?230 218 227 5 231 -0 0 230 218 22 15 228 248 0 115 224 0 17
 115 0 228 115 115 0 232 113 0 0 +17 232 0 233 232 232 0 115 113 0 0 -15 233 489
 0 232 230 234 14 230 244 235 ?236 224 233 5 237 -0 0 236 224 22 15 234 243 0 11
2 230 0 17 112 0 234 112 112 0 238 110 0 0 +17 238 0 239 238 238 0 112 110 0 0 -
15 239 490 0 238 236 240 14 236 239 241 ?242 230 243 5 244 -0 0 242 230 22 15 24
0 238 0 109 236 0 17 109 0 240 109 109 0 245 107 0 0 +17 245 0 246 245 245 0 109
 107 0 0 -15 246 491 0 245 242 247 14 242 234 248 ?249 236 246 5 250 -0 0 249 23
6 22 15 247 233 0 106 242 0 17 106 0 247 106 106 0 251 104 0 0 +17 251 0 252 251
 251 0 106 104 0 0 -15 252 492 0 251 249 253 14 249 229 254 ?255 242 252 5 256 -
0 0 255 242 22 15 253 228 0 103 249 0 17 103 0 253 103 103 0 257 101 0 0 +17 257
 0 258 257 257 0 103 101 0 0 -15 258 493 0 257 255 259 14 255 224 260 ?66 249 25
8 5 261 -0 0 66 249 22 15 259 223 0 100 255 0 17 100 0 259 100 100 0 262 98 0 0
 +17 262 0 263 262 262 0 100 98 0 0 -15 263 494 0 262 66 264 14 66 219 265 ?58 2
55 263 5 266 -0 0 58 255 22 15 264 218 0 97 66 0 17 97 0 264 97 97 0 267 89 0 0
 +17 267 0 67 267 267 0 97 89 0 0 -15 67 495 0 267 58 268 15 268 213 0 80 58 0 1
7 80 0 268 80 80 0 78 81 0 0 +81 1 265 1208 60 66 269 0 260 270 271 51 266 328 0
 66 45 261 0 -0 0 0 0 1 0 .0465 0 0 1 50 45 327 0 58 39 266 0 +.0465 -.07085 0 0
 1 0 0 0 1 50 261 329 0 255 266 256 0 +.0425 -.06585 0 0 -1 0 0 0 -1 51 256 330
 0 249 261 250 0 -0 0 0 0 1 0 .0425 0 0 1 50 250 331 0 242 256 244 0 +.0465 -.06
385 0 0 1 0 0 0 1 51 244 332 0 236 250 237 272 -0 0 0 0 1 0 .0465 0 0 1 50 237 3
33 0 230 244 231 0 +.0425 -.02581 0 0 -1 0 0 0 -1 141 272 273 274 274 244 38 273
 806 0 275 276 277 0 +244 278 279 280 280 281 141 274 277 272 272 244 38 277 805
 0 282 273 283 0 +244 278 284 285 285 286 16 282 738 0 ?287 77 275 277 0 0 1 38
 283 670 0 77 277 94 0 +55 288 289 290 290 291 51 278 802 0 292 0 288 293 +0 -.0
449556801461328 .0465 0 0 -1 .011 -1 0 0 40 20 284 0 1 20 .000644278459052092 .3
46413743218854 ??0 -.0559556801461328 .0465 -.003584553174355205 -.0553552464130
605 .0463616326129723 -.00676405134424615 -.0536302181403087 .0460054084800081 -
.00924120336889682 -.0509222671349137 .0455724715183924 -.01070367368211942 -.04
749169467817 .0452513134583595 -.01094173020483796 -.0438249546602007 .045194341
903877 -.00999500108662212 -.04036221160064095 .045413103321381 -.00797088927375
887 -.0373751178856223 .0458117334771942 -.00500759777389764 -.03516160211219535
 .0462295788920347 -.001453218656667938 -.03405209561920255 .0464772864476393 .0
02190119004973775 -.0341759130454922 .0464483947918984 .00554251935095861 -.0354
5407611080015 .0461685009421386 .00833550591232727 -.03777798266117585 .04574679
59663358 .0102499658358735 -.0409634125745106 .0453562366203748 .010994167235019
72 -.04459750866706315 .0451816144776658 .01051603086438124 -.0481826128785245 .
0452952877776417 .00891925328040294 -.0513936084557695 .045636574377576 .0063117
6574642931 -.0539646541810716 .0460696387348783 .002939874965067925 -.0555555450
127132 .0464069729156058 -171316530032566e-32 -.0559556801461328 .0465 41 1 285
 H?-171316530032566e-32 -.0559556801461328 .0465 204 80 286 4 0 -.05595568014613
28 4.71238898038469 693889390390723e-32 6.20602158972743 -.0553552464130605 5.04
431917598694 .0001383673870276672 6.13720389838432 -.0536302181403087 5.37466558
126859 .000494591519991892 6.08311773424075 -.0509222671349137 5.70987385589842
 .00092752848160757 6.0509159506418 -.04749169467817 6.05054574881345 .001248686
54164055 6.04565188412484 -.0438249546602007 .1029751187445636 .0013056580961229
64 6.06654850393415 -.04036221160064095 .4307892234273835 .001086896678619046 6.
11091755550604 -.0373751178856223 .760304359167184 .000688266522805812 6.1752857
8777158 -.03516160211219535 1.09815889139702 .000270421107965359 6.2519282035739
6 -.03405209561920255 1.438298195873172 22713552360748e-18 .0471167646258577 -.0
341759130454922 1.77123753792365 516052081016225e-19 .1194780197830688 -.0354540
7611080015 2.09886425738239 .000331499057861444 .1802323774341335 -.037777982661
17585 2.430690119123655 .000753204033664211 .2222546490698785 -.0409634125745106
 2.77017861633365 .001143763379625232 .238693842847728 -.04459750866706315 3.109
025853637825 .001318385522334216 .228124694086354 -.0481826128785245 3.439329649
195395 .001204712222358266 .1930079935248265 -.0513936084557695 3.76680098578265
5 .000863425622424058 .1361572061736422 -.0539646541810716 4.101254597445105 .00
04303612651216785 .0632653123159341 -.0555555450127132 4.441839094382735 9302708
43942441e-19 0 -.0559556801461328 4.71238898038469 693889390390723e-32 14 292 76
3 270 ?0 294 295 5 278 -294 294 0 294 22 51 288 668 0 1 278 296 297 +0 0 0 0 1 0
 .041 0 0 1 141 293 273 298 298 278 141 298 277 293 293 278 50 296 667 0 54 288
 55 0 +1387778780781446e-32 -.04385 -.025 0 0 -1 1 0 0 141 297 283 297 297 288 1
4 54 659 299 ?294 51 300 5 296 -0 0 51 47 22 51 55 666 0 51 296 48 301 +13877787
80781446e-32 -.04385 -.046502 0 0 1 .0195 1 0 0 14 51 654 302 ?54 47 303 5 55 +0
 0 294 54 22 141 301 283 301 301 55 81 1 302 1214 60 51 304 0 299 305 306 15 303
 657 0 307 51 308 14 294 772 305 ?292 54 309 5 278 -292 292 292 51 22 81 1 305 1
216 60 294 310 0 302 311 312 15 309 775 0 313 294 314 17 313 0 309 313 313 0 315
 20 0 0 -15 314 776 0 316 294 0 17 316 0 314 316 316 0 317 275 0 0 -17 317 0 318
 317 317 0 316 275 0 0 +16 275 744 0 ?317 282 319 273 0 0 1 16 319 737 0 ?320 27
5 20 276 0 0 1 17 320 0 64 320 320 0 321 319 0 0 +16 20 743 0 ?315 319 0 7 0 0 1
 31 276 807 0 319 0 273 0 +0 -.0449556801461328 .025 0 0 1 1 0 0 .011 17 315 0 3
00 315 315 0 313 20 0 0 +15 300 686 0 315 54 322 15 322 663 0 323 54 0 17 323 0
 322 323 323 0 307 92 0 0 +17 307 0 303 307 307 0 323 92 0 0 -16 92 646 0 ?323 8
7 77 94 0 0 1 16 77 645 0 ?76 92 282 283 0 0 1 31 94 669 0 92 283 93 0 +13877787
80781446e-32 -.04385 -.025 0 0 1 1 0 0 .0195 17 76 0 308 76 76 0 74 77 0 0 +15 3
08 658 0 76 51 0 15 64 693 0 320 52 324 17 321 0 295 321 321 0 320 319 0 0 -15 2
95 766 0 321 292 325 15 325 767 0 326 292 0 17 326 0 325 326 326 0 287 282 0 0 -
17 287 0 243 287 287 0 326 282 0 0 +15 243 716 0 287 236 318 15 318 699 0 317 23
6 239 15 324 607 0 327 52 0 17 327 0 324 327 327 0 91 87 0 0 -17 91 0 53 91 91 0
 327 87 0 0 +15 53 611 0 91 47 86 80 7 CCCCCDI12 legal_owners0 16 1 lCZ1 60 328
 329 9000 1 1 1 1 1 1 1 1 0 FFFFTFTFFFFFFFFF1 81 3 310 1215 330 294 331 305 304
 332 333 0 0 81 1 311 1218 60 154 332 0 305 334 335 82 255 1 312 1138425993 14 1
54 314 311 ?156 29 336 5 337 -0 0 156 29 22 81 3 332 1217 330 154 338 311 310 33
9 340 0 0 81 1 334 1220 60 29 339 0 311 0 341 82 1 335 -1648689027 14 29 319 334
 ?154 18 32 5 19 -0 0 154 18 22 81 3 339 1219 330 29 342 334 332 0 343 0 0 82 1
 341 -1648099203 80 3 330 344 345 9000 0 0 0 0 3 5 0 0 0 FFFFTFFFFFFFFFFF1 1 1 8
1 1 342 1035 346 29 0 339 347 338 348 82 6 343 0 -369350875 31107219 0 0 0 80 1
 346 0 349 8001 0 0 0 0 3 5 0 0 0 FFFFTFTFFFFFFFFF2 81 1 347 1034 346 18 0 350 3
51 342 352 81 1 338 1036 346 154 0 332 342 353 354 83 255 3 348 .792156862745098
 .819607843137255 .933333333333333 81 1 353 1037 346 156 0 355 338 356 357 83 3
 354 .792156862745098 .819607843137255 .933333333333333 81 3 355 1171 330 156 35
3 72 71 358 359 0 0 81 1 356 1038 346 158 0 358 353 360 361 83 3 357 .7921568627
45098 .819607843137255 .933333333333333 81 3 358 1173 330 158 356 163 355 362 36
3 0 0 81 1 360 1039 346 164 0 362 356 364 365 83 3 361 .792156862745098 .8196078
43137255 .933333333333333 81 3 362 1175 330 164 360 169 358 366 367 0 0 81 1 364
 1040 346 170 0 366 360 368 369 83 3 365 .792156862745098 .819607843137255 .9333
33333333333 81 3 366 1177 330 170 364 175 362 370 371 0 0 81 1 368 1041 346 176
 0 370 364 372 373 83 3 369 .792156862745098 .819607843137255 .933333333333333 8
1 3 370 1179 330 176 368 181 366 374 375 0 0 81 1 372 1042 346 182 0 374 368 376
 377 83 3 373 .792156862745098 .819607843137255 .933333333333333 81 3 374 1181 3
30 182 372 187 370 378 379 0 0 81 1 376 1043 346 188 0 378 372 380 381 83 3 377
 .792156862745098 .819607843137255 .933333333333333 81 3 378 1183 330 188 376 19
3 374 382 383 0 0 81 1 380 1044 346 194 0 382 376 384 385 83 3 381 .792156862745
098 .819607843137255 .933333333333333 81 3 382 1185 330 194 380 199 378 386 387
 0 0 81 1 384 1045 346 200 0 386 380 388 389 83 3 385 .792156862745098 .81960784
3137255 .933333333333333 81 3 386 1187 330 200 384 205 382 390 391 0 0 81 1 388
 1046 346 206 0 390 384 392 393 83 3 389 .792156862745098 .819607843137255 .9333
33333333333 81 3 390 1189 330 206 388 211 386 394 395 0 0 81 1 392 1047 346 212
 0 394 388 396 397 83 3 393 .792156862745098 .819607843137255 .933333333333333 8
1 3 394 1191 330 212 392 217 390 398 399 0 0 81 1 396 1048 346 218 0 398 392 400
 401 83 3 397 .792156862745098 .819607843137255 .933333333333333 81 3 398 1193 3
30 218 396 223 394 402 403 0 0 81 1 400 1049 346 224 0 402 396 404 405 83 3 401
 .792156862745098 .819607843137255 .933333333333333 81 3 402 1195 330 224 400 22
9 398 406 407 0 0 81 1 404 1050 346 230 0 406 400 408 409 83 3 405 .792156862745
098 .819607843137255 .933333333333333 81 3 406 1197 330 230 404 235 402 410 411
 0 0 81 1 408 1051 346 236 0 410 404 412 413 83 3 409 .792156862745098 .81960784
3137255 .933333333333333 81 3 410 1199 330 236 408 241 406 414 415 0 0 81 1 412
 1052 346 242 0 414 408 416 417 83 3 413 .792156862745098 .819607843137255 .9333
33333333333 81 3 414 1201 330 242 412 248 410 418 419 0 0 81 1 416 1053 346 249
 0 418 412 420 421 83 3 417 .792156862745098 .819607843137255 .933333333333333 8
1 3 418 1203 330 249 416 254 414 422 423 0 0 81 1 420 1054 346 255 0 422 416 424
 425 83 3 421 .792156862745098 .819607843137255 .933333333333333 81 3 422 1205 3
30 255 420 260 418 269 426 0 0 81 1 424 1055 346 66 0 269 420 427 428 83 3 425 .
792156862745098 .819607843137255 .933333333333333 81 3 269 1207 330 66 424 265 4
22 429 430 0 0 81 1 427 1056 346 58 0 431 424 432 433 83 3 428 .792156862745098
 .819607843137255 .933333333333333 81 3 431 1167 330 58 427 65 434 71 435 0 0 81
 1 432 1057 346 56 0 61 427 436 437 83 3 433 .792156862745098 .819607843137255 .
933333333333333 81 3 61 1163 330 56 432 57 438 434 439 0 0 81 1 436 1058 346 52
 0 434 432 440 441 83 3 437 .792156862745098 .819607843137255 .933333333333333 8
1 3 434 1165 330 52 436 62 61 431 442 0 0 81 1 440 1059 346 47 0 438 436 443 444
 83 3 441 .792156862745098 .819607843137255 .933333333333333 81 3 438 1161 330 4
7 440 50 350 61 445 0 0 81 1 443 1060 346 51 0 304 440 446 447 83 3 444 .7921568
62745098 .819607843137255 .933333333333333 81 3 304 1213 330 51 443 302 448 310
 449 0 0 81 1 446 1061 346 54 0 448 443 331 450 83 3 447 .792156862745098 .81960
7843137255 .933333333333333 81 3 448 1211 330 54 446 299 429 304 451 0 0 81 1 33
1 1062 346 294 0 310 446 452 453 83 3 450 .792156862745098 .819607843137255 .933
333333333333 81 1 452 1063 346 292 0 429 331 0 454 83 3 453 .792156862745098 .81
9607843137255 .933333333333333 81 3 429 1209 330 292 452 270 269 448 455 0 0 83
 3 454 .792156862745098 .819607843137255 .933333333333333 81 1 270 1210 60 292 4
29 0 265 299 456 82 6 455 0 746194982 31107221 0 0 0 81 1 299 1212 60 54 448 0 2
70 302 457 82 1 456 1139409033 82 1 457 1494417545 82 6 451 0 746194982 31107221
 0 0 0 82 6 449 0 -758302437 31107220 0 0 0 81 1 50 1162 60 47 438 0 28 57 458 8
1 3 350 1159 330 18 347 28 0 438 459 0 0 82 6 445 0 -1685483170 31107220 0 0 0 8
1 1 28 1160 60 18 350 0 0 50 460 82 6 459 0 -369350875 31107219 0 0 0 82 1 460 -
1647771523 82 1 458 -440860541 81 1 62 1166 60 52 434 0 57 65 461 82 6 442 0 746
194982 31107221 0 0 0 81 1 65 1168 60 58 431 0 62 69 462 82 1 461 -448069495 82
 1 462 -1660485507 82 6 439 0 -369350875 31107219 0 0 0 81 3 71 1169 330 16 351
 69 431 355 463 0 0 82 6 435 0 -369350875 31107219 0 0 0 81 1 351 1033 346 16 0
 71 0 347 464 82 6 463 0 -758302437 31107220 0 0 0 83 3 464 .792156862745098 .81
9607843137255 .933333333333333 82 6 430 0 -369350875 31107219 0 0 0 81 1 260 120
6 60 255 422 0 254 265 465 82 6 426 0 -369350875 31107219 0 0 0 81 1 254 1204 60
 249 418 0 248 260 466 82 1 465 -1659305859 81 1 248 1202 60 242 414 0 241 254 4
67 82 1 466 -1658716035 81 1 241 1200 60 236 410 0 235 248 468 82 1 467 -1658126
211 81 1 235 1198 60 230 406 0 229 241 469 82 1 468 -1657536375 81 1 229 1196 60
 224 402 0 223 235 470 82 1 469 -1656946563 81 1 223 1194 60 218 398 0 217 229 4
71 82 1 470 -1656356739 81 1 217 1192 60 212 394 0 211 223 472 82 1 471 -1655766
915 81 1 211 1190 60 206 390 0 205 217 473 82 1 472 -1655177091 81 1 205 1188 60
 200 386 0 199 211 474 82 1 473 -1654587267 81 1 199 1186 60 194 382 0 193 205 4
75 82 1 474 -1653997443 81 1 193 1184 60 188 378 0 187 199 476 82 1 475 -1653407
619 81 1 187 1182 60 182 374 0 181 193 477 82 1 476 -1652817795 81 1 181 1180 60
 176 370 0 175 187 478 82 1 477 -1652227971 81 1 175 1178 60 170 366 0 169 181 4
79 82 1 478 -1651638147 81 1 169 1176 60 164 362 0 163 175 480 82 1 479 -1651048
323 81 1 163 1174 60 158 358 0 72 169 481 82 1 480 -1650458499 81 1 72 1172 60 1
56 355 0 69 163 482 82 1 481 -1649868675 82 1 482 -1649278851 82 6 423 0 -369350
875 31107219 0 0 0 82 6 419 0 -369350875 31107219 0 0 0 82 6 415 0 746194982 311
07221 0 0 0 82 6 411 0 -369350875 31107219 0 0 0 82 6 407 0 -369350875 31107219
 0 0 0 82 6 403 0 -369350875 31107219 0 0 0 82 6 399 0 -369350875 31107219 0 0 0
 82 6 395 0 -369350875 31107219 0 0 0 82 6 391 0 -369350875 31107219 0 0 0 82 6
 387 0 -369350875 31107219 0 0 0 82 6 383 0 -369350875 31107219 0 0 0 82 6 379 0
 -369350875 31107219 0 0 0 82 6 375 0 -369350875 31107219 0 0 0 82 6 371 0 -3693
50875 31107219 0 0 0 82 6 367 0 -369350875 31107219 0 0 0 82 6 363 0 -369350875
 31107219 0 0 0 82 6 359 0 -369350875 31107219 0 0 0 83 3 352 .792156862745098 .
819607843137255 .933333333333333 79 255 15 349 SDL/TYSA_COLOUR79 18 345 DOWNSTRE
AM_FACE_ID15 32 474 0 31 29 483 51 19 348 0 29 337 6 0 -0 0 0 0 1 0 .0465 0 0 1
 50 337 347 0 154 159 19 0 +.0465 -.00781 0 0 1 0 0 0 1 51 159 346 0 156 165 337
 0 -0 0 0 0 1 0 .0425 0 0 1 50 165 345 0 158 171 159 0 +.0425 -.01081 0 0 -1 0 0
 0 -1 51 171 344 0 164 177 165 0 -0 0 0 0 1 0 .0465 0 0 1 50 177 343 0 170 183 1
71 0 +.0465 -.01281 0 0 1 0 0 0 1 51 183 342 0 176 189 177 0 -0 0 0 0 1 0 .0425
 0 0 1 50 189 341 0 182 195 183 0 +.0425 -.01581 0 0 -1 0 0 0 -1 51 195 340 0 18
8 201 189 0 -0 0 0 0 1 0 .0465 0 0 1 50 201 339 0 194 207 195 0 +.0465 -.01781 0
 0 1 0 0 0 1 51 207 338 0 200 213 201 0 -0 0 0 0 1 0 .0425 0 0 1 50 213 337 0 20
6 219 207 0 +.0425 -.02081 0 0 -1 0 0 0 -1 51 219 336 0 212 225 213 0 -0 0 0 0 1
 0 .0465 0 0 1 50 225 335 0 218 231 219 0 +.0465 -.02281 0 0 1 0 0 0 1 51 231 33
4 0 224 237 225 0 -0 0 0 0 1 0 .0425 0 0 1 15 483 318 0 35 29 0 17 35 0 483 35 3
5 0 484 33 0 0 +17 484 0 336 484 484 0 35 33 0 0 -15 336 475 0 484 154 152 82 6
 340 0 -369350875 31107219 0 0 0 82 6 333 0 746194982 31107221 0 0 0 79 14 329 S
WEntUnchanged82 1 306 1503723654 40 21 289 0 1 21 .00131838196872616 .3780559101
465965 ??.0195 -.04385 -.036065911883661 .01854535355069235 -.0378234038064739 -
.03656596589288765 .015849754827856 -.03249063065584815 -.0378125015292146 .0113
486933563254 -.02799259923240585 -.0393980603469777 .0051900728868604 -.02505337
414776055 -.04067017510939775 -.001251618939580504 -.02439020940425915 -.0409808
912791082 -.00705744047663684 -.02567192161094225 -.04038802463501685 -.01220099
85219379 -.02863863467443935 -.0391425042002638 -.0164710822378103 -.03341192307
389485 -.0375460177637428 -.01906046204990345 -.03973310961474685 -.036300121025
20035 -.01936592676145575 -.0461327353482022 -.036138080755208 -.017854487876064
95 -.0516901060377682 -.0369082275743966 -.01467480145715014 -.0566913473667378
 -.03828381122868025 -.00957298924066272 -.0608384630557963 -.03986675152301925
 -.003159105439581305 -.0630924024701077 -.0408781121484543 .00312288795926235 -
.0630983134532326 -.0408808949363134 .00871747808649896 -.0612929233734317 -.040
0625208369545 .01364113342426224 -.0577844708870296 -.0386641885845478 .01749930
727910025 -.0524537343492015 -.03707794822737135 .0193904253543881 -.04591431697
56373 -.03612494158577845 .0195 -.04385 -.036065911883661 41 1 290 H?.0195 -.043
85 -.036065911883661 204 84 291 4 0 .010436088116339 2.645935576344515 -.04385 .
3142005046962655 .00993603410711235 2.672221320591195 -.0378234038064739 .621840
059992084 .0086894984707854 2.744672920109595 -.03249063065584815 .9496296786697
87 .00710393965302231 2.86113297190383 -.02799259923240585 1.301391702219636 .00
583182489060224 3.01466497013743 -.02505337414776055 1.635026067197355 .00552110
872089183 3.17212468826459 -.02439020940425915 1.94112304871883 .006113975364983
14 3.31458692502056 -.02567192161094225 2.246814941387765 .00735949579973619 3.4
43755049452335 -.02863863467443935 2.576746353837275 .00895598223625719 3.555001
918372785 -.03341192307389485 2.92886936512804 .01020187897479966 3.625102248721
835 -.03973310961474685 3.25892503649026 .01036391924479202 3.633536000345895 -.
0461327353482022 3.5553546669017 .00959377242560338 3.59215887196145 -.051690106
0377682 3.86045723668596 .00821818877131974 3.507634149474015 -.0566913473667378
 4.199240633737955 .00663524847698077 3.377255479947255 -.0608384630557963 4.549
6664114557 .00562388785154568 3.21872045135252 -.0630924024701077 4.873229668514
03 .0056211050636866 3.065350812720165 -.0630983134532326 5.17585386936642 .0064
3947916304553 2.927335714250505 -.0612929233734317 5.48714997348767 .00783781141
545221 2.802416205932325 -.0577844708870296 5.8262307830728 .00942405177262865 2
.700627630702165 -.0524537343492015 6.177124163614 .01037705841422156 2.64897126
732745 -.0459143169756373 0 .010436088116339 2.645935576344515 -.04385 40 20 279
 0 1 20 .000645312496452964 .345909938898199 ??-.011 -.0449556801461328 -.045180
1947760299 -.01040014107897222 -.0485385652318527 -.0453220373056803 -.008677050
16910034 -.0517165085245873 -.045683244197002 -.00596817718998601 -.054195856607
0523 -.0461154080652978 -.00253796411831099 -.0556588917265028 -.046430687461356
5 .001127610522923044 -.0558977318051496 -.0464863258873897 .00459536491527076 -
.0549498094876762 -.0462723742776994 .00758367018283367 -.0529236125352786 -.045
8774230592565 .00979482719739415 -.0499618124029942 -.045456697638227 .010904005
82825556 -.0464057342476643 -.045203458461686 .01077928683695596 -.0427631986099
2135 -.0452333613087357 .00950321330397006 -.0394159205034004 -.0455185559623682
 .00718010758770421 -.03662225017828685 -.0459423122516596 .003993401506188285 -
.03470615603960115 -.0463282067903602 .0003615607568650915 -.0339616238510661 -.
0464985943208942 -.00322653594916737 -.03443952753366415 -.0463879237061623 -.00
644147138858988 -.036038985335275 -.046051682340062 -.00901046055595447 -.038646
03668793415 -.045618654085468 -.01060042213053706 -.0420178151637995 -.045275612
095856 -.011 -.0449556801461328 -.0451801947760299 41 1 280 H?-.011 -.0449556801
461328 -.0451801947760299 204 80 281 4 3.38041559444962 -.0449556801461328 0 .09
16801947760299 3.36715956477711 -.0485385652318527 5.95141550697175 .09182203730
56803 3.32929615687001 -.0517165085245873 5.62128019572066 .092183244197002 3.27
0295571299755 -.0541958566070523 5.2858725185139 .0926154080652978 3.19619966205
9845 -.0556588917265028 4.94521068447118 .0929306874613565 3.117340587634585 -.0
558977318051496 4.60969854396856 .0929863258873897 3.04260602986725 -.0549498094
876762 4.2814100168603 .0927723742776994 2.977771195971855 -.0529236125352786 3.
951694639781045 .0923774230592565 2.92936157289082 -.0499618124029942 3.61408046
173528 .091956697638227 2.904893860896405 -.0464057342476643 3.27380055940525 .0
91703458461686 2.90765200547847 -.04276319860992135 2.940932274102815 .091733361
3087357 2.935772390847105 -.0394159205034004 2.61381514496822 .0920185559623682
 2.98656146301397 -.03662225017828685 2.28198803421698 .0924423122516596 3.05560
713467725 -.03470615603960115 1.942320994566055 .0928282067903602 3.133817075090
97 -.0339616238510661 1.60367140792874 .0929985943208942 3.21103632447206 -.0344
3952753366415 1.273097062243202 .0928879237061623 3.280565832329535 -.0360389853
35275 .945190698210674 .092551682340062 3.336599595486505 -.03864603668793415 .6
10898827466389 .092118654085468 3.37158088755156 -.0420178151637995 .27036026755
68005 .091775612095856 3.38041559444962 -.0449556801461328 0 .0916801947760299 8
2 1 271 -1659895683 82 1 73 -424542074 82 1 63 -1661665155 141 46 21 46 46 39 19
 17 187 0 1 0 9 5 0 S0 74 4 CI16 index_map_offset0 0 1 dCCZ20 15 11 0 0 339 334
 485 486 487 488 489 490 13 452 2 0 0 0 0 0 0 0 0 0 81 2 485 671 491 1 0 486 0 0
 0 492 81 2 486 673 493 1 485 487 0 0 0 494 81 2 487 674 495 1 486 488 0 0 496 0
 81 1 488 835 497 1 487 489 0 0 498 81 2 489 868 499 1 488 490 0 0 500 0 81 2 49
0 963 501 1 489 13 0 0 0 502 81 2 13 966 503 1 490 2 0 0 0 0 80 2 503 504 505 90
00 0 0 0 0 3 5 0 0 0 FFTFFFFFFFFFFFFF9 1 79 16 505 BODY_RECIPE_200180 2 501 506
 507 9000 0 0 0 0 3 5 0 0 0 FFTFFFFFFFFFFFFF9 1 82 1 502 1 79 24 507 BODY_IN_LIG
HTWEIGHT_PERM80 2 499 508 509 8004 0 0 0 0 3 5 0 0 0 FFTFFFFFFFFFFFFF2 3 83 1 50
0 1 79 16 509 SDL/TYSA_DENSITY80 1 497 510 511 9000 1 1 1 1 1 1 1 1 0 FFTFFFFFFF
FFFFFF1 82 1 498 2530336 79 10 511 BODY_MATCH80 2 495 512 513 9000 0 0 0 0 3 5 0
 0 0 FFTFTTTFFTFFFFFF3 3 84 255 12 496 Cut-Extrude179 21 513 SWIMPLICITBODYNAME_
ID80 2 493 514 515 9000 0 0 0 0 3 5 0 0 0 FFTFFFFFFFFFFFFF9 1 82 1 494 125 79 30
 515 LAST_BODY_MODIFYING_FEATURE_ID80 2 491 516 517 9000 0 0 0 0 3 5 0 0 0 FFTFF
FFFFFFFFFFF9 1 82 1 492 111 79 19 517 ENT_TIME_STAMP_200180 2 12 518 519 9000 0
 0 0 0 3 5 0 0 0 FFTFFFFFFFFFFFFF9 1 82 1 14 105 79 12 519 ATOM_ID_20011 0 
